0
SECTION
2
HEADER
9
$INSUNITS
70
4
9
$ACADVER
1
AC1014
9
$HANDSEED
5
FFFF
0
ENDSEC
0
SECTION
2
TABLES
0
TABLE
2
VPORT
5
8
100
AcDbSymbolTable
0
ENDTAB
0
TABLE
2
LTYPE
5
5
100
AcDbSymbolTable
0
LTYPE
5
14
100
AcDbSymbolTableRecord
100
AcDbLinetypeTableRecord
2
BYBLOCK
70
0
0
LTYPE
5
15
100
AcDbSymbolTableRecord
100
AcDbLinetypeTableRecord
2
BYLAYER
70
0
0
ENDTAB
0
TABLE
2
LAYER
5
2
100
AcDbSymbolTable
70
2
0
LAYER
5
50
100
AcDbSymbolTableRecord
100
AcDbLayerTableRecord
2
0
70
0
6
CONTINUOUS
0
ENDTAB
0
TABLE
2
STYLE
5
3
100
AcDbSymbolTable
70
1
0
STYLE
5
11
100
AcDbSymbolTableRecord
100
AcDbTextStyleTableRecord
2
STANDARD
70
0
0
ENDTAB
0
TABLE
2
VIEW
5
6
100
AcDbSymbolTable
70
0
0
ENDTAB
0
TABLE
2
UCS
5
7
100
AcDbSymbolTable
70
0
0
ENDTAB
0
TABLE
2
APPID
5
9
100
AcDbSymbolTable
70
2
0
APPID
5
12
100
AcDbSymbolTableRecord
100
AcDbRegAppTableRecord
2
ACAD
70
0
0
ENDTAB
0
TABLE
2
DIMSTYLE
5
A
100
AcDbSymbolTable
70
1
0
ENDTAB
0
TABLE
2
BLOCK_RECORD
5
1
100
AcDbSymbolTable
70
1
0
BLOCK_RECORD
5
1F
100
AcDbSymbolTableRecord
100
AcDbBlockTableRecord
2
*MODEL_SPACE
0
BLOCK_RECORD
5
1B
100
AcDbSymbolTableRecord
100
AcDbBlockTableRecord
2
*PAPER_SPACE
0
ENDTAB
0
ENDSEC
0
SECTION
2
BLOCKS
0
BLOCK
5
20
100
AcDbEntity
100
AcDbBlockBegin
2
*MODEL_SPACE
0
ENDBLK
5
21
100
AcDbEntity
100
AcDbBlockEnd
0
BLOCK
5
1C
100
AcDbEntity
100
AcDbBlockBegin
2
*PAPER_SPACE
0
ENDBLK
5
1D
100
AcDbEntity
100
AcDbBlockEnd
0
ENDSEC
0
SECTION
2
ENTITIES
0
LWPOLYLINE
5
100
100
AcDbEntity
8
0
100
AcDbPolyline
90
4
70
1
43
0.0
10
-145.99999912083146
20
-196.7087577195727
10
-145.99999912083146
20
-199.70875771957267
10
-139.99999906122684
20
-199.70875771957267
10
-139.99999906122684
20
-196.7087577195727
0
LWPOLYLINE
5
101
100
AcDbEntity
8
0
100
AcDbPolyline
90
4
70
1
43
0.0
10
-141.99999906122682
20
-150.6108240218521
10
-141.99999906122682
20
-161.07841771714536
10
-138.99999906122684
20
-161.07841771714536
10
-138.99999906122684
20
-150.6108240218521
0
LWPOLYLINE
5
102
100
AcDbEntity
8
0
100
AcDbPolyline
90
12
70
1
43
0.0
10
-112.60721270496894
20
-211.79865553337604
10
-112.60721270496894
20
-202.29865553337589
10
-115.60721270496896
20
-202.29865553337589
10
-115.60721270496896
20
-211.79865553337604
10
-120.60721270496902
20
-211.79865553337604
10
-120.60721270496902
20
-214.79865553337604
10
-115.60721270496896
20
-214.79865553337589
10
-115.60721270496896
20
-224.37467459892787
10
-112.60721270496903
20
-224.37467459892787
10
-112.60721270496894
20
-214.79865553337589
10
-105.60721270496904
20
-214.79865553337589
10
-105.60721270496904
20
-211.79865553337592
0
LWPOLYLINE
5
103
100
AcDbEntity
8
0
100
AcDbPolyline
90
12
70
1
43
0.0
10
-146.99999906122696
20
-287.46805721068881
10
-146.99999906122696
20
-280.96583595917639
10
-134.99999906122699
20
-280.96583595917639
10
-134.99999906122699
20
-277.96583595917645
10
-146.99999906122696
20
-277.96583595917639
10
-146.99999906122696
20
-271.96583595917639
10
-149.9999990612269
20
-271.96583595917639
10
-149.9999990612269
20
-277.96583595917639
10
-159.99999938905231
20
-277.96583595917639
10
-159.99999938905231
20
-280.96583595917639
10
-149.9999990612269
20
-280.96583595917639
10
-149.9999990612269
20
-287.46805721068887
0
LWPOLYLINE
5
104
100
AcDbEntity
8
0
100
AcDbPolyline
90
4
70
1
43
0.0
10
-183.99999968707561
20
-199.70875771957267
10
-183.99999968707561
20
-196.7087577195727
10
-189.99999906122684
20
-196.7087577195727
10
-189.99999906122684
20
-199.70875771957267
0
LWPOLYLINE
5
105
100
AcDbEntity
8
0
100
AcDbPolyline
90
12
70
1
43
0.0
10
-157.99999906122682
20
-202.40213024788233
10
-154.99999906122682
20
-202.40213024788233
10
-154.99999906122682
20
-199.70875771957267
10
-148.99999916553492
20
-199.70875771957267
10
-148.99999916553492
20
-196.7087577195727
10
-154.99999906122682
20
-196.7087577195727
10
-154.99999906122682
20
-193.90608623825216
10
-157.99999906122682
20
-193.90608623825216
10
-157.99999906122682
20
-196.7087577195727
10
-162.99999937415117
20
-196.7087577195727
10
-162.99999937415117
20
-199.70875771957267
10
-157.99999906122682
20
-199.70875771957267
0
LWPOLYLINE
5
106
100
AcDbEntity
8
0
100
AcDbPolyline
90
4
70
1
43
0.0
10
-167.99999906122682
20
-150.6108240218521
10
-170.99999906122687
20
-150.61082402185212
10
-170.99999906122687
20
-161.07841771714536
10
-167.99999906122682
20
-161.07841771714536
0
LWPOLYLINE
5
107
100
AcDbEntity
8
0
100
AcDbPolyline
90
12
70
1
43
0.0
10
-176.99999906122696
20
-277.96583595917639
10
-188.99999906122699
20
-277.96583595917645
10
-188.99999906122699
20
-280.96583595917639
10
-176.99999906122696
20
-280.96583595917639
10
-176.99999906122696
20
-287.46805721068887
10
-173.99999906122699
20
-287.46805721068881
10
-173.99999906122699
20
-280.96583595917639
10
-163.99999938905233
20
-280.96583595917639
10
-163.99999938905233
20
-277.96583595917645
10
-173.99999906122699
20
-277.96583595917639
10
-173.99999906122699
20
-271.96583595917639
10
-176.99999906122696
20
-271.96583595917639
0
LWPOLYLINE
5
108
100
AcDbEntity
8
0
100
AcDbPolyline
90
8
70
1
43
0.0
10
-132.60721270496896
20
-202.29865553337604
10
-132.60721270496902
20
-224.37467459892787
10
-129.60721270496896
20
-224.37467459892787
10
-129.60721270496896
20
-214.79865553337604
10
-124.60721270496903
20
-214.79865553337604
10
-124.60721270496903
20
-211.79865553337604
10
-129.60721270496896
20
-211.79865553337606
10
-129.60721270496893
20
-202.29865553337604
0
LWPOLYLINE
5
109
100
AcDbEntity
8
0
100
AcDbPolyline
90
12
70
1
43
0.0
10
-181.99999965727329
20
-233.99999910593024
10
-181.99999965727329
20
-236.9999991506339
10
-175.99999906122704
20
-236.9999991506339
10
-175.99999906122704
20
-245.03540591489184
10
-172.99999906122682
20
-245.03540591489184
10
-172.99999906122696
20
-236.9999991506339
10
-167.99999944865698
20
-236.9999991506339
10
-167.99999944865698
20
-233.99999910593024
10
-172.99999906122696
20
-233.99999910593024
10
-172.99999906122693
20
-215.41320616471805
10
-175.99999906122687
20
-215.41320616471805
10
-175.99999906122704
20
-233.99999910593024
0
LWPOLYLINE
5
110
100
AcDbEntity
8
0
100
AcDbPolyline
90
8
70
1
43
0.0
10
-95.607212704968958
20
-211.79865553337592
10
-102.60721270496903
20
-211.79865553337592
10
-102.60721270496903
20
-214.79865553337604
10
-95.607212704968958
20
-214.79865553337589
10
-95.607212704968958
20
-215.92230936411386
10
-92.607212704968944
20
-215.92230936411386
10
-92.607212704968944
20
-210.7510207681899
10
-95.607212704968958
20
-210.7510207681899
0
LWPOLYLINE
5
111
100
AcDbEntity
8
0
100
AcDbPolyline
90
12
70
1
43
0.0
10
-171.99999906122684
20
-202.40213024788233
10
-171.99999906122684
20
-199.70875771957267
10
-166.99999943375585
20
-199.70875771957267
10
-166.99999943375585
20
-196.7087577195727
10
-171.99999906122684
20
-196.7087577195727
10
-171.99999906122684
20
-193.90608623825216
10
-174.99999906122682
20
-193.90608623825216
10
-174.99999906122682
20
-196.7087577195727
10
-180.99999964237213
20
-196.7087577195727
10
-180.99999964237213
20
-199.70875771957267
10
-174.99999906122682
20
-199.70875771957267
10
-174.99999906122682
20
-202.40213024788233
0
LWPOLYLINE
5
112
100
AcDbEntity
8
0
100
AcDbPolyline
90
12
70
1
43
0.0
10
-155.99999906122696
20
-233.99999910593024
10
-155.9999990612269
20
-215.41320616471805
10
-158.99999906122687
20
-215.41320616471805
10
-158.99999906122699
20
-233.99999910593024
10
-163.99999938905233
20
-233.99999910593024
10
-163.99999938905233
20
-236.9999991506339
10
-158.99999906122699
20
-236.9999991506339
10
-158.99999906122699
20
-245.03540591489184
10
-155.99999906122687
20
-245.03540591489184
10
-155.99999906122696
20
-236.9999991506339
10
-149.99999918043613
20
-236.9999991506339
10
-149.99999918043613
20
-233.99999910593024
0
LWPOLYLINE
5
113
100
AcDbEntity
8
0
100
AcDbPolyline
90
4
70
1
43
0.0
10
-184.99999970197672
20
-233.99999910593024
10
-190.99999906122719
20
-233.99999910593024
10
-190.99999906122719
20
-236.99999910593024
10
-184.99999970197672
20
-236.9999991506339
0
LWPOLYLINE
5
114
100
AcDbEntity
8
0
100
AcDbPolyline
90
4
70
1
43
0.0
10
-140.99999906122696
20
-233.99999910593024
10
-146.99999913573262
20
-233.99999910593024
10
-146.99999913573262
20
-236.9999991506339
10
-140.99999906122696
20
-236.9999991506339
0
ARC
5
115
100
AcDbEntity
8
0
100
AcDbCircle
10
-147.99999906122682
20
-274.25126180910479
30
0
40
20
210
-0
220
0
230
1
100
AcDbArc
50
-90
51
0
0
LINE
5
116
100
AcDbEntity
8
0
100
AcDbLine
10
-127.99999906122682
20
-274.25126180910479
30
0
11
-127.99999906122682
21
-230.99999915063395
31
0
0
LINE
5
117
100
AcDbEntity
8
0
100
AcDbLine
10
-127.99999906122682
20
-230.99999915063395
30
0
11
-104.67766859089053
21
-230.99999915063395
31
0
0
SPLINE
5
118
100
AcDbEntity
8
0
100
AcDbSpline
70
0
71
3
72
16
73
12
74
0
42
0.000000001
43
0.0000000001
44
0.0000000001
40
0
40
0
40
0
40
0
40
0.6882900326676985
40
0.6882900326676985
40
1.3767338175124373
40
1.3767338175124373
40
2.0657950617161318
40
2.0657950617161318
40
2.424883783000455
40
2.424883783000455
40
2.7838643067892344
40
2.7838643067892344
40
2.7838643067892344
40
2.7838643067892344
10
-104.67766859089053
20
-230.99999915063395
30
0
10
-102.3833684819982
20
-230.99999915063395
30
0
10
-100.11085829015725
20
-230.5533498074472
30
0
10
-95.863111114389568
20
-228.81651373749267
30
0
10
-93.92830130859943
20
-227.54264143097089
30
0
10
-90.652308139845871
20
-224.3252783055064
30
0
10
-89.342842076638078
20
-222.41181317692883
30
0
10
-87.963466188898266
20
-219.20179873497193
30
0
10
-87.603815879471512
20
-218.05691224101534
30
0
10
-87.121496049506675
20
-215.71244707323089
30
0
10
-86.999999061226788
20
-214.51893136693275
30
0
10
-86.999999061226788
20
-213.32232962097009
30
0
0
LINE
5
119
100
AcDbEntity
8
0
100
AcDbLine
10
-86.999999061226788
20
-213.32232962097009
30
0
11
-86.999999061226788
21
-212.9099017273312
31
0
0
SPLINE
5
120
100
AcDbEntity
8
0
100
AcDbSpline
70
0
71
3
72
16
73
12
74
0
42
0.000000001
43
0.0000000001
44
0.0000000001
40
0
40
0
40
0
40
0
40
0.6194610294003442
40
0.6194610294003442
40
1.2390604357606061
40
1.2390604357606061
40
1.8592155555439041
40
1.8592155555439041
40
2.1823954047000722
40
2.1823954047000722
40
2.5054778761102368
40
2.5054778761102368
40
2.5054778761102368
40
2.5054778761102368
10
-86.999999061226788
20
-212.9099017273312
30
0
10
-86.999999061226788
20
-210.84503162933004
30
0
10
-87.401983470094166
20
-208.79977245667445
30
0
10
-88.9651359330513
20
-204.97679999848489
30
0
10
-90.111621008920309
20
-203.23547117327331
30
0
10
-93.007247821837439
20
-200.28707732139424
30
0
10
-94.729366437556735
20
-199.10855786450682
30
0
10
-97.618379435318317
20
-197.86711956553958
30
0
10
-98.648777279879951
20
-197.54343428705496
30
0
10
-100.75879593088764
20
-197.10934644008589
30
0
10
-101.83296006655695
20
-196.9999991506339
30
0
10
-102.90990163792415
20
-196.9999991506339
30
0
0
LINE
5
121
100
AcDbEntity
8
0
100
AcDbLine
10
-102.90990163792415
20
-196.99999915063393
30
0
11
-120.99999906122679
21
-196.9999991506339
31
0
0
LINE
5
122
100
AcDbEntity
8
0
100
AcDbLine
10
-120.99999906122679
20
-196.9999991506339
30
0
11
-120.99999906122679
21
-155.60660086843211
31
0
0
SPLINE
5
123
100
AcDbEntity
8
0
100
AcDbSpline
70
0
71
3
72
16
73
12
74
0
42
0.000000001
43
0.0000000001
44
0.0000000001
40
0
40
0
40
0
40
0
40
0.412974019601686
40
0.412974019601686
40
0.8260402905086266
40
0.8260402905086266
40
1.2394770370307515
40
1.2394770370307515
40
1.4549302698008686
40
1.4549302698008686
40
1.6703185840736705
40
1.6703185840736705
40
1.6703185840736705
40
1.6703185840736705
10
-120.99999906122679
20
-155.60660086843211
30
0
10
-120.99999906122679
20
-154.23002080309314
30
0
10
-121.26798866713986
20
-152.86651468798638
30
0
10
-122.31009030911622
20
-150.31786638252311
30
0
10
-123.07441369303052
20
-149.1569804990495
30
0
10
-125.00483156831122
20
-147.19138459779919
30
0
10
-126.15291064545823
20
-146.40570495987572
30
0
10
-128.07891931063142
20
-145.57807942723426
30
0
10
-128.765851207004
20
-145.36228924157913
30
0
10
-130.17253030767168
20
-145.07289734360143
30
0
10
-130.88863973144902
20
-144.99999915063387
30
0
10
-131.60660077902503
20
-144.99999915063387
30
0
0
LINE
5
124
100
AcDbEntity
8
0
100
AcDbLine
10
-131.60660077902503
20
-144.99999915063387
30
0
11
-179.39339734342863
21
-144.99999915063387
31
0
0
SPLINE
5
125
100
AcDbEntity
8
0
100
AcDbSpline
70
0
71
3
72
16
73
12
74
0
42
0.000000001
43
0.0000000001
44
0.0000000001
40
-1.6703159712280802
40
-1.6703159712280802
40
-1.6703159712280802
40
-1.6703159712280802
40
-1.4547300807149499
40
-1.4547300807149499
40
-1.2390892736638837
40
-1.2390892736638837
40
-0.8261602164796219
40
-0.8261602164796219
40
-0.41300179821688482
40
-0.41300179821688482
40
0
40
0
40
0
40
0
10
-179.39339734342863
20
-144.99999915063387
30
0
10
-180.11201697847241
20
-144.99999915063387
30
0
10
-180.82877988734487
20
-145.07303114433137
30
0
10
-182.23666264681569
20
-145.36294333208545
30
0
10
-182.92413646198975
20
-145.57911072462954
30
0
10
-184.84886502508743
20
-146.40701215784242
30
0
10
-185.99540977494885
20
-147.19185239187703
30
0
10
-187.9250771507634
20
-149.1562439029079
30
0
10
-188.6896543264817
20
-150.31734086134173
30
0
10
-189.73197340156588
20
-152.86633213984143
30
0
10
-189.99999906122682
20
-154.22992820770918
30
0
10
-189.99999906122682
20
-155.60660086843211
30
0
0
LINE
5
126
100
AcDbEntity
8
0
100
AcDbLine
10
-189.99999906122679
20
-155.60660086843214
30
0
11
-189.99999906122682
21
-183.9999991506339
31
0
0
LINE
5
127
100
AcDbEntity
8
0
100
AcDbLine
10
-189.99999906122682
20
-183.9999991506339
30
0
11
-190.85786343749589
21
-183.9999991506339
31
0
0
SPLINE
5
128
100
AcDbEntity
8
0
100
AcDbSpline
70
0
71
3
72
16
73
12
74
0
42
0.000000001
43
0.0000000001
44
0.0000000001
40
-2.2270879616375958
40
-2.2270879616375958
40
-2.2270879616375958
40
-2.2270879616375958
40
-1.9396401076201613
40
-1.9396401076201613
40
-1.6521190315521987
40
-1.6521190315521987
40
-1.1015469553062984
40
-1.1015469553062984
40
-0.55066906428928619
40
-0.55066906428928619
40
0
40
0
40
0
40
0
10
-190.85786343749589
20
-183.9999991506339
30
0
10
-191.81602295088732
20
-183.9999991506339
30
0
10
-192.77170682938319
20
-184.09737514223042
30
0
10
-194.64888384201046
20
-184.48392472590226
30
0
10
-195.56551559557519
20
-184.77214791596066
30
0
10
-198.13182034637268
20
-185.87601649357742
30
0
10
-199.66054667952162
20
-186.92247013895684
30
0
10
-202.23343651394163
20
-189.54165882033178
30
0
10
-203.25287274823296
20
-191.08978809824336
30
0
10
-204.64263151501217
20
-194.48844313624332
30
0
10
-204.99999906122684
20
-196.30657122673387
30
0
10
-204.99999906122684
20
-198.14213477436482
30
0
0
LINE
5
129
100
AcDbEntity
8
0
100
AcDbLine
10
-204.99999906122682
20
-198.14213477436485
30
0
11
-204.99999906122684
21
-229.39339743283568
31
0
0
SPLINE
5
130
100
AcDbEntity
8
0
100
AcDbSpline
70
0
71
3
72
16
73
12
74
0
42
0.000000001
43
0.0000000001
44
0.0000000001
40
-1.670315971228117
40
-1.670315971228117
40
-1.670315971228117
40
-1.670315971228117
40
-1.4547300807148611
40
-1.4547300807148611
40
-1.2390892736637211
40
-1.2390892736637211
40
-0.8261602164794456
40
-0.8261602164794456
40
-0.41300179821663424
40
-0.41300179821663424
40
0
40
0
40
0
40
0
10
-204.99999906122684
20
-229.39339743283568
30
0
10
-204.99999906122684
20
-230.11201706787986
30
0
10
-204.92696706752929
20
-230.82877997675229
30
0
10
-204.63705487977489
20
-232.23666273622376
30
0
10
-204.42088748723083
20
-232.92413655139802
30
0
10
-203.59298605401762
20
-234.84886511449588
30
0
10
-202.80814581998283
20
-235.99540986435721
30
0
10
-200.84375430895133
20
-237.92507724017159
30
0
10
-199.68265735051719
20
-238.68965441588989
30
0
10
-197.13366607201789
20
-239.73197349097325
30
0
10
-195.77007000415068
20
-239.99999915063398
30
0
10
-194.39339734342863
20
-239.99999915063398
30
0
0
LINE
5
131
100
AcDbEntity
8
0
100
AcDbLine
10
-194.3933973434286
20
-239.99999915063395
30
0
11
-193.99999906122687
21
-239.99999915063398
31
0
0
LINE
5
132
100
AcDbEntity
8
0
100
AcDbLine
10
-193.99999906122687
20
-239.99999915063398
30
0
11
-193.99999906122684
21
-274.25126180910479
31
0
0
ARC
5
133
100
AcDbEntity
8
0
100
AcDbCircle
10
-173.99999906122684
20
-274.25126180910479
30
0
40
20
210
0
220
0
230
1
100
AcDbArc
50
180
51
270
0
LINE
5
134
100
AcDbEntity
8
0
100
AcDbLine
10
-173.99999906122684
20
-294.25126180910479
30
0
11
-147.99999906122682
21
-294.25126180910479
31
0
0
LWPOLYLINE
5
135
100
AcDbEntity
8
0
100
AcDbPolyline
90
4
70
1
43
0.0
10
-146.99999913573262
20
-233.99999910593024
10
-146.99999913573262
20
-236.9999991506339
10
-140.99999906122696
20
-236.9999991506339
10
-140.99999906122696
20
-233.99999910593024
0
LWPOLYLINE
5
136
100
AcDbEntity
8
0
100
AcDbPolyline
90
4
70
1
43
0.0
10
-190.99999906122719
20
-233.99999910593024
10
-190.99999906122719
20
-236.99999910593024
10
-184.99999970197672
20
-236.9999991506339
10
-184.99999970197672
20
-233.99999910593024
0
LWPOLYLINE
5
137
100
AcDbEntity
8
0
100
AcDbPolyline
90
12
70
1
43
0.0
10
-155.9999990612269
20
-215.41320616471805
10
-158.99999906122687
20
-215.41320616471805
10
-158.99999906122699
20
-233.99999910593024
10
-163.99999938905233
20
-233.99999910593024
10
-163.99999938905233
20
-236.9999991506339
10
-158.99999906122699
20
-236.9999991506339
10
-158.99999906122699
20
-245.03540591489184
10
-155.99999906122687
20
-245.03540591489184
10
-155.99999906122696
20
-236.9999991506339
10
-149.99999918043613
20
-236.9999991506339
10
-149.99999918043613
20
-233.99999910593024
10
-155.99999906122696
20
-233.99999910593024
0
LWPOLYLINE
5
138
100
AcDbEntity
8
0
100
AcDbPolyline
90
12
70
1
43
0.0
10
-171.99999906122684
20
-199.70875771957267
10
-166.99999943375585
20
-199.70875771957267
10
-166.99999943375585
20
-196.7087577195727
10
-171.99999906122684
20
-196.7087577195727
10
-171.99999906122684
20
-193.90608623825216
10
-174.99999906122682
20
-193.90608623825216
10
-174.99999906122682
20
-196.7087577195727
10
-180.99999964237213
20
-196.7087577195727
10
-180.99999964237213
20
-199.70875771957267
10
-174.99999906122682
20
-199.70875771957267
10
-174.99999906122682
20
-202.40213024788233
10
-171.99999906122684
20
-202.40213024788233
0
LWPOLYLINE
5
139
100
AcDbEntity
8
0
100
AcDbPolyline
90
8
70
1
43
0.0
10
-102.60721270496903
20
-211.79865553337592
10
-102.60721270496903
20
-214.79865553337604
10
-95.607212704968958
20
-214.79865553337589
10
-95.607212704968958
20
-215.92230936411386
10
-92.607212704968944
20
-215.92230936411386
10
-92.607212704968944
20
-210.7510207681899
10
-95.607212704968958
20
-210.7510207681899
10
-95.607212704968958
20
-211.79865553337592
0
LWPOLYLINE
5
140
100
AcDbEntity
8
0
100
AcDbPolyline
90
12
70
1
43
0.0
10
-181.99999965727329
20
-236.9999991506339
10
-175.99999906122704
20
-236.9999991506339
10
-175.99999906122704
20
-245.03540591489184
10
-172.99999906122682
20
-245.03540591489184
10
-172.99999906122696
20
-236.9999991506339
10
-167.99999944865698
20
-236.9999991506339
10
-167.99999944865698
20
-233.99999910593024
10
-172.99999906122696
20
-233.99999910593024
10
-172.99999906122693
20
-215.41320616471805
10
-175.99999906122687
20
-215.41320616471805
10
-175.99999906122704
20
-233.99999910593024
10
-181.99999965727329
20
-233.99999910593024
0
LWPOLYLINE
5
141
100
AcDbEntity
8
0
100
AcDbPolyline
90
8
70
1
43
0.0
10
-132.60721270496902
20
-224.37467459892787
10
-129.60721270496896
20
-224.37467459892787
10
-129.60721270496896
20
-214.79865553337604
10
-124.60721270496903
20
-214.79865553337604
10
-124.60721270496903
20
-211.79865553337604
10
-129.60721270496896
20
-211.79865553337606
10
-129.60721270496893
20
-202.29865553337604
10
-132.60721270496896
20
-202.29865553337604
0
LWPOLYLINE
5
142
100
AcDbEntity
8
0
100
AcDbPolyline
90
12
70
1
43
0.0
10
-188.99999906122699
20
-277.96583595917645
10
-188.99999906122699
20
-280.96583595917639
10
-176.99999906122696
20
-280.96583595917639
10
-176.99999906122696
20
-287.46805721068887
10
-173.99999906122699
20
-287.46805721068881
10
-173.99999906122699
20
-280.96583595917639
10
-163.99999938905233
20
-280.96583595917639
10
-163.99999938905233
20
-277.96583595917645
10
-173.99999906122699
20
-277.96583595917639
10
-173.99999906122699
20
-271.96583595917639
10
-176.99999906122696
20
-271.96583595917639
10
-176.99999906122696
20
-277.96583595917639
0
LWPOLYLINE
5
143
100
AcDbEntity
8
0
100
AcDbPolyline
90
4
70
1
43
0.0
10
-170.99999906122687
20
-150.61082402185212
10
-170.99999906122687
20
-161.07841771714536
10
-167.99999906122682
20
-161.07841771714536
10
-167.99999906122682
20
-150.6108240218521
0
LWPOLYLINE
5
144
100
AcDbEntity
8
0
100
AcDbPolyline
90
12
70
1
43
0.0
10
-154.99999906122682
20
-202.40213024788233
10
-154.99999906122682
20
-199.70875771957267
10
-148.99999916553492
20
-199.70875771957267
10
-148.99999916553492
20
-196.7087577195727
10
-154.99999906122682
20
-196.7087577195727
10
-154.99999906122682
20
-193.90608623825216
10
-157.99999906122682
20
-193.90608623825216
10
-157.99999906122682
20
-196.7087577195727
10
-162.99999937415117
20
-196.7087577195727
10
-162.99999937415117
20
-199.70875771957267
10
-157.99999906122682
20
-199.70875771957267
10
-157.99999906122682
20
-202.40213024788233
0
LWPOLYLINE
5
145
100
AcDbEntity
8
0
100
AcDbPolyline
90
4
70
1
43
0.0
10
-183.99999968707561
20
-196.7087577195727
10
-189.99999906122684
20
-196.7087577195727
10
-189.99999906122684
20
-199.70875771957267
10
-183.99999968707561
20
-199.70875771957267
0
LWPOLYLINE
5
146
100
AcDbEntity
8
0
100
AcDbPolyline
90
12
70
1
43
0.0
10
-146.99999906122696
20
-280.96583595917639
10
-134.99999906122699
20
-280.96583595917639
10
-134.99999906122699
20
-277.96583595917645
10
-146.99999906122696
20
-277.96583595917639
10
-146.99999906122696
20
-271.96583595917639
10
-149.9999990612269
20
-271.96583595917639
10
-149.9999990612269
20
-277.96583595917639
10
-159.99999938905231
20
-277.96583595917639
10
-159.99999938905231
20
-280.96583595917639
10
-149.9999990612269
20
-280.96583595917639
10
-149.9999990612269
20
-287.46805721068887
10
-146.99999906122696
20
-287.46805721068881
0
LWPOLYLINE
5
147
100
AcDbEntity
8
0
100
AcDbPolyline
90
12
70
1
43
0.0
10
-112.60721270496894
20
-202.29865553337589
10
-115.60721270496896
20
-202.29865553337589
10
-115.60721270496896
20
-211.79865553337604
10
-120.60721270496902
20
-211.79865553337604
10
-120.60721270496902
20
-214.79865553337604
10
-115.60721270496896
20
-214.79865553337589
10
-115.60721270496896
20
-224.37467459892787
10
-112.60721270496903
20
-224.37467459892787
10
-112.60721270496894
20
-214.79865553337589
10
-105.60721270496904
20
-214.79865553337589
10
-105.60721270496904
20
-211.79865553337592
10
-112.60721270496894
20
-211.79865553337604
0
LWPOLYLINE
5
148
100
AcDbEntity
8
0
100
AcDbPolyline
90
4
70
1
43
0.0
10
-141.99999906122682
20
-161.07841771714536
10
-138.99999906122684
20
-161.07841771714536
10
-138.99999906122684
20
-150.6108240218521
10
-141.99999906122682
20
-150.6108240218521
0
LWPOLYLINE
5
149
100
AcDbEntity
8
0
100
AcDbPolyline
90
4
70
1
43
0.0
10
-145.99999912083146
20
-199.70875771957267
10
-139.99999906122684
20
-199.70875771957267
10
-139.99999906122684
20
-196.7087577195727
10
-145.99999912083146
20
-196.7087577195727
0
LINE
5
150
100
AcDbEntity
8
0
100
AcDbLine
10
-147.99999906122682
20
-294.25126180910479
30
0
11
-173.99999906122684
21
-294.25126180910479
31
0
0
ARC
5
151
100
AcDbEntity
8
0
100
AcDbCircle
10
-173.99999906122684
20
-274.25126180910479
30
0
40
20
210
0
220
0
230
1
100
AcDbArc
50
180
51
270
0
LINE
5
152
100
AcDbEntity
8
0
100
AcDbLine
10
-193.99999906122684
20
-274.25126180910479
30
0
11
-193.99999906122687
21
-239.99999915063398
31
0
0
LINE
5
153
100
AcDbEntity
8
0
100
AcDbLine
10
-193.99999906122687
20
-239.99999915063398
30
0
11
-194.39339734342863
21
-239.99999915063398
31
0
0
SPLINE
5
154
100
AcDbEntity
8
0
100
AcDbSpline
70
0
71
3
72
16
73
12
74
0
42
0.000000001
43
0.0000000001
44
0.0000000001
40
0
40
0
40
0
40
0
40
0.41300179821663424
40
0.41300179821663424
40
0.8261602164794456
40
0.8261602164794456
40
1.2390892736637211
40
1.2390892736637211
40
1.4547300807148611
40
1.4547300807148611
40
1.670315971228117
40
1.670315971228117
40
1.670315971228117
40
1.670315971228117
10
-194.39339734342863
20
-239.99999915063398
30
0
10
-195.77007000415068
20
-239.99999915063398
30
0
10
-197.13366607201789
20
-239.73197349097325
30
0
10
-199.68265735051719
20
-238.68965441588989
30
0
10
-200.84375430895133
20
-237.92507724017159
30
0
10
-202.80814581998283
20
-235.99540986435721
30
0
10
-203.59298605401762
20
-234.84886511449588
30
0
10
-204.42088748723083
20
-232.92413655139802
30
0
10
-204.63705487977489
20
-232.23666273622376
30
0
10
-204.92696706752929
20
-230.82877997675229
30
0
10
-204.99999906122684
20
-230.11201706787986
30
0
10
-204.99999906122684
20
-229.39339743283568
30
0
0
LINE
5
155
100
AcDbEntity
8
0
100
AcDbLine
10
-204.99999906122682
20
-229.39339743283568
30
0
11
-204.99999906122684
21
-198.14213477436482
31
0
0
SPLINE
5
156
100
AcDbEntity
8
0
100
AcDbSpline
70
0
71
3
72
16
73
12
74
0
42
0.000000001
43
0.0000000001
44
0.0000000001
40
0
40
0
40
0
40
0
40
0.55066906428928619
40
0.55066906428928619
40
1.1015469553062984
40
1.1015469553062984
40
1.6521190315521987
40
1.6521190315521987
40
1.9396401076201613
40
1.9396401076201613
40
2.2270879616375958
40
2.2270879616375958
40
2.2270879616375958
40
2.2270879616375958
10
-204.99999906122684
20
-198.14213477436482
30
0
10
-204.99999906122684
20
-196.30657122673387
30
0
10
-204.64263151501217
20
-194.48844313624332
30
0
10
-203.25287274823296
20
-191.08978809824336
30
0
10
-202.23343651394163
20
-189.54165882033178
30
0
10
-199.66054667952162
20
-186.92247013895684
30
0
10
-198.13182034637268
20
-185.87601649357742
30
0
10
-195.56551559557519
20
-184.77214791596066
30
0
10
-194.64888384201046
20
-184.48392472590226
30
0
10
-192.77170682938319
20
-184.09737514223042
30
0
10
-191.81602295088732
20
-183.9999991506339
30
0
10
-190.85786343749589
20
-183.9999991506339
30
0
0
LINE
5
157
100
AcDbEntity
8
0
100
AcDbLine
10
-190.85786343749589
20
-183.99999915063393
30
0
11
-189.99999906122682
21
-183.9999991506339
31
0
0
LINE
5
158
100
AcDbEntity
8
0
100
AcDbLine
10
-189.99999906122682
20
-183.9999991506339
30
0
11
-189.99999906122682
21
-155.60660086843211
31
0
0
SPLINE
5
159
100
AcDbEntity
8
0
100
AcDbSpline
70
0
71
3
72
16
73
12
74
0
42
0.000000001
43
0.0000000001
44
0.0000000001
40
0
40
0
40
0
40
0
40
0.41300179821688482
40
0.41300179821688482
40
0.8261602164796219
40
0.8261602164796219
40
1.2390892736638837
40
1.2390892736638837
40
1.4547300807149499
40
1.4547300807149499
40
1.6703159712280802
40
1.6703159712280802
40
1.6703159712280802
40
1.6703159712280802
10
-189.99999906122682
20
-155.60660086843211
30
0
10
-189.99999906122682
20
-154.22992820770918
30
0
10
-189.73197340156588
20
-152.86633213984143
30
0
10
-188.6896543264817
20
-150.31734086134173
30
0
10
-187.9250771507634
20
-149.1562439029079
30
0
10
-185.99540977494885
20
-147.19185239187703
30
0
10
-184.84886502508743
20
-146.40701215784242
30
0
10
-182.92413646198975
20
-145.57911072462954
30
0
10
-182.23666264681569
20
-145.36294333208545
30
0
10
-180.82877988734487
20
-145.07303114433137
30
0
10
-180.11201697847241
20
-144.99999915063387
30
0
10
-179.39339734342863
20
-144.99999915063387
30
0
0
LINE
5
160
100
AcDbEntity
8
0
100
AcDbLine
10
-131.60660077902503
20
-144.99999915063387
30
0
11
-179.39339734342863
21
-144.99999915063387
31
0
0
SPLINE
5
161
100
AcDbEntity
8
0
100
AcDbSpline
70
0
71
3
72
16
73
12
74
0
42
0.000000001
43
0.0000000001
44
0.0000000001
40
0
40
0
40
0
40
0
40
0.412974019601686
40
0.412974019601686
40
0.8260402905086266
40
0.8260402905086266
40
1.2394770370307515
40
1.2394770370307515
40
1.4549302698008686
40
1.4549302698008686
40
1.6703185840736705
40
1.6703185840736705
40
1.6703185840736705
40
1.6703185840736705
10
-120.99999906122679
20
-155.60660086843211
30
0
10
-120.99999906122679
20
-154.23002080309314
30
0
10
-121.26798866713986
20
-152.86651468798638
30
0
10
-122.31009030911622
20
-150.31786638252311
30
0
10
-123.07441369303052
20
-149.1569804990495
30
0
10
-125.00483156831122
20
-147.19138459779919
30
0
10
-126.15291064545823
20
-146.40570495987572
30
0
10
-128.07891931063142
20
-145.57807942723426
30
0
10
-128.765851207004
20
-145.36228924157913
30
0
10
-130.17253030767168
20
-145.07289734360143
30
0
10
-130.88863973144902
20
-144.99999915063387
30
0
10
-131.60660077902503
20
-144.99999915063387
30
0
0
LINE
5
162
100
AcDbEntity
8
0
100
AcDbLine
10
-120.99999906122679
20
-196.9999991506339
30
0
11
-120.99999906122679
21
-155.60660086843211
31
0
0
LINE
5
163
100
AcDbEntity
8
0
100
AcDbLine
10
-102.90990163792415
20
-196.9999991506339
30
0
11
-120.99999906122679
21
-196.9999991506339
31
0
0
SPLINE
5
164
100
AcDbEntity
8
0
100
AcDbSpline
70
0
71
3
72
16
73
12
74
0
42
0.000000001
43
0.0000000001
44
0.0000000001
40
0
40
0
40
0
40
0
40
0.6194610294003442
40
0.6194610294003442
40
1.2390604357606061
40
1.2390604357606061
40
1.8592155555439041
40
1.8592155555439041
40
2.1823954047000722
40
2.1823954047000722
40
2.5054778761102368
40
2.5054778761102368
40
2.5054778761102368
40
2.5054778761102368
10
-86.999999061226788
20
-212.9099017273312
30
0
10
-86.999999061226788
20
-210.84503162933004
30
0
10
-87.401983470094166
20
-208.79977245667445
30
0
10
-88.9651359330513
20
-204.97679999848489
30
0
10
-90.111621008920309
20
-203.23547117327331
30
0
10
-93.007247821837439
20
-200.28707732139424
30
0
10
-94.729366437556735
20
-199.10855786450682
30
0
10
-97.618379435318317
20
-197.86711956553958
30
0
10
-98.648777279879951
20
-197.54343428705496
30
0
10
-100.75879593088764
20
-197.10934644008589
30
0
10
-101.83296006655695
20
-196.9999991506339
30
0
10
-102.90990163792415
20
-196.9999991506339
30
0
0
LINE
5
165
100
AcDbEntity
8
0
100
AcDbLine
10
-86.999999061226788
20
-213.32232962097009
30
0
11
-86.999999061226788
21
-212.9099017273312
31
0
0
SPLINE
5
166
100
AcDbEntity
8
0
100
AcDbSpline
70
0
71
3
72
16
73
12
74
0
42
0.000000001
43
0.0000000001
44
0.0000000001
40
0
40
0
40
0
40
0
40
0.6882900326676985
40
0.6882900326676985
40
1.3767338175124373
40
1.3767338175124373
40
2.0657950617161318
40
2.0657950617161318
40
2.424883783000455
40
2.424883783000455
40
2.7838643067892344
40
2.7838643067892344
40
2.7838643067892344
40
2.7838643067892344
10
-104.67766859089053
20
-230.99999915063395
30
0
10
-102.3833684819982
20
-230.99999915063395
30
0
10
-100.11085829015725
20
-230.5533498074472
30
0
10
-95.863111114389568
20
-228.81651373749267
30
0
10
-93.92830130859943
20
-227.54264143097089
30
0
10
-90.652308139845871
20
-224.3252783055064
30
0
10
-89.342842076638078
20
-222.41181317692883
30
0
10
-87.963466188898266
20
-219.20179873497193
30
0
10
-87.603815879471512
20
-218.05691224101534
30
0
10
-87.121496049506675
20
-215.71244707323089
30
0
10
-86.999999061226788
20
-214.51893136693275
30
0
10
-86.999999061226788
20
-213.32232962097009
30
0
0
LINE
5
167
100
AcDbEntity
8
0
100
AcDbLine
10
-127.99999906122682
20
-230.99999915063395
30
0
11
-104.67766859089053
21
-230.99999915063395
31
0
0
LINE
5
168
100
AcDbEntity
8
0
100
AcDbLine
10
-127.99999906122682
20
-274.25126180910479
30
0
11
-127.99999906122682
21
-230.99999915063395
31
0
0
ARC
5
169
100
AcDbEntity
8
0
100
AcDbCircle
10
-147.99999906122682
20
-274.25126180910479
30
0
40
20
210
-0
220
0
230
1
100
AcDbArc
50
-90
51
0
0
LWPOLYLINE
5
170
100
AcDbEntity
8
0
100
AcDbPolyline
90
4
70
1
43
0.0
10
-187.99999906122682
20
-121.99999915063387
10
-201.99999906122687
20
-121.99999915063387
10
-201.99999906122687
20
-135.99999915063378
10
-187.99999906122682
20
-135.99999915063387
0
LWPOLYLINE
5
171
100
AcDbEntity
8
0
100
AcDbPolyline
90
4
70
1
43
0.0
10
-187.99999906122682
20
-115.99999915063387
10
-187.99999906122682
20
-101.99999915063387
10
-201.99999906122687
20
-101.99999915063387
10
-201.99999906122687
20
-115.99999915063387
0
LWPOLYLINE
5
172
100
AcDbEntity
8
0
100
AcDbPolyline
90
8
70
1
43
0.0
10
-184.99999906122684
20
-98.999999150633883
10
-204.9999990612269
20
-98.999999150633883
10
-204.9999990612269
20
-138.99999915063378
10
-201.9999990612269
20
-138.99999915063387
10
-201.9999990612269
20
-141.99999915063387
10
-187.99999906122684
20
-141.9999991506339
10
-187.99999906122684
20
-138.99999915063393
10
-184.99999906122684
20
-138.99999915063393
0
LWPOLYLINE
5
173
100
AcDbEntity
8
0
100
AcDbPolyline
90
4
70
1
43
0.0
10
-187.99999906122682
20
-72.999999150633855
10
-187.99999906122682
20
-58.999999150633869
10
-201.99999906122687
20
-58.999999150633869
10
-201.99999906122687
20
-72.999999150633855
0
LWPOLYLINE
5
174
100
AcDbEntity
8
0
100
AcDbPolyline
90
4
70
1
43
0.0
10
-187.99999906122682
20
-92.999999150633883
10
-187.99999906122682
20
-78.999999150633911
10
-201.99999906122687
20
-78.999999150633897
10
-201.99999906122687
20
-92.999999150633883
0
LWPOLYLINE
5
175
100
AcDbEntity
8
0
100
AcDbPolyline
90
8
70
1
43
0.0
10
-184.99999906122684
20
-55.999999150633869
10
-187.99999906122682
20
-55.999999150633869
10
-187.99999906122682
20
-52.99999915063389
10
-201.99999906122687
20
-52.99999915063389
10
-201.99999906122687
20
-55.999999150633869
10
-204.9999990612269
20
-55.999999150633883
10
-204.9999990612269
20
-95.999999150633897
10
-184.99999906122684
20
-95.999999150633897
0
LWPOLYLINE
5
176
100
AcDbEntity
8
0
100
AcDbPolyline
90
4
70
1
43
0.0
10
-201.99999906122687
20
-29.99999915063389
10
-201.9999990612269
20
-43.999999150633862
10
-187.99999906122682
20
-43.999999150633862
10
-187.99999906122682
20
-29.99999915063389
0
LWPOLYLINE
5
177
100
AcDbEntity
8
0
100
AcDbPolyline
90
12
70
1
43
0.0
10
-184.99999906122684
20
-46.999999150633904
10
-187.99999906122682
20
-46.999999150633904
10
-187.99999906122682
20
-49.999999150633883
10
-201.9999990612269
20
-49.999999150633883
10
-201.9999990612269
20
-46.999999150633869
10
-204.9999990612269
20
-46.999999150633869
10
-204.9999990612269
20
-26.999999150633876
10
-201.9999990612269
20
-26.999999150633876
10
-201.99999906122687
20
-23.999999150633876
10
-187.99999906122682
20
-23.999999150633876
10
-187.99999906122682
20
-26.999999150633876
10
-184.99999906122684
20
-26.999999150633876
0
LWPOLYLINE
5
178
100
AcDbEntity
8
0
100
AcDbPolyline
90
4
70
1
43
0.0
10
-178.99999906122696
20
-29.99999915063389
10
-178.99999906122687
20
-43.999999150633862
10
-164.9999990612269
20
-43.999999150633862
10
-164.99999906122696
20
-29.99999915063389
0
LWPOLYLINE
5
179
100
AcDbEntity
8
0
100
AcDbPolyline
90
12
70
1
43
0.0
10
-161.9999990612269
20
-46.999999150633869
10
-161.9999990612269
20
-26.999999150633876
10
-164.99999906122693
20
-26.999999150633876
10
-164.99999906122693
20
-23.999999150633876
10
-178.99999906122696
20
-23.999999150633876
10
-178.99999906122696
20
-26.999999150633922
10
-181.99999906122696
20
-26.999999150633922
10
-181.99999906122687
20
-46.999999150633869
10
-178.99999906122687
20
-46.999999150633869
10
-178.99999906122687
20
-49.999999150633883
10
-164.9999990612269
20
-49.999999150633883
10
-164.9999990612269
20
-46.999999150633869
0
LWPOLYLINE
5
180
100
AcDbEntity
8
0
100
AcDbPolyline
90
4
70
1
43
0.0
10
-178.99999906122687
20
-78.999999150633897
10
-178.99999906122687
20
-92.999999150633883
10
-164.9999990612269
20
-92.999999150633883
10
-164.9999990612269
20
-78.999999150633911
0
LWPOLYLINE
5
181
100
AcDbEntity
8
0
100
AcDbPolyline
90
4
70
1
43
0.0
10
-164.9999990612269
20
-72.999999150633897
10
-164.9999990612269
20
-58.999999150633869
10
-178.99999906122687
20
-58.999999150633869
10
-178.99999906122687
20
-72.999999150633897
0
LWPOLYLINE
5
182
100
AcDbEntity
8
0
100
AcDbPolyline
90
8
70
1
43
0.0
10
-164.9999990612269
20
-52.99999915063389
10
-164.9999990612269
20
-55.99999915063389
10
-161.99999906122684
20
-55.99999915063389
10
-161.99999906122684
20
-95.999999150633855
10
-181.99999906122687
20
-95.999999150633897
10
-181.99999906122687
20
-55.99999915063389
10
-178.99999906122687
20
-55.99999915063389
10
-178.99999906122687
20
-52.99999915063389
0
LWPOLYLINE
5
183
100
AcDbEntity
8
0
100
AcDbPolyline
90
4
70
1
43
0.0
10
-164.9999990612269
20
-121.99999915063387
10
-178.99999906122687
20
-121.99999915063387
10
-178.99999906122687
20
-135.99999915063387
10
-164.9999990612269
20
-135.99999915063387
0
LWPOLYLINE
5
184
100
AcDbEntity
8
0
100
AcDbPolyline
90
4
70
1
43
0.0
10
-178.99999906122687
20
-101.99999915063387
10
-178.99999906122687
20
-115.99999915063387
10
-164.9999990612269
20
-115.99999915063385
10
-164.9999990612269
20
-101.99999915063387
0
LWPOLYLINE
5
185
100
AcDbEntity
8
0
100
AcDbPolyline
90
8
70
1
43
0.0
10
-178.99999946355823
20
-141.9999991506339
10
-178.99999946355823
20
-138.99999915063393
10
-181.99999906122687
20
-138.99999915063393
10
-181.99999906122687
20
-98.999999150633883
10
-161.99999906122684
20
-98.999999150633883
10
-161.99999906122684
20
-138.9999991506339
10
-164.9999990612269
20
-138.9999991506339
10
-164.99999906122682
20
-141.99999915063384
0
LWPOLYLINE
5
186
100
AcDbEntity
8
0
100
AcDbPolyline
90
4
70
1
43
0.0
10
-141.99999906122687
20
-115.99999915063385
10
-141.99999906122687
20
-101.99999915063387
10
-155.99999906122687
20
-101.99999915063387
10
-155.99999906122687
20
-115.99999915063385
0
LWPOLYLINE
5
187
100
AcDbEntity
8
0
100
AcDbPolyline
90
4
70
1
43
0.0
10
-155.99999906122687
20
-135.9999991506339
10
-141.99999906122687
20
-135.9999991506339
10
-141.99999906122687
20
-121.99999915063387
10
-155.99999906122687
20
-121.99999915063387
0
LWPOLYLINE
5
188
100
AcDbEntity
8
0
100
AcDbPolyline
90
8
70
1
43
0.0
10
-155.99999906122687
20
-141.9999991506339
10
-141.99999906122687
20
-141.9999991506339
10
-141.99999906122687
20
-138.9999991506339
10
-138.99999906122687
20
-138.9999991506339
10
-138.99999906122687
20
-98.999999150633883
10
-158.9999990612269
20
-98.999999150633883
10
-158.9999990612269
20
-138.9999991506339
10
-155.99999906122687
20
-138.9999991506339
0
LWPOLYLINE
5
189
100
AcDbEntity
8
0
100
AcDbPolyline
90
4
70
1
43
0.0
10
-155.99999906122687
20
-78.999999150633897
10
-155.99999906122687
20
-92.999999150633883
10
-141.99999906122687
20
-92.999999150633883
10
-141.9999990612269
20
-78.999999150633911
0
LWPOLYLINE
5
190
100
AcDbEntity
8
0
100
AcDbPolyline
90
4
70
1
43
0.0
10
-141.99999906122687
20
-72.999999150633897
10
-141.9999990612269
20
-58.999999150633855
10
-155.99999906122687
20
-58.999999150633869
10
-155.99999906122687
20
-72.999999150633897
0
LWPOLYLINE
5
191
100
AcDbEntity
8
0
100
AcDbPolyline
90
8
70
1
43
0.0
10
-155.9999990612269
20
-52.99999915063389
10
-141.9999990612269
20
-52.999999150633876
10
-141.9999990612269
20
-55.999999150633862
10
-138.99999906122687
20
-55.999999150633862
10
-138.99999906122687
20
-95.999999150633855
10
-158.9999990612269
20
-95.999999150633855
10
-158.9999990612269
20
-55.999999150633869
10
-155.99999906122687
20
-55.999999150633869
0
LWPOLYLINE
5
192
100
AcDbEntity
8
0
100
AcDbPolyline
90
4
70
1
43
0.0
10
-141.9999990612269
20
-43.999999150633855
10
-141.9999990612269
20
-29.999999150633869
10
-155.99999906122687
20
-29.999999150633869
10
-155.9999990612269
20
-43.999999150633862
0
LWPOLYLINE
5
193
100
AcDbEntity
8
0
100
AcDbPolyline
90
12
70
1
43
0.0
10
-155.9999990612269
20
-46.999999150633869
10
-158.9999990612269
20
-46.999999150633869
10
-158.9999990612269
20
-26.999999150633876
10
-155.99999906122687
20
-26.999999150633862
10
-155.99999906122687
20
-23.999999150633855
10
-141.9999990612269
20
-23.999999150633855
10
-141.9999990612269
20
-26.999999150633862
10
-138.99999906122687
20
-26.999999150633862
10
-138.99999906122687
20
-46.999999150633869
10
-141.9999990612269
20
-46.999999150633869
10
-141.9999990612269
20
-49.999999150633876
10
-155.9999990612269
20
-49.999999150633883
0
LWPOLYLINE
5
194
100
AcDbEntity
8
0
100
AcDbPolyline
90
4
70
1
43
0.0
10
-165.1838283368977
20
-14.803652398940228
10
-159.18382833689762
20
-14.803652398940228
10
-159.18382833689762
20
-11.803652398940223
10
-165.1838283368977
20
-11.803652398940226
0
LWPOLYLINE
5
195
100
AcDbEntity
8
0
100
AcDbPolyline
90
9
70
1
43
0.0
10
-140.7673379603884
20
-18.927306229678177
10
-168.1838283368977
20
-18.927306229678177
10
-168.1838283368977
20
-15.92730622967817
10
-171.1838283368977
20
-15.92730622967817
10
-171.1838283368977
20
-10.756017633754231
10
-168.1838283368977
20
-10.756017633754231
10
-168.1838283368977
20
-7.7560176337542632
10
-123.90903700487742
20
-7.7560176337542277
10
-142.03519274561049
20
-16.208382868568158
0
LWPOLYLINE
5
196
100
AcDbEntity
8
0
100
AcDbPolyline
90
4
70
1
43
0.0
10
-127.72828952450871
20
-35.789454829241805
10
-124.90921166215108
20
-36.815515259218799
10
-120.12092965559179
20
-23.65981856821606
10
-122.94000751794951
20
-22.633758138239077
0
LWPOLYLINE
5
197
100
AcDbEntity
8
0
100
AcDbPolyline
90
4
70
1
43
0.0
10
-118.59766592470604
20
-78.548293928841574
10
-124.51432158907591
20
-65.859984910328478
10
-127.23324495018591
20
-67.127839695550662
10
-121.31658928581598
20
-79.816148714063701
0
LWPOLYLINE
5
198
100
AcDbEntity
8
0
100
AcDbPolyline
90
4
70
1
43
0.0
10
-129.01540360330088
20
-58.089041504070302
10
-126.01540360330088
20
-58.089041504070245
10
-126.01540360330098
20
-44.089041504070259
10
-129.015403603301
20
-44.089041504070451
0
LWPOLYLINE
5
199
100
AcDbEntity
8
0
100
AcDbPolyline
90
21
70
1
43
0.0
10
-131.23140767351796
20
-36.642779640836643
10
-123.3649443770277
20
-15.02984936276067
10
-117.72678865231225
20
-17.081970222714709
10
-113.91394708797262
20
-23.814680275881326
10
-120.75434995448587
20
-42.608532691599464
10
-117.93527209212792
20
-43.634593121576501
10
-118.01540360330105
20
-45.089041504070352
10
-121.01540360330107
20
-45.089041504070373
10
-121.01540360330092
20
-65.089041504070281
10
-118.01540360330092
20
-65.089041504070252
10
-117.78217637429822
20
-67.141061549218449
10
-120.50109973540812
20
-68.40891633444069
10
-112.0498119149772
20
-86.532761552572666
10
-121.0771848147412
20
-87.428158008542312
10
-130.79740483477741
20
-66.583078906699399
10
-137.01540360330085
20
-66.583078906699541
10
-137.01540360330094
20
-61.089041504070345
10
-132.01540360330094
20
-61.089041504070323
10
-132.01540360330111
20
-41.089041504070316
10
-137.01540360330017
20
-41.089041504070451
10
-137.01540360330023
20
-36.642779640836679
0
LWPOLYLINE
5
200
100
AcDbEntity
8
0
100
AcDbPolyline
90
4
70
1
43
0.0
10
-133.34175262497982
20
-92.558309672745594
10
-133.34175262497985
20
-106.55830967274557
10
-119.34175262497988
20
-106.55830967274557
10
-119.34175262497988
20
-92.558309672745622
0
LWPOLYLINE
5
201
100
AcDbEntity
8
0
100
AcDbPolyline
90
8
70
1
43
0.0
10
-136.34175262497988
20
-109.55830967274565
10
-133.34175262497988
20
-109.55830967274565
10
-133.34175262497988
20
-112.55830967274562
10
-119.34175262497989
20
-112.55830967274562
10
-119.34175262497986
20
-109.55830967274565
10
-116.34175262497983
20
-109.55830967274565
10
-116.34175262497988
20
-89.558309672745651
10
-136.34175262497988
20
-89.558309672745651
0
LWPOLYLINE
5
202
100
AcDbEntity
8
0
100
AcDbPolyline
90
17
70
1
43
0.0
10
-108.9775192106726
20
-139.75709485507576
10
-107.70966442545053
20
-142.47601821618574
10
-116.99999906122686
20
-142.47601821618574
10
-116.99999906122686
20
-139.47601821618576
10
-119.99999906122689
20
-139.47601821618574
10
-119.99999906122684
20
-129.89999915063387
10
-113.99999906122687
20
-129.89999915063387
10
-113.99999906122687
20
-126.89999915063385
10
-119.99999906122684
20
-126.89999915063385
10
-119.99999906122684
20
-117.39999915063387
10
-116.99999906122686
20
-117.39999915063387
10
-116.99999906122684
20
-114.39999915063385
10
-54.599051988473512
20
-114.39999915063389
10
-75.444131090316503
20
-124.12021917066996
10
-77.557222399019977
20
-119.58868023548673
10
-90.245531417533087
20
-125.50533589985649
10
-88.132440108829627
20
-130.03687483503973
0
LWPOLYLINE
5
203
100
AcDbEntity
8
0
100
AcDbPolyline
90
17
70
1
43
0.0
10
-65.62153183902781
20
-126.54290344619197
10
-86.46661094087078
20
-136.26312346622802
10
-84.353519632167291
20
-140.79466240141124
10
-97.041828650680358
20
-146.71131806578106
10
-99.154919959383889
20
-142.17977913059781
10
-119.99999906122684
20
-151.89999915063385
10
-57.599051988473484
20
-151.89999915063382
10
-57.599051988473484
20
-148.89999915063385
10
-54.599051988473512
20
-148.89999915063385
10
-54.599051988473533
20
-139.39999915063385
10
-60.599051988473526
20
-139.39999915063385
10
-60.599051988473526
20
-136.39999915063385
10
-54.599051988473533
20
-136.39999915063385
10
-54.599051988473533
20
-126.82398008508201
10
-57.599051988473533
20
-126.82398008508201
10
-57.599051988473526
20
-123.82398008508197
10
-66.889386624249923
20
-123.82398008508197
0
LWPOLYLINE
5
204
100
AcDbEntity
8
0
100
AcDbPolyline
90
26
70
1
43
0.0
10
-99.99999906122703
20
-163.99999915063319
10
-102.99999906122702
20
-163.99999915063333
10
-102.99999906122707
20
-170.99999915063319
10
-107.99999894201778
20
-170.99999915063313
10
-117.99999906122702
20
-158.9999991953367
10
-117.99999906122702
20
-155.99999915062716
10
-111.99999900162237
20
-155.99999915063319
10
-111.99999900162237
20
-158.9999991953367
10
-108.99999895691889
20
-158.9999991953367
10
-108.99999895691889
20
-155.99999915063319
10
-94.999998748302588
20
-155.99999915062998
10
-94.999998748302644
20
-158.99999919533673
10
-90.999998688697943
20
-158.99999919533673
10
-90.999998688697943
20
-155.99999915063049
10
-76.999998480081743
20
-155.99999915063333
10
-76.999998480081729
20
-158.99999919533673
10
-73.999998435378245
20
-158.99999919533673
10
-73.999998435378245
20
-155.99999915063333
10
-67.999999061226944
20
-155.99999915063333
10
-67.999999061226944
20
-158.99999919533678
10
-77.999998494982904
20
-170.99999915063333
10
-82.999999061227058
20
-170.99999915063322
10
-82.999999061227001
20
-163.99999915063322
10
-85.999999061227058
20
-163.99999915063333
10
-85.999999061227058
20
-170.99999915063322
10
-99.99999906122703
20
-170.99999915063319
0
LWPOLYLINE
5
205
100
AcDbEntity
8
0
100
AcDbPolyline
90
26
70
1
43
0.0
10
-85.999999061227058
20
-173.99999915063322
10
-99.999999061227072
20
-173.99999915063347
10
-99.999999061226902
20
-183.99999915063344
10
-102.99999906122679
20
-183.9999991506335
10
-102.99999906122707
20
-173.9999991506335
10
-107.9999996423723
20
-173.99999885261056
10
-117.99999906122692
20
-190.9999991059305
10
-117.9999990612268
20
-193.99999915063376
10
-111.99999970197645
20
-193.99999915063381
10
-111.99999970197652
20
-190.99999910593041
10
-108.99999965727309
20
-190.99999910593033
10
-108.99999965727297
20
-193.99999915063361
10
-94.999999448656709
20
-193.99999915063347
10
-94.999999448656794
20
-190.99999910592999
10
-90.999999389052164
20
-190.99999910592987
10
-90.999999389052064
20
-193.99999915063324
10
-76.999999180435807
20
-193.99999915063304
10
-76.999999180435893
20
-190.99999910592959
10
-73.999999135732381
20
-190.99999910592945
10
-73.999999135732324
20
-193.9999991506329
10
-67.999999061226703
20
-193.99999915063287
10
-67.999999061226774
20
-190.99999910592939
10
-77.999999195337438
20
-173.99999885260982
10
-82.999999061227001
20
-173.99999915063316
10
-82.999999061226859
20
-183.99999915063322
10
-85.999999061226788
20
-183.99999915063322
0
LWPOLYLINE
5
206
100
AcDbEntity
8
0
100
AcDbPolyline
90
13
70
1
43
0.0
10
-62.180643757934284
20
-204.08244771690195
10
-60.912788972712193
20
-206.8013710780119
10
-72.694790204188592
20
-212.29540848064096
10
-82.850895480902622
20
-212.29540848064096
10
-82.850895480902579
20
-209.2954084806411
10
-85.850895525606106
20
-209.2954084806411
10
-85.850895525606106
20
-198.82781478534775
10
-82.850895525606134
20
-198.82781478534775
10
-82.850895525606134
20
-195.82781478534773
10
-58.010651820936474
20
-195.82781478534773
10
-58.010651820936474
20
-198.82781478534775
10
-67.07372969130293
20
-203.05399740275479
10
-65.805874906080859
20
-205.77292076386473
0
LWPOLYLINE
5
207
100
AcDbEntity
8
0
100
AcDbPolyline
90
32
70
1
43
0.0
10
-25.353915585815123
20
-233.64464147459557
10
-17.271908715689079
20
-233.64464147459557
10
-17.271908715689079
20
-213.99999915063393
10
-37.32895136770594
20
-213.99999915063393
10
-46.222796075539954
20
-194.92708762474646
10
-43.50387271443001
20
-193.65923283952429
10
-43.737099943432725
20
-191.60721279437598
10
-46.737099943432767
20
-191.60721279437598
10
-46.737099943432732
20
-171.60721279437615
10
-43.73709994343271
20
-171.60721279437615
10
-43.656968432259724
20
-170.15276441188234
10
-46.47604629461739
20
-169.12670398190511
10
-39.635643428104018
20
-150.3328515661872
10
-43.790505135769322
20
-147.53983413380641
10
-49.428660860484754
20
-145.48771327385242
10
-56.953104013649487
20
-166.16095093114228
10
-62.737099943432675
20
-166.16095093114225
10
-62.737099943432682
20
-170.60721279437598
10
-57.737099943432682
20
-170.60721279437601
10
-57.737099943432753
20
-190.60721279437601
10
-56.519101174909203
20
-196.10125019700513
10
-54.737099943432895
20
-207.60721279437604
10
-54.737099943432952
20
-214.00021279437581
10
-57.278573418892833
20
-214.00021279437581
10
-57.278573418892833
20
-213.99999915063393
10
-77.271908715688994
20
-213.99999915063387
10
-77.271908715689136
20
-233.99999915063387
10
-57.271908715689094
20
-233.99999915063393
10
-57.271908715689094
20
-253.99999915063393
10
-37.27190871568915
20
-253.99999915063393
10
-37.271908715689079
20
-233.99999915063393
10
-25.519621591535948
20
-233.99999915063393
0
LWPOLYLINE
5
208
100
AcDbEntity
8
0
100
AcDbPolyline
90
4
70
1
43
0.0
10
-50.630908002282709
20
-166.3336865495246
10
-45.842625995723331
20
-153.17798985852181
10
-48.66170385808104
20
-152.15192942854489
10
-53.449985864640439
20
-165.30762611954748
0
LWPOLYLINE
5
209
100
AcDbEntity
8
0
100
AcDbPolyline
90
4
70
1
43
0.0
10
-40.271908715689115
20
-230.99999915063395
10
-40.271908715689086
20
-216.9999991506339
10
-54.271908715689079
20
-216.9999991506339
10
-54.271908715689101
20
-230.99999915063395
0
LWPOLYLINE
5
210
100
AcDbEntity
8
0
100
AcDbPolyline
90
4
70
1
43
0.0
10
-47.038285625948077
20
-209.33432000436949
10
-44.319362264838219
20
-208.06646521914746
10
-50.236017929207875
20
-195.37815620063429
10
-52.954941290317869
20
-196.64601098585626
0
LWPOLYLINE
5
211
100
AcDbEntity
8
0
100
AcDbPolyline
90
4
70
1
43
0.0
10
-21.271908715689072
20
-230.99999915063395
10
-21.271908715689083
20
-216.99999915063401
10
-35.271908715689058
20
-216.99999915063393
10
-35.271908715689051
20
-230.99999915063395
0
LWPOLYLINE
5
212
100
AcDbEntity
8
0
100
AcDbPolyline
90
4
70
1
43
0.0
10
-59.271908715689072
20
-230.99999915063395
10
-59.271908715689072
20
-216.9999991506339
10
-73.271908715689008
20
-216.9999991506339
10
-73.271908715689008
20
-230.99999915063378
0
LWPOLYLINE
5
213
100
AcDbEntity
8
0
100
AcDbPolyline
90
4
70
1
43
0.0
10
-54.737099943432732
20
-187.60721279437604
10
-51.73709994343271
20
-187.60721279437615
10
-51.737099943432689
20
-173.60721279437612
10
-54.737099943432732
20
-173.60721279437598
0
LWPOLYLINE
5
214
100
AcDbEntity
8
0
100
AcDbPolyline
90
4
70
1
43
0.0
10
-54.271908715689072
20
-235.99999915063395
10
-54.271908715689108
20
-249.99999915063387
10
-40.271908715689094
20
-249.99999915063387
10
-40.271908715689094
20
-235.99999915063395
0
LWPOLYLINE
5
215
100
AcDbEntity
8
0
100
AcDbPolyline
90
21
70
1
43
0.0
10
-104.99999906122682
20
-255.50222040214646
10
-104.99999906122682
20
-252.50222040214646
10
-83.219999061226815
20
-252.50222040214646
10
-83.219999061226815
20
-255.50222040214646
10
-71.761110721144931
20
-255.50222040214649
10
-69.6480194124414
20
-250.97068146696319
10
-78.711097282807913
20
-246.74449884955609
10
-77.443242497585786
20
-244.02557548844612
10
-68.380164627219273
20
-248.25175810585307
10
-66.267073318515884
20
-243.72021917067002
10
-87.112152420358768
20
-233.99999915063381
10
-121.99999906122683
20
-233.99999915063381
10
-121.99999906122683
20
-236.9999991506339
10
-124.9999990612268
20
-236.9999991506339
10
-124.9999990612268
20
-243.50222040214629
10
-114.9999989122152
20
-243.50222040214629
10
-114.9999989122152
20
-246.50222040214629
10
-124.9999990612268
20
-246.50222040214629
10
-124.9999990612268
20
-252.50222040214641
10
-121.99999906122683
20
-252.50222040214641
10
-121.99999906122683
20
-255.50222040214641
0
LWPOLYLINE
5
216
100
AcDbEntity
8
0
100
AcDbPolyline
90
21
70
1
43
0.0
10
-83.219999061226815
20
-261.50222040214635
10
-104.99999906122682
20
-261.50222040214635
10
-104.99999906122682
20
-258.50222040214635
10
-121.99999906122683
20
-258.50222040214635
10
-121.99999906122683
20
-261.50222040214635
10
-124.9999990612268
20
-261.50222040214635
10
-124.99999876320358
20
-267.50222040214635
10
-114.99999876320359
20
-267.50222040214635
10
-114.99999876320359
20
-270.50222040214641
10
-124.99999876320358
20
-270.50222040214641
10
-124.9999990612268
20
-277.00444165365883
10
-121.99999906122683
20
-277.00444165365883
10
-121.99999906122679
20
-280.00444165365883
10
-87.112152420358711
20
-280.00444165365883
10
-66.267073318515898
20
-270.28422163362268
10
-68.380164627219358
20
-265.75268269843946
10
-77.443242497585913
20
-269.97886531584646
10
-78.71109728280797
20
-267.25994195473646
10
-69.648019412441371
20
-263.03375933732968
10
-71.761110721144959
20
-258.50222040214624
10
-83.219999061226815
20
-258.50222040214629
0
LWPOLYLINE
5
217
100
AcDbEntity
8
0
100
AcDbPolyline
90
13
70
1
43
0.0
10
-75.77470284408173
20
-284.2359666832553
10
-77.042557629303815
20
-281.5170433221453
10
-65.260556397827386
20
-276.02300591951621
10
-55.104451076409902
20
-276.02300591951621
10
-55.104451076409873
20
-279.02300591951621
10
-52.104451076409902
20
-279.02300591951621
10
-52.104451076409902
20
-289.49059961480947
10
-55.104451076409944
20
-289.49059961480941
10
-55.104451076409873
20
-292.49059961480941
10
-79.944694781079463
20
-292.49059961480941
10
-79.944694781079534
20
-289.49059961480947
10
-70.881616910713021
20
-285.26441699740241
10
-72.149471695935134
20
-282.54549363629252
0
LWPOLYLINE
5
218
100
AcDbEntity
8
0
100
AcDbPolyline
90
17
70
1
43
0.0
10
-42.554108458771864
20
-286.7648540696257
10
-42.554108458771864
20
-289.76485406962576
10
-39.751436977451114
20
-289.7648540696257
10
-39.751436977451249
20
-281.76485406962576
10
-36.751436977451327
20
-281.76485406963178
10
-36.751436977451291
20
-289.76485406962576
10
-34.058064449141767
20
-289.7648540696257
10
-34.05806444914171
20
-286.76485406962576
10
-31.058053594480228
20
-286.76485406966498
10
-31.058046357524375
20
-270.57971172302013
10
-37.397320283634876
20
-256.98509491747024
10
-40.11624364474482
20
-258.25294970269249
10
-38.848388859522643
20
-260.97187306380238
10
-41.567312220632701
20
-262.23972784902446
10
-44.103021791076991
20
-256.80188112680463
10
-46.821945152186743
20
-258.06973591202672
10
-46.821945152186672
20
-286.76485406962564
0
LWPOLYLINE
5
219
100
AcDbEntity
8
0
100
AcDbPolyline
90
4
70
1
43
0.0
10
-23.186202164057761
20
-245.61762755165108
10
-23.186202164057761
20
-273.55762755165108
42
-0.99999999999999989
10
-25.586202164057781
20
-273.55762755165108
10
-25.586202164057781
20
-245.61762755165108
42
-0.99999999999999989
0
LWPOLYLINE
5
220
100
AcDbEntity
8
0
100
AcDbPolyline
90
4
70
1
43
0.0
10
-7.9462021640577536
20
-245.61762755165108
10
-7.94620216405775
20
-273.55762755165108
42
-0.99999999999999989
10
-10.346202164057773
20
-273.55762755165108
10
-10.34620216405777
20
-245.61762755165108
42
-0.99999999999999989
0
LWPOLYLINE
5
221
100
AcDbEntity
8
0
100
AcDbPolyline
90
4
70
1
43
0.0
10
-5.8762021640577267
20
-242.34762755165107
10
-27.656202164057753
20
-242.34762755165107
10
-27.656202164057817
20
-276.82762755165112
10
-5.8762021640577613
20
-276.82762755165106
0
LWPOLYLINE
5
222
100
AcDbEntity
8
0
100
AcDbPolyline
90
4
70
1
43
0.0
10
-27.474051225844327
20
-184.11112692580923
10
-28.69423162431162
20
-170.16440115252479
10
-31.682815718586824
20
-170.42586838076775
10
-30.462635320119638
20
-184.37259415405222
0
LWPOLYLINE
5
223
100
AcDbEntity
8
0
100
AcDbPolyline
90
4
70
1
43
0.0
10
-31.123956138597954
20
-162.04568475541262
10
-28.226178659730738
20
-162.8221418907201
10
-24.60271202829551
20
-149.29918032267329
10
-27.50048950716274
20
-148.52272318736567
0
LWPOLYLINE
5
224
100
AcDbEntity
8
0
100
AcDbPolyline
90
4
70
1
43
0.0
10
-20.899475148803596
20
-205.34602728140189
10
-18.301398937450259
20
-203.84602728140186
10
-25.301398937450287
20
-191.72167162841976
10
-27.89947514880356
20
-193.22167162841978
0
LWPOLYLINE
5
225
100
AcDbEntity
8
0
100
AcDbPolyline
90
21
70
1
43
0.0
10
-16.379079589207393
20
-196.19010057352534
10
-15.713357448939147
20
-198.77589338446012
10
-18.170813581806115
20
-200.4966226935133
10
-6.6992848547850521
20
-216.87966357929304
10
-21.497551360156905
20
-210.31012889653979
10
-31.497551360156866
20
-192.98962082085092
10
-37.691888766101115
20
-193.53155512192563
10
-38.170725676610637
20
-188.05842419030876
10
-33.189752186151907
20
-187.6226454765704
10
-34.932867041105062
20
-167.69875151473548
10
-39.913840531563729
20
-168.13453022847375
10
-40.301357786704479
20
-163.70518773399289
10
-34.539371707670256
20
-163.20107927268324
10
-28.586533670312335
20
-140.98478526803464
10
-22.790978712577896
20
-142.53769953864983
10
-12.17881329503056
20
-154.20290354502544
10
-20.6345276896255
20
-172.33624158208653
10
-17.915604328515581
20
-173.60409636730853
10
-18.122194444160556
20
-176.26620661169042
10
-21.110778538435756
20
-176.52767383993339
10
-19.367663683482583
20
-196.45156780176833
0
LWPOLYLINE
5
226
100
AcDbEntity
8
0
100
AcDbPolyline
90
25
70
1
43
0.0
10
-51.599051988472965
20
-124.79369048299498
10
-51.59905198847283
20
-106.2068975417826
10
-48.599051988472851
20
-106.20689754178261
10
-48.599051988472795
20
-101.93904275656065
10
-18.702030892352909
20
-101.93904275656078
10
-17.434176107130853
20
-104.65796611767072
10
-22.872022829350716
20
-107.19367568811487
10
-21.604168044128627
20
-109.91259904922481
10
-18.885244683018712
20
-108.64474426400277
10
-17.617389897796663
20
-111.36366762511273
10
-24.867852194089799
20
-114.74461371903826
10
-18.951196529720157
20
-127.43292273755139
10
-11.700734233426925
20
-124.05197664362586
10
-10.432879448204847
20
-126.77090000473581
10
-13.151802809314933
20
-128.03875478995798
10
-11.883948024092717
20
-130.75767815106784
10
-6.4461013018729263
20
-128.22196858062341
10
-5.1782465166507308
20
-130.9408919417333
10
-21.491786683310124
20
-138.54802065306657
10
-48.599051988473079
20
-138.54802065306637
10
-48.599051988473022
20
-135.82909729195643
10
-51.599051988473022
20
-135.82909729195643
10
-51.59905198847283
20
-127.7936905276984
10
-41.599051690449578
20
-127.79369052769849
10
-41.599051690449578
20
-124.793690482995
0
LWPOLYLINE
5
227
100
AcDbEntity
8
0
100
AcDbPolyline
90
25
70
1
43
0.0
10
-51.599051988474649
20
-96.220119395450638
10
-51.599051988474642
20
-88.184712631192582
10
-41.599051690451148
20
-88.184712631192582
10
-41.599051690451148
20
-85.184712586489084
10
-51.599051988474649
20
-85.184712586489084
10
-51.599051988474642
20
-66.597919645276846
10
-48.599051988474606
20
-66.597919645276846
10
-48.599051988474606
20
-62.33006486005479
10
-18.702030892354781
20
-62.330064860054719
10
-17.434176107132696
20
-65.048988221164748
10
-22.872022829352581
20
-67.584697791608875
10
-21.604168044130468
20
-70.303621152718804
10
-18.885244683020574
20
-69.035766367496706
10
-17.617389897798446
20
-71.754689728606706
10
-24.867852194091611
20
-75.135635822532265
10
-18.951196529721809
20
-87.82394484104536
10
-11.700734233428642
20
-84.442998747119802
10
-10.432879448206522
20
-87.161922108229703
10
-13.151802809316568
20
-88.429776893451887
10
-11.883948024094376
20
-91.148700254561788
10
-6.4461013018746005
20
-88.612990684117264
10
-5.1782465166523668
20
-91.331914045227208
10
-21.49178668331168
20
-98.939042756560553
10
-48.599051988474606
20
-98.939042756560553
10
-48.599051988474606
20
-96.220119395450638
0
LWPOLYLINE
5
228
100
AcDbEntity
8
0
100
AcDbPolyline
90
4
70
1
43
0.0
10
-22.667908183684041
20
-55.645872160076721
10
-8.6679081836840552
20
-55.645872160076721
10
-8.6679081836840552
20
-41.645872160076678
10
-22.667908183684041
20
-41.645872160076678
0
LWPOLYLINE
5
229
100
AcDbEntity
8
0
100
AcDbPolyline
90
8
70
1
43
0.0
10
-5.6679081836840499
20
-38.645872160076735
10
-5.6679081836840517
20
-58.645872160076742
10
-25.667908183684052
20
-58.645872160076742
10
-25.667908183684052
20
-38.645872160076671
10
-22.66790818368408
20
-38.645872160076735
10
-22.66790818368408
20
-35.645872160076664
10
-8.6679081836840552
20
-35.645872160076664
10
-8.6679081836840552
20
-38.645872160076735
0
LWPOLYLINE
5
230
100
AcDbEntity
8
0
100
AcDbPolyline
90
4
70
1
43
0.0
10
-47.999999061226745
20
-40.999999999999865
10
-47.999999061226795
20
-54.999999999999893
10
-33.999999061226809
20
-54.999999999999893
10
-33.999999061226809
20
-40.999999999999865
0
LWPOLYLINE
5
231
100
AcDbEntity
8
0
100
AcDbPolyline
90
8
70
1
43
0.0
10
-47.999999061226795
20
-34.999999999999858
10
-33.999999061226738
20
-34.999999999999858
10
-33.999999061226738
20
-37.999999999999865
10
-30.999999061226791
20
-37.999999999999936
10
-30.999999061226791
20
-57.999999999999936
10
-50.999999061226802
20
-57.999999999999865
10
-50.999999061226823
20
-37.999999999999936
10
-47.999999061226795
20
-37.999999999999865
0
LWPOLYLINE
5
232
100
AcDbEntity
8
0
100
AcDbPolyline
90
24
70
1
43
0.0
10
-6.0117037143325716
20
-11.127456029480662
10
-9.2250092524068847
20
-5.5618475772934435
10
-11.823085463760151
20
-7.0618475772934808
10
-10.323085463760275
20
-9.6599237886467275
10
-22.447441116742457
20
-16.659923788646793
10
-23.947441116742336
20
-14.061847577293491
10
-29.179491924311254
20
-12.999669750802386
10
-49.17949192431125
20
-12.999669750802312
10
-54.411542731880182
20
-14.06184757729342
10
-55.911542731880118
20
-16.659923788646722
10
-68.035898384862136
20
-9.659923788646692
10
-66.53589838486225
20
-7.0618475772933742
10
-69.133974596215566
20
-5.5618475772933751
10
-72.347280132578135
20
-11.127456026515578
10
-58.179491924311307
20
-29.999669750802287
10
-55.179491924311257
20
-29.999669750802322
10
-55.179491924311257
20
-22.99966975080239
10
-52.179491924311286
20
-22.999669750802308
10
-52.179491924311286
20
-29.999669750802394
10
-26.179491924311353
20
-29.999669750802411
10
-26.179491924311353
20
-22.99966975080239
10
-23.179491924311346
20
-22.999669750802397
10
-23.179491924311382
20
-29.999669750802411
10
-20.179491834904386
20
-29.999669750802411
0
LWPOLYLINE
5
233
100
AcDbEntity
8
0
100
AcDbPolyline
90
4
70
1
43
0.0
10
-46.179491924311293
20
-15.999669750802337
10
-46.179491924311293
20
-18.999669750802372
10
-32.179491924311215
20
-18.99966975080245
10
-32.179491924311215
20
-15.999669750802425
0
LWPOLYLINE
5
234
100
AcDbEntity
8
0
100
AcDbPolyline
90
4
70
1
43
0.0
10
-102.41479638725113
20
-32.822608032803934
10
-105.41479638725114
20
-32.822608032803927
10
-105.41479638725114
20
-46.822608032803927
10
-102.41479638725113
20
-46.822608032803927
0
LWPOLYLINE
5
235
100
AcDbEntity
8
0
100
AcDbPolyline
90
24
70
1
43
0.0
10
-112.33533076493744
20
-70.070908831015842
10
-105.65540214991843
20
-72.502204013905896
10
-71.414798652227617
20
-58.632727637410227
10
-71.414798652227617
20
-54.822608032803934
10
-81.414796387251144
20
-54.82260803280397
10
-81.414796387251144
20
-51.822608032803963
10
-71.414798652227617
20
-51.822608032803984
10
-71.414798652227617
20
-27.822608032803959
10
-81.414796387251045
20
-27.822608032803977
10
-81.414796387251101
20
-24.822608032803984
10
-71.414798652227617
20
-24.822608032803966
10
-71.414798652227645
20
-21.035107780387147
10
-107.80224834549692
20
-6.7075610970388038
10
-114.10038885106781
20
-9.6444322469226531
10
-112.83253406584572
20
-12.363355608032634
10
-110.11361070473568
20
-11.095500822810491
10
-104.19695504036598
20
-23.783809841323638
10
-106.91587840147594
20
-25.051664626545733
10
-108.41479638725116
20
-29.822608032803934
10
-108.41479638725116
20
-49.822608032803913
10
-106.5209883284011
20
-54.096134277655423
10
-103.70191046604339
20
-55.122194707632417
10
-108.49019247260281
20
-68.277891398635148
10
-111.30927033496044
20
-67.251830968658169
0
LWPOLYLINE
5
236
100
AcDbEntity
8
0
100
AcDbPolyline
90
17
70
1
43
0.0
10
-73.89776177179472
20
-80.599071555968862
10
-70.897761771794677
20
-80.599071555968862
10
-70.897761771794663
20
-77.796400074648133
10
-78.897761771794649
20
-77.796400074648233
10
-78.89776177178868
20
-74.796400074648261
10
-70.897761771794677
20
-74.796400074648261
10
-70.897761771794677
20
-72.103027546338694
10
-73.89776177179472
20
-72.103027546338694
10
-73.897761771755455
20
-69.103016691677226
10
-90.082904118400279
20
-69.103009454721303
10
-103.6775209239501
20
-75.442283380831839
10
-102.40966613872794
20
-78.161206741941783
10
-99.690742777618027
20
-76.893351956719613
10
-98.422887992395943
20
-79.612275317829642
10
-103.86073471461579
20
-82.147984888273911
10
-102.5928799293937
20
-84.866908249383641
10
-73.897761771794649
20
-84.866908249383641
0
CIRCLE
5
237
100
AcDbEntity
8
0
100
AcDbCircle
10
-84.759885087748586
20
-102.89999858438954
30
0
40
4.0000000000000036
210
0
220
0
230
1
0
LWPOLYLINE
5
238
100
AcDbEntity
8
0
100
AcDbPolyline
90
20
70
1
43
0.0
10
-86.759885087748586
20
-91.399998852610494
10
-111.75988475992324
20
-91.399998852610366
10
-111.75988475992324
20
-94.399998852610366
10
-114.75988475992322
20
-94.399998852610366
10
-104.75988475992327
20
-111.39999915063368
10
-99.759884759923267
20
-111.39999915063368
10
-99.759884759923224
20
-101.39999915063363
10
-96.759884759923239
20
-101.39999915063363
10
-96.759884759923295
20
-111.39999915063368
10
-72.75988480462668
20
-111.39999915063369
10
-72.75988480462668
20
-101.39999900162211
10
-69.759884759923196
20
-101.39999900162208
10
-69.759884759923267
20
-111.39999915063369
10
-64.759884759923253
20
-111.39999915063369
10
-54.759884759923168
20
-94.399998852610608
10
-57.759884759923224
20
-94.399998852610608
10
-57.75988475992321
20
-91.399998852610494
10
-82.759885087748586
20
-91.399998852610494
10
-82.759885087748572
20
-94.399998584389536
10
-86.759885087748572
20
-94.399998584389536
0
LWPOLYLINE
5
239
100
AcDbEntity
8
0
100
AcDbPolyline
90
24
70
1
43
0.0
10
-55.599051988474642
20
-64.597919645276846
10
-55.59905198847467
20
-50.597919645276775
10
-61.599051988474727
20
-50.597919645276775
10
-61.599051988474656
20
-47.597919645276775
10
-55.599051988474713
20
-47.597919645276775
10
-55.59905198847467
20
-44.597919645276853
10
-64.599051988474699
20
-44.597919645276853
10
-64.599051988474699
20
-47.59791964527686
10
-67.59905198847467
20
-47.59791964527686
10
-67.59905198847467
20
-55.597919645276846
10
-64.599051988474699
20
-55.597919645276846
10
-64.599051988474656
20
-59.597919645276846
10
-67.599051988474727
20
-59.597919645276846
10
-67.59905198847467
20
-74.597919645276846
10
-64.599051943771272
20
-74.597919645276846
10
-64.599051943771272
20
-77.597919645276846
10
-67.599051988474727
20
-77.597919645276846
10
-67.599051988474685
20
-84.597919645276846
10
-61.599051988474685
20
-84.597919645276846
10
-61.599051988474756
20
-87.597919645276818
10
-55.599051988474642
20
-87.597919645276818
10
-55.599051988474599
20
-67.597919645276818
10
-61.599051988474656
20
-67.597919645276846
10
-61.599051988474613
20
-64.597919645276846
0
ENDSEC
0
SECTION
2
OBJECTS
0
DICTIONARY
5
C
100
AcDbDictionary
3
ACAD_GROUP
350
D
3
ACAD_MLINESTYLE
350
17
0
DICTIONARY
5
D
100
AcDbDictionary
0
DICTIONARY
5
1A
330
C
100
AcDbDictionary
0
DICTIONARY
5
17
100
AcDbDictionary
0
ENDSEC
0
EOF
