0
SECTION
2
HEADER
9
$INSUNITS
70
4
9
$ACADVER
1
AC1014
9
$HANDSEED
5
FFFF
0
ENDSEC
0
SECTION
2
TABLES
0
TABLE
2
VPORT
5
8
100
AcDbSymbolTable
0
ENDTAB
0
TABLE
2
LTYPE
5
5
100
AcDbSymbolTable
0
LTYPE
5
14
100
AcDbSymbolTableRecord
100
AcDbLinetypeTableRecord
2
BYBLOCK
70
0
0
LTYPE
5
15
100
AcDbSymbolTableRecord
100
AcDbLinetypeTableRecord
2
BYLAYER
70
0
0
ENDTAB
0
TABLE
2
LAYER
5
2
100
AcDbSymbolTable
70
2
0
LAYER
5
50
100
AcDbSymbolTableRecord
100
AcDbLayerTableRecord
2
0
70
0
6
CONTINUOUS
0
ENDTAB
0
TABLE
2
STYLE
5
3
100
AcDbSymbolTable
70
1
0
STYLE
5
11
100
AcDbSymbolTableRecord
100
AcDbTextStyleTableRecord
2
STANDARD
70
0
0
ENDTAB
0
TABLE
2
VIEW
5
6
100
AcDbSymbolTable
70
0
0
ENDTAB
0
TABLE
2
UCS
5
7
100
AcDbSymbolTable
70
0
0
ENDTAB
0
TABLE
2
APPID
5
9
100
AcDbSymbolTable
70
2
0
APPID
5
12
100
AcDbSymbolTableRecord
100
AcDbRegAppTableRecord
2
ACAD
70
0
0
ENDTAB
0
TABLE
2
DIMSTYLE
5
A
100
AcDbSymbolTable
70
1
0
ENDTAB
0
TABLE
2
BLOCK_RECORD
5
1
100
AcDbSymbolTable
70
1
0
BLOCK_RECORD
5
1F
100
AcDbSymbolTableRecord
100
AcDbBlockTableRecord
2
*MODEL_SPACE
0
BLOCK_RECORD
5
1B
100
AcDbSymbolTableRecord
100
AcDbBlockTableRecord
2
*PAPER_SPACE
0
ENDTAB
0
ENDSEC
0
SECTION
2
BLOCKS
0
BLOCK
5
20
100
AcDbEntity
100
AcDbBlockBegin
2
*MODEL_SPACE
0
ENDBLK
5
21
100
AcDbEntity
100
AcDbBlockEnd
0
BLOCK
5
1C
100
AcDbEntity
100
AcDbBlockBegin
2
*PAPER_SPACE
0
ENDBLK
5
1D
100
AcDbEntity
100
AcDbBlockEnd
0
ENDSEC
0
SECTION
2
ENTITIES
0
LWPOLYLINE
5
100
100
AcDbEntity
8
0
100
AcDbPolyline
90
17
70
1
43
0.0
10
64.599051988473533
20
126.39999915063385
10
70.599051988473519
20
126.39999915063385
10
70.599051988473519
20
129.39999915063385
10
64.599051988473533
20
129.39999915063385
10
64.599051988473505
20
138.89999915063385
10
67.599051988473477
20
138.89999915063385
10
67.599051988473477
20
141.89999915063382
10
129.99999906122684
20
141.89999915063385
10
109.15491995938388
20
132.17977913059781
10
107.04182865068037
20
136.71131806578106
10
94.353519632167291
20
130.79466240141124
10
96.466610940870765
20
126.26312346622802
10
75.62153183902781
20
116.54290344619197
10
76.889386624249923
20
113.82398008508197
10
67.599051988473519
20
113.82398008508197
10
67.599051988473548
20
116.823980085082
10
64.599051988473548
20
116.823980085082
0
LWPOLYLINE
5
101
100
AcDbEntity
8
0
100
AcDbPolyline
90
17
70
1
43
0.0
10
85.444131090316489
20
114.12021917066996
10
64.599051988473505
20
104.39999915063389
10
126.99999906122683
20
104.39999915063385
10
126.99999906122686
20
107.39999915063387
10
129.99999906122684
20
107.39999915063387
10
129.99999906122684
20
116.89999915063385
10
123.99999906122686
20
116.89999915063385
10
123.99999906122686
20
119.89999915063387
10
129.99999906122684
20
119.89999915063387
10
129.99999906122687
20
129.47601821618574
10
126.99999906122686
20
129.47601821618576
10
126.99999906122686
20
132.47601821618574
10
117.70966442545051
20
132.47601821618574
10
118.9775192106726
20
129.75709485507576
10
98.132440108829599
20
120.03687483503974
10
100.2455314175331
20
115.50533589985649
10
87.557222399019963
20
109.58868023548673
0
LWPOLYLINE
5
102
100
AcDbEntity
8
0
100
AcDbPolyline
90
4
70
1
43
0.0
10
118.00000000000003
20
46.000000000000021
10
121.00000000000003
20
46.000000000000021
10
121.00000000000003
20
32.000000000000014
10
118.00000000000003
20
32.000000000000021
0
LWPOLYLINE
5
103
100
AcDbEntity
8
0
100
AcDbPolyline
90
24
70
1
43
0.0
10
124.00000000000004
20
49
10
122.10619194114999
20
53.27352624485151
10
119.28711407879229
20
54.299586674828504
10
124.07539608535173
20
67.455283365831235
10
126.89447394770936
20
66.429222935854256
10
128.26255452101202
20
70.187993418997863
10
122.62439879629655
20
72.240114278951893
10
87.000002264976516
20
57.810119604606321
10
87.000002264976516
20
54.000000000000021
10
97.000000000000043
20
54.000000000000064
10
97.000000000000043
20
51.00000000000005
10
87.000002264976516
20
51.000000000000071
10
87.000002264976516
20
27.000000000000057
10
96.999999999999972
20
27.000000000000068
10
97.000000000000014
20
24.000000000000075
10
87.000002264976516
20
24.000000000000057
10
87.000002264976558
20
20.212499747583237
10
124.67036400333748
20
5.3798068566379253
10
130.1082107255574
20
7.9155164270820899
10
128.41773767859462
20
11.540747575228725
10
125.69881431748458
20
10.272892790006585
10
119.78215865311489
20
22.961201808519732
10
122.50108201422483
20
24.229056593741824
10
124.00000000000004
20
29.000000000000025
0
LWPOLYLINE
5
104
100
AcDbEntity
8
0
100
AcDbPolyline
90
4
70
1
43
0.0
10
59.179491924311279
20
15.999669750802337
10
45.179491924311222
20
15.999669750802425
10
45.179491924311222
20
18.99966975080245
10
59.179491924311279
20
18.999669750802379
0
LWPOLYLINE
5
105
100
AcDbEntity
8
0
100
AcDbPolyline
90
24
70
1
43
0.0
10
33.179491834904383
20
29.999669750802411
10
18.358983848622444
20
10.258000000000127
10
21.358983848622451
20
5.0618475772934524
10
24.823085463760151
20
7.0618475772934808
10
23.323085463760272
20
9.6599237886467293
10
35.447441116742453
20
16.659923788646793
10
36.947441116742333
20
14.061847577293491
10
42.17949192431125
20
12.999669750802383
10
62.17949192431125
20
12.999669750802312
10
67.411542731880175
20
14.06184757729342
10
68.911542731880118
20
16.659923788646722
10
81.035898384862151
20
9.6599237886466938
10
79.53589838486225
20
7.0618475772933742
10
83
20
5.0618475772933635
10
86.000000000000028
20
10.257999999999967
10
71.179491924311321
20
29.999669750802287
10
68.179491924311236
20
29.999669750802322
10
68.179491924311264
20
22.999669750802383
10
65.179491924311293
20
22.999669750802312
10
65.179491924311293
20
29.999669750802394
10
39.17949192431135
20
29.999669750802411
10
39.17949192431135
20
22.999669750802383
10
36.179491924311343
20
22.999669750802401
10
36.179491924311378
20
29.999669750802411
0
LWPOLYLINE
5
106
100
AcDbEntity
8
0
100
AcDbPolyline
90
12
70
1
43
0.0
10
293.00000093877293
20
19.034164040823605
10
305.00000093877293
20
19.034164040823608
10
305.00000093877293
20
22.034164040823576
10
293.00000093877293
20
22.034164040823647
10
293.00000093877293
20
28.03416404082359
10
290.00000093877298
20
28.03416404082359
10
290.00000093877298
20
22.034164040823612
10
280.00000061094761
20
22.034164040823612
10
280.00000061094761
20
19.034164040823605
10
290.00000093877298
20
19.034164040823608
10
290.00000093877298
20
12.531942789311117
10
293.00000093877293
20
12.531942789311188
0
LWPOLYLINE
5
107
100
AcDbEntity
8
0
100
AcDbPolyline
90
4
70
1
43
0.0
10
300.00000093877304
20
103.29124228042733
10
294.00000087916845
20
103.29124228042733
10
294.0000008791684
20
100.29124228042733
10
300.00000093877304
20
100.29124228042733
0
LWPOLYLINE
5
108
100
AcDbEntity
8
0
100
AcDbPolyline
90
12
70
1
43
0.0
10
268.00000093877304
20
100.29124228042733
10
273.00000056624407
20
100.29124228042733
10
273.00000056624407
20
103.2912422804273
10
268.00000093877304
20
103.2912422804273
10
268.00000093877304
20
106.09391376174787
10
265.0000009387731
20
106.09391376174784
10
265.0000009387731
20
103.2912422804273
10
259.00000035762775
20
103.2912422804273
10
259.00000035762775
20
100.29124228042733
10
265.0000009387731
20
100.29124228042733
10
265.0000009387731
20
97.597869752117703
10
268.00000093877304
20
97.597869752117703
0
LWPOLYLINE
5
109
100
AcDbEntity
8
0
100
AcDbPolyline
90
12
70
1
43
0.0
10
251.00000093877296
20
22.034164040823541
10
251.00000093877296
20
19.034164040823605
10
263.00000093877293
20
19.034164040823608
10
263.00000093877293
20
12.531942789311117
10
266.00000093877293
20
12.531942789311188
10
266.00000093877293
20
19.034164040823605
10
276.00000061094755
20
19.034164040823608
10
276.00000061094755
20
22.034164040823541
10
266.00000093877293
20
22.034164040823612
10
266.00000093877293
20
28.03416404082359
10
263.00000093877293
20
28.03416404082359
10
263.00000093877293
20
22.034164040823612
0
LWPOLYLINE
5
110
100
AcDbEntity
8
0
100
AcDbPolyline
90
12
70
1
43
0.0
10
327.39278729503098
20
88.20134446662405
10
327.39278729503098
20
97.701344466624136
10
324.39278729503098
20
97.701344466624136
10
324.39278729503093
20
88.20134446662405
10
319.39278729503087
20
88.20134446662405
10
319.39278729503081
20
85.201344466624036
10
324.39278729503087
20
85.201344466624136
10
324.39278729503093
20
75.625325401072203
10
327.39278729503098
20
75.625325401072203
10
327.39278729503098
20
85.201344466624136
10
334.39278729503093
20
85.201344466624136
10
334.39278729503087
20
88.201344466624107
0
LWPOLYLINE
5
111
100
AcDbEntity
8
0
100
AcDbPolyline
90
12
70
1
43
0.0
10
281.00000093877293
20
63.000000849366096
10
281.00000093877293
20
54.96459408510816
10
284.00000093877304
20
54.96459408510816
10
284.00000093877293
20
63.000000849366096
10
290.00000081956381
20
63.000000849366096
10
290.00000081956375
20
66.000000894069757
10
284.00000093877287
20
66.000000894069757
10
284.00000093877293
20
84.586793835281952
10
281.00000093877298
20
84.586793835281952
10
281.00000093877293
20
66.000000894069757
10
276.00000061094755
20
66.000000894069757
10
276.00000061094755
20
63.000000849366096
0
LWPOLYLINE
5
112
100
AcDbEntity
8
0
100
AcDbPolyline
90
12
70
1
43
0.0
10
264.00000093877287
20
66.000000894069757
10
258.00000034272659
20
66.000000894069757
10
258.00000034272659
20
63.000000849366096
10
264.00000093877287
20
63.000000849366096
10
264.00000093877287
20
54.96459408510816
10
267.00000093877304
20
54.96459408510816
10
267.00000093877293
20
63.000000849366096
10
272.00000055134291
20
63.000000849366096
10
272.00000055134291
20
66.000000894069757
10
267.00000093877293
20
66.000000894069757
10
267.00000093877298
20
84.586793835281952
10
264.00000093877304
20
84.586793835281952
0
LWPOLYLINE
5
113
100
AcDbEntity
8
0
100
AcDbPolyline
90
4
70
1
43
0.0
10
249.00000093877279
20
66.000000894069757
10
249.00000093877279
20
63.00000089406975
10
255.0000002980232
20
63.000000849366096
10
255.0000002980232
20
66.000000894069757
0
LWPOLYLINE
5
114
100
AcDbEntity
8
0
100
AcDbPolyline
90
12
70
1
43
0.0
10
285.00000093877304
20
97.597869752117703
10
285.00000093877304
20
100.29124228042733
10
291.00000083446497
20
100.29124228042733
10
291.00000083446497
20
103.2912422804273
10
285.00000093877304
20
103.2912422804273
10
285.00000093877304
20
106.09391376174784
10
282.00000093877304
20
106.09391376174784
10
282.00000093877304
20
103.2912422804273
10
277.00000062584871
20
103.2912422804273
10
277.00000062584871
20
100.29124228042733
10
282.00000093877304
20
100.29124228042733
10
282.00000093877304
20
97.597869752117703
0
CIRCLE
5
115
100
AcDbEntity
8
0
100
AcDbCircle
10
287.00000093877293
20
33.534164040823597
30
0
40
1.5000000000000036
210
0
220
-0
230
1
0
LWPOLYLINE
5
116
100
AcDbEntity
8
0
100
AcDbPolyline
90
4
70
1
43
0.0
10
256.00000031292427
20
103.2912422804273
10
250.00000093877304
20
103.2912422804273
10
250.00000093877304
20
100.29124228042733
10
256.00000031292427
20
100.29124228042733
0
LWPOLYLINE
5
117
100
AcDbEntity
8
0
100
AcDbPolyline
90
4
70
1
43
0.0
10
301.00000093877304
20
138.92158228285467
10
301.00000093877304
20
149.38917597814793
10
298.00000093877304
20
149.3891759781479
10
298.00000093877304
20
138.92158228285464
0
CIRCLE
5
118
100
AcDbEntity
8
0
100
AcDbCircle
10
287.00000093877293
20
48.534164040823633
30
0
40
1.5000000000000036
210
0
220
-0
230
1
0
CIRCLE
5
119
100
AcDbEntity
8
0
100
AcDbCircle
10
303.50000091642119
20
33.534164040823633
30
0
40
1.5000000223517418
210
0
220
-0
230
1
0
LWPOLYLINE
5
120
100
AcDbEntity
8
0
100
AcDbPolyline
90
8
70
1
43
0.0
10
347.39278729503098
20
84.077690635886171
10
347.39278729503098
20
89.248979231810139
10
344.39278729503098
20
89.248979231810139
10
344.39278729503093
20
88.201344466624107
10
337.39278729503087
20
88.201344466624107
10
337.39278729503093
20
85.201344466624036
10
344.39278729503098
20
85.201344466624136
10
344.39278729503093
20
84.077690635886171
0
LWPOLYLINE
5
121
100
AcDbEntity
8
0
100
AcDbPolyline
90
4
70
1
43
0.0
10
299.00000093877293
20
63.000000849366131
10
299.00000093877293
20
66.000000894069785
10
293.00000086426729
20
66.000000894069785
10
293.00000086426729
20
63.000000849366096
0
LWPOLYLINE
5
122
100
AcDbEntity
8
0
100
AcDbPolyline
90
4
70
1
43
0.0
10
269.00000093877304
20
138.92158228285464
10
272.00000093877304
20
138.92158228285464
10
272.00000093877304
20
149.3891759781479
10
269.00000093877304
20
149.38917597814788
0
CIRCLE
5
123
100
AcDbEntity
8
0
100
AcDbCircle
10
303.50000093877293
20
48.534164152582413
30
0
40
1.5000000000000036
210
0
220
-0
230
1
0
LWPOLYLINE
5
124
100
AcDbEntity
8
0
100
AcDbPolyline
90
8
70
1
43
0.0
10
307.39278729503093
20
97.701344466624036
10
307.39278729503093
20
75.625325401072161
10
310.39278729503093
20
75.625325401072161
10
310.39278729503093
20
85.201344466623993
10
315.39278729503087
20
85.201344466624036
10
315.39278729503087
20
88.20134446662405
10
310.39278729503087
20
88.201344466624008
10
310.39278729503098
20
97.701344466624036
0
LINE
5
125
100
AcDbEntity
8
0
100
AcDbLine
10
292.00000093877304
20
5.7487381908951818
30
0
11
266.00000093877304
21
5.7487381908951782
31
0
0
ARC
5
126
100
AcDbEntity
8
0
100
AcDbCircle
10
266.00000093877304
20
25.748738190895182
30
0
40
20
210
0
220
0
230
1
100
AcDbArc
50
180
51
270
0
LINE
5
127
100
AcDbEntity
8
0
100
AcDbLine
10
246.00000093877304
20
25.748738190895178
30
0
11
246.00000093877304
21
60.000000849366089
31
0
0
LINE
5
128
100
AcDbEntity
8
0
100
AcDbLine
10
246.00000093877304
20
60.000000849366089
30
0
11
245.60660265657131
21
60.000000849366089
31
0
0
SPLINE
5
129
100
AcDbEntity
8
0
100
AcDbSpline
70
0
71
3
72
16
73
12
74
0
42
0.000000001
43
0.0000000001
44
0.0000000001
40
0
40
0
40
0
40
0
40
0.41300179821663424
40
0.41300179821663424
40
0.8261602164794456
40
0.8261602164794456
40
1.2390892736637211
40
1.2390892736637211
40
1.4547300807148611
40
1.4547300807148611
40
1.670315971228117
40
1.670315971228117
40
1.670315971228117
40
1.670315971228117
10
245.60660265657131
20
60.000000849366089
30
0
10
244.2299299958492
20
60.000000849366089
30
0
10
242.866333927982
20
60.26802650902674
30
0
10
240.3173426494827
20
61.310345584110095
30
0
10
239.15624569104858
20
62.074922759828404
30
0
10
237.19185418001712
20
64.004590135642843
30
0
10
236.40701394598233
20
65.151134885504121
30
0
10
235.57911251276906
20
67.075863448601964
30
0
10
235.36294512022496
20
67.763337263776222
30
0
10
235.0730329324706
20
69.171220023247713
30
0
10
235.00000093877304
20
69.887982932120138
30
0
10
235.00000093877304
20
70.606602567164316
30
0
0
LINE
5
130
100
AcDbEntity
8
0
100
AcDbLine
10
235.00000093877307
20
70.606602567164316
30
0
11
235.00000093877304
21
101.85786522563518
31
0
0
SPLINE
5
131
100
AcDbEntity
8
0
100
AcDbSpline
70
0
71
3
72
16
73
12
74
0
42
0.000000001
43
0.0000000001
44
0.0000000001
40
0
40
0
40
0
40
0
40
0.55066906428928619
40
0.55066906428928619
40
1.1015469553062984
40
1.1015469553062984
40
1.6521190315521987
40
1.6521190315521987
40
1.9396401076201613
40
1.9396401076201613
40
2.2270879616375958
40
2.2270879616375958
40
2.2270879616375958
40
2.2270879616375958
10
235.00000093877304
20
101.85786522563518
30
0
10
235.00000093877304
20
103.69342877326613
30
0
10
235.35736848498772
20
105.51155686375668
30
0
10
236.7471272517669
20
108.91021190175664
30
0
10
237.76656348605826
20
110.45834117966822
30
0
10
240.33945332047833
20
113.07752986104316
30
0
10
241.86817965362721
20
114.12398350642256
30
0
10
244.43448440442467
20
115.22785208403934
30
0
10
245.35111615798951
20
115.51607527409774
30
0
10
247.22829317061667
20
115.90262485776958
30
0
10
248.1839770491126
20
116.0000008493661
30
0
10
249.14213656250405
20
116.0000008493661
30
0
0
LINE
5
132
100
AcDbEntity
8
0
100
AcDbLine
10
249.14213656250405
20
116.0000008493661
30
0
11
250.00000093877307
21
116.0000008493661
31
0
0
LINE
5
133
100
AcDbEntity
8
0
100
AcDbLine
10
250.00000093877307
20
116.0000008493661
30
0
11
250.00000093877307
21
144.39339913156789
31
0
0
SPLINE
5
134
100
AcDbEntity
8
0
100
AcDbSpline
70
0
71
3
72
16
73
12
74
0
42
0.000000001
43
0.0000000001
44
0.0000000001
40
0
40
0
40
0
40
0
40
0.41300179821688482
40
0.41300179821688482
40
0.8261602164796219
40
0.8261602164796219
40
1.2390892736638837
40
1.2390892736638837
40
1.4547300807149499
40
1.4547300807149499
40
1.6703159712280802
40
1.6703159712280802
40
1.6703159712280802
40
1.6703159712280802
10
250.00000093877307
20
144.39339913156789
30
0
10
250.00000093877307
20
145.77007179229082
30
0
10
250.26802659843401
20
147.13366786015857
30
0
10
251.31034567351816
20
149.68265913865827
30
0
10
252.07492284923649
20
150.8437560970921
30
0
10
254.00459022505103
20
152.80814760812299
30
0
10
255.15113497491242
20
153.59298784215758
30
0
10
257.07586353801014
20
154.42088927537046
30
0
10
257.76333735318417
20
154.63705666791458
30
0
10
259.17122011265502
20
154.92696885566863
30
0
10
259.88798302152748
20
155.00000084936613
30
0
10
260.60660265657128
20
155.00000084936613
30
0
0
LINE
5
135
100
AcDbEntity
8
0
100
AcDbLine
10
308.39339922097486
20
155.00000084936613
30
0
11
260.60660265657128
21
155.00000084936613
31
0
0
SPLINE
5
136
100
AcDbEntity
8
0
100
AcDbSpline
70
0
71
3
72
16
73
12
74
0
42
0.000000001
43
0.0000000001
44
0.0000000001
40
0
40
0
40
0
40
0
40
0.412974019601686
40
0.412974019601686
40
0.8260402905086266
40
0.8260402905086266
40
1.2394770370307515
40
1.2394770370307515
40
1.4549302698008686
40
1.4549302698008686
40
1.6703185840736705
40
1.6703185840736705
40
1.6703185840736705
40
1.6703185840736705
10
319.00000093877304
20
144.39339913156789
30
0
10
319.00000093877304
20
145.76997919690686
30
0
10
318.73201133286
20
147.13348531201365
30
0
10
317.68990969088361
20
149.68213361747689
30
0
10
316.92558630696931
20
150.8430195009505
30
0
10
314.99516843168874
20
152.80861540220081
30
0
10
313.84708935454165
20
153.59429504012428
30
0
10
311.92108068936841
20
154.42192057276574
30
0
10
311.23414879299588
20
154.63771075842087
30
0
10
309.82746969232818
20
154.9271026563986
30
0
10
309.11136026855087
20
155.00000084936613
30
0
10
308.39339922097486
20
155.00000084936613
30
0
0
LINE
5
137
100
AcDbEntity
8
0
100
AcDbLine
10
319.00000093877304
20
103.00000084936616
30
0
11
319.00000093877304
21
144.39339913156789
31
0
0
LINE
5
138
100
AcDbEntity
8
0
100
AcDbLine
10
337.09009836207571
20
103.00000084936616
30
0
11
319.00000093877304
21
103.00000084936616
31
0
0
SPLINE
5
139
100
AcDbEntity
8
0
100
AcDbSpline
70
0
71
3
72
16
73
12
74
0
42
0.000000001
43
0.0000000001
44
0.0000000001
40
0
40
0
40
0
40
0
40
0.6194610294003442
40
0.6194610294003442
40
1.2390604357606061
40
1.2390604357606061
40
1.8592155555439041
40
1.8592155555439041
40
2.1823954047000722
40
2.1823954047000722
40
2.5054778761102368
40
2.5054778761102368
40
2.5054778761102368
40
2.5054778761102368
10
353.00000093877316
20
87.090098272668826
30
0
10
353.00000093877316
20
89.154968370669991
30
0
10
352.59801652990575
20
91.200227543325596
30
0
10
351.03486406694861
20
95.023200001515164
30
0
10
349.88837899107966
20
96.764528826726746
30
0
10
346.9927521781625
20
99.712922678605764
30
0
10
345.27063356244321
20
100.89144213549325
30
0
10
342.38162056468155
20
102.13288043446045
30
0
10
341.35122272011995
20
102.45656571294506
30
0
10
339.24120406911231
20
102.89065355991414
30
0
10
338.16703993344299
20
103.00000084936616
30
0
10
337.09009836207571
20
103.00000084936616
30
0
0
LINE
5
140
100
AcDbEntity
8
0
100
AcDbLine
10
353.00000093877316
20
86.677670379029905
30
0
11
353.00000093877316
21
87.090098272668826
31
0
0
SPLINE
5
141
100
AcDbEntity
8
0
100
AcDbSpline
70
0
71
3
72
16
73
12
74
0
42
0.000000001
43
0.0000000001
44
0.0000000001
40
0
40
0
40
0
40
0
40
0.6882900326676985
40
0.6882900326676985
40
1.3767338175124373
40
1.3767338175124373
40
2.0657950617161318
40
2.0657950617161318
40
2.424883783000455
40
2.424883783000455
40
2.7838643067892344
40
2.7838643067892344
40
2.7838643067892344
40
2.7838643067892344
10
335.32233140910944
20
69.000000849366103
30
0
10
337.61663151800178
20
69.000000849366103
30
0
10
339.88914170984276
20
69.446650192552823
30
0
10
344.1368888856104
20
71.183486262507358
30
0
10
346.07169869140051
20
72.45735856902914
30
0
10
349.34769186015399
20
75.674721694493627
30
0
10
350.65715792336186
20
77.588186823071197
30
0
10
352.03653381110166
20
80.798201265028126
30
0
10
352.3961841205284
20
81.943087758984703
30
0
10
352.87850395049327
20
84.287552926769138
30
0
10
353.00000093877316
20
85.481068633067281
30
0
10
353.00000093877316
20
86.677670379029905
30
0
0
LINE
5
142
100
AcDbEntity
8
0
100
AcDbLine
10
312.0000009387731
20
69.000000849366103
30
0
11
335.32233140910944
21
69.000000849366103
31
0
0
LINE
5
143
100
AcDbEntity
8
0
100
AcDbLine
10
312.00000093877304
20
25.748738190895217
30
0
11
312.0000009387731
21
69.000000849366103
31
0
0
ARC
5
144
100
AcDbEntity
8
0
100
AcDbCircle
10
292.00000093877304
20
25.748738190895182
30
0
40
20
210
-0
220
0
230
1
100
AcDbArc
50
-90
51
0
0
LWPOLYLINE
5
145
100
AcDbEntity
8
0
100
AcDbPolyline
90
12
70
1
43
0.0
10
156.99999906122696
20
280.96583595917639
10
144.99999906122699
20
280.96583595917639
10
144.99999906122699
20
277.96583595917645
10
156.99999906122696
20
277.96583595917639
10
156.99999906122696
20
271.96583595917639
10
159.99999906122693
20
271.96583595917639
10
159.99999906122693
20
277.96583595917639
10
169.99999938905231
20
277.96583595917639
10
169.99999938905231
20
280.96583595917639
10
159.99999906122693
20
280.96583595917639
10
159.99999906122693
20
287.46805721068887
10
156.99999906122696
20
287.46805721068881
0
LWPOLYLINE
5
146
100
AcDbEntity
8
0
100
AcDbPolyline
90
4
70
1
43
0.0
10
149.99999906122684
20
196.7087577195727
10
155.99999912083146
20
196.7087577195727
10
155.99999912083146
20
199.70875771957267
10
149.99999906122684
20
199.70875771957267
0
LWPOLYLINE
5
147
100
AcDbEntity
8
0
100
AcDbPolyline
90
12
70
1
43
0.0
10
181.99999906122684
20
199.70875771957267
10
176.99999943375585
20
199.70875771957267
10
176.99999943375585
20
196.7087577195727
10
181.99999906122684
20
196.7087577195727
10
181.99999906122684
20
193.90608623825213
10
184.99999906122682
20
193.90608623825216
10
184.99999906122682
20
196.7087577195727
10
190.99999964237213
20
196.7087577195727
10
190.99999964237213
20
199.70875771957267
10
184.99999906122682
20
199.70875771957267
10
184.99999906122682
20
202.4021302478823
10
181.99999906122684
20
202.4021302478823
0
LWPOLYLINE
5
148
100
AcDbEntity
8
0
100
AcDbPolyline
90
12
70
1
43
0.0
10
198.99999906122696
20
277.96583595917645
10
198.99999906122696
20
280.96583595917639
10
186.99999906122699
20
280.96583595917639
10
186.99999906122699
20
287.46805721068887
10
183.99999906122696
20
287.46805721068881
10
183.99999906122696
20
280.96583595917639
10
173.99999938905233
20
280.96583595917639
10
173.99999938905233
20
277.96583595917645
10
183.99999906122696
20
277.96583595917639
10
183.99999906122696
20
271.96583595917639
10
186.99999906122699
20
271.96583595917639
10
186.99999906122699
20
277.96583595917639
0
LWPOLYLINE
5
149
100
AcDbEntity
8
0
100
AcDbPolyline
90
12
70
1
43
0.0
10
122.60721270496896
20
211.79865553337601
10
122.60721270496894
20
202.29865553337589
10
125.60721270496896
20
202.29865553337589
10
125.60721270496896
20
211.79865553337601
10
130.60721270496902
20
211.79865553337601
10
130.60721270496902
20
214.79865553337601
10
125.60721270496896
20
214.79865553337589
10
125.60721270496896
20
224.37467459892784
10
122.60721270496902
20
224.37467459892784
10
122.60721270496896
20
214.79865553337589
10
115.60721270496902
20
214.79865553337589
10
115.60721270496902
20
211.79865553337592
0
LWPOLYLINE
5
150
100
AcDbEntity
8
0
100
AcDbPolyline
90
12
70
1
43
0.0
10
168.99999906122699
20
236.9999991506339
10
168.99999906122699
20
245.03540591489184
10
165.99999906122684
20
245.03540591489184
10
165.99999906122696
20
236.9999991506339
10
159.99999918043611
20
236.9999991506339
10
159.99999918043611
20
233.99999910593024
10
165.99999906122696
20
233.99999910593024
10
165.9999990612269
20
215.41320616471805
10
168.99999906122687
20
215.41320616471805
10
168.99999906122699
20
233.99999910593024
10
173.99999938905233
20
233.99999910593024
10
173.99999938905233
20
236.9999991506339
0
LWPOLYLINE
5
151
100
AcDbEntity
8
0
100
AcDbPolyline
90
12
70
1
43
0.0
10
185.99999906122704
20
233.99999910593024
10
191.99999965727329
20
233.99999910593024
10
191.99999965727329
20
236.9999991506339
10
185.99999906122704
20
236.9999991506339
10
185.99999906122704
20
245.03540591489184
10
182.99999906122682
20
245.03540591489184
10
182.99999906122696
20
236.9999991506339
10
177.99999944865698
20
236.9999991506339
10
177.99999944865698
20
233.99999910593024
10
182.99999906122696
20
233.99999910593024
10
182.99999906122693
20
215.41320616471805
10
185.99999906122687
20
215.41320616471805
0
LWPOLYLINE
5
152
100
AcDbEntity
8
0
100
AcDbPolyline
90
4
70
1
43
0.0
10
200.99999906122713
20
233.99999910593024
10
200.99999906122713
20
236.99999910593024
10
194.99999970197672
20
236.9999991506339
10
194.99999970197672
20
233.99999910593024
0
LWPOLYLINE
5
153
100
AcDbEntity
8
0
100
AcDbPolyline
90
12
70
1
43
0.0
10
164.99999906122682
20
202.4021302478823
10
164.99999906122682
20
199.70875771957267
10
158.99999916553489
20
199.70875771957267
10
158.99999916553492
20
196.7087577195727
10
164.99999906122682
20
196.7087577195727
10
164.99999906122682
20
193.90608623825216
10
167.99999906122679
20
193.90608623825216
10
167.99999906122682
20
196.7087577195727
10
172.99999937415117
20
196.7087577195727
10
172.99999937415117
20
199.70875771957267
10
167.99999906122682
20
199.70875771957267
10
167.99999906122682
20
202.4021302478823
0
CIRCLE
5
154
100
AcDbEntity
8
0
100
AcDbCircle
10
162.99999906122696
20
266.46583595917639
30
0
40
1.5000000000000036
210
0
220
-0
230
1
0
LWPOLYLINE
5
155
100
AcDbEntity
8
0
100
AcDbPolyline
90
4
70
1
43
0.0
10
193.99999968707561
20
196.7087577195727
10
199.99999906122684
20
196.7087577195727
10
199.99999906122684
20
199.70875771957267
10
193.99999968707561
20
199.70875771957267
0
LWPOLYLINE
5
156
100
AcDbEntity
8
0
100
AcDbPolyline
90
4
70
1
43
0.0
10
148.99999906122684
20
161.07841771714536
10
148.99999906122684
20
150.6108240218521
10
151.99999906122682
20
150.6108240218521
10
151.99999906122682
20
161.07841771714536
0
CIRCLE
5
157
100
AcDbEntity
8
0
100
AcDbCircle
10
162.99999906122696
20
251.46583595917636
30
0
40
1.5000000000000036
210
0
220
-0
230
1
0
CIRCLE
5
158
100
AcDbEntity
8
0
100
AcDbCircle
10
146.49999908357873
20
266.46583595917639
30
0
40
1.5000000223517418
210
0
220
-0
230
1
0
LWPOLYLINE
5
159
100
AcDbEntity
8
0
100
AcDbPolyline
90
8
70
1
43
0.0
10
102.60721270496896
20
215.92230936411386
10
102.60721270496896
20
210.7510207681899
10
105.60721270496896
20
210.7510207681899
10
105.60721270496896
20
211.79865553337592
10
112.60721270496902
20
211.79865553337592
10
112.60721270496902
20
214.79865553337601
10
105.60721270496896
20
214.79865553337589
10
105.60721270496896
20
215.92230936411386
0
LWPOLYLINE
5
160
100
AcDbEntity
8
0
100
AcDbPolyline
90
4
70
1
43
0.0
10
150.99999906122696
20
236.9999991506339
10
150.99999906122696
20
233.99999910593024
10
156.99999913573262
20
233.99999910593024
10
156.99999913573262
20
236.9999991506339
0
LWPOLYLINE
5
161
100
AcDbEntity
8
0
100
AcDbPolyline
90
4
70
1
43
0.0
10
180.99999906122684
20
161.07841771714536
10
177.99999906122682
20
161.07841771714536
10
177.99999906122682
20
150.6108240218521
10
180.99999906122684
20
150.61082402185212
0
CIRCLE
5
162
100
AcDbEntity
8
0
100
AcDbCircle
10
146.49999906122699
20
251.46583584741762
30
0
40
1.5000000000000036
210
0
220
-0
230
1
0
LWPOLYLINE
5
163
100
AcDbEntity
8
0
100
AcDbPolyline
90
8
70
1
43
0.0
10
142.60721270496896
20
202.29865553337601
10
142.60721270496899
20
224.37467459892787
10
139.60721270496896
20
224.37467459892787
10
139.60721270496896
20
214.79865553337604
10
134.60721270496902
20
214.79865553337601
10
134.60721270496902
20
211.79865553337601
10
139.60721270496896
20
211.79865553337604
10
139.60721270496893
20
202.29865553337601
0
LINE
5
164
100
AcDbEntity
8
0
100
AcDbLine
10
157.99999906122682
20
294.25126180910479
30
0
11
183.99999906122684
21
294.25126180910479
31
0
0
ARC
5
165
100
AcDbEntity
8
0
100
AcDbCircle
10
183.99999906122684
20
274.25126180910479
30
0
40
20
210
0
220
0
230
1
100
AcDbArc
50
0
51
90
0
LINE
5
166
100
AcDbEntity
8
0
100
AcDbLine
10
203.99999906122684
20
274.25126180910479
30
0
11
203.99999906122684
21
239.99999915063393
31
0
0
LINE
5
167
100
AcDbEntity
8
0
100
AcDbLine
10
203.99999906122684
20
239.99999915063393
30
0
11
204.3933973434286
21
239.99999915063393
31
0
0
SPLINE
5
168
100
AcDbEntity
8
0
100
AcDbSpline
70
0
71
3
72
16
73
12
74
0
42
0.000000001
43
0.0000000001
44
0.0000000001
40
0
40
0
40
0
40
0
40
0.41300179821663424
40
0.41300179821663424
40
0.8261602164794456
40
0.8261602164794456
40
1.2390892736637211
40
1.2390892736637211
40
1.4547300807148611
40
1.4547300807148611
40
1.670315971228117
40
1.670315971228117
40
1.670315971228117
40
1.670315971228117
10
204.3933973434286
20
239.99999915063393
30
0
10
205.77007000415068
20
239.99999915063393
30
0
10
207.13366607201789
20
239.73197349097325
30
0
10
209.68265735051719
20
238.68965441588989
30
0
10
210.84375430895133
20
237.92507724017159
30
0
10
212.80814581998277
20
235.99540986435716
30
0
10
213.59298605401759
20
234.84886511449588
30
0
10
214.42088748723083
20
232.92413655139802
30
0
10
214.63705487977492
20
232.23666273622376
30
0
10
214.92696706752929
20
230.82877997675229
30
0
10
214.99999906122684
20
230.11201706787986
30
0
10
214.99999906122684
20
229.39339743283568
30
0
0
LINE
5
169
100
AcDbEntity
8
0
100
AcDbLine
10
214.99999906122682
20
229.39339743283568
30
0
11
214.99999906122684
21
198.14213477436482
31
0
0
SPLINE
5
170
100
AcDbEntity
8
0
100
AcDbSpline
70
0
71
3
72
16
73
12
74
0
42
0.000000001
43
0.0000000001
44
0.0000000001
40
0
40
0
40
0
40
0
40
0.55066906428928619
40
0.55066906428928619
40
1.1015469553062984
40
1.1015469553062984
40
1.6521190315521987
40
1.6521190315521987
40
1.9396401076201613
40
1.9396401076201613
40
2.2270879616375958
40
2.2270879616375958
40
2.2270879616375958
40
2.2270879616375958
10
214.99999906122684
20
198.14213477436482
30
0
10
214.99999906122684
20
196.30657122673387
30
0
10
214.64263151501217
20
194.48844313624332
30
0
10
213.25287274823299
20
191.08978809824336
30
0
10
212.23343651394163
20
189.54165882033178
30
0
10
209.66054667952159
20
186.92247013895684
30
0
10
208.13182034637268
20
185.87601649357742
30
0
10
205.56551559557522
20
184.77214791596066
30
0
10
204.64888384201038
20
184.48392472590226
30
0
10
202.77170682938322
20
184.09737514223042
30
0
10
201.81602295088732
20
183.9999991506339
30
0
10
200.85786343749587
20
183.9999991506339
30
0
0
LINE
5
171
100
AcDbEntity
8
0
100
AcDbLine
10
200.85786343749587
20
183.99999915063393
30
0
11
199.99999906122682
21
183.9999991506339
31
0
0
LINE
5
172
100
AcDbEntity
8
0
100
AcDbLine
10
199.99999906122682
20
183.9999991506339
30
0
11
199.99999906122682
21
155.60660086843211
31
0
0
SPLINE
5
173
100
AcDbEntity
8
0
100
AcDbSpline
70
0
71
3
72
16
73
12
74
0
42
0.000000001
43
0.0000000001
44
0.0000000001
40
0
40
0
40
0
40
0
40
0.41300179821688482
40
0.41300179821688482
40
0.8261602164796219
40
0.8261602164796219
40
1.2390892736638837
40
1.2390892736638837
40
1.4547300807149499
40
1.4547300807149499
40
1.6703159712280802
40
1.6703159712280802
40
1.6703159712280802
40
1.6703159712280802
10
199.99999906122682
20
155.60660086843211
30
0
10
199.99999906122682
20
154.22992820770918
30
0
10
199.73197340156588
20
152.86633213984143
30
0
10
198.68965432648173
20
150.31734086134173
30
0
10
197.9250771507634
20
149.1562439029079
30
0
10
195.99540977494885
20
147.19185239187703
30
0
10
194.84886502508746
20
146.40701215784242
30
0
10
192.92413646198975
20
145.57911072462954
30
0
10
192.23666264681572
20
145.36294333208545
30
0
10
190.82877988734487
20
145.07303114433137
30
0
10
190.11201697847238
20
144.99999915063387
30
0
10
189.3933973434286
20
144.99999915063387
30
0
0
LINE
5
174
100
AcDbEntity
8
0
100
AcDbLine
10
141.60660077902503
20
144.99999915063387
30
0
11
189.3933973434286
21
144.99999915063387
31
0
0
SPLINE
5
175
100
AcDbEntity
8
0
100
AcDbSpline
70
0
71
3
72
16
73
12
74
0
42
0.000000001
43
0.0000000001
44
0.0000000001
40
0
40
0
40
0
40
0
40
0.412974019601686
40
0.412974019601686
40
0.8260402905086266
40
0.8260402905086266
40
1.2394770370307515
40
1.2394770370307515
40
1.4549302698008686
40
1.4549302698008686
40
1.6703185840736705
40
1.6703185840736705
40
1.6703185840736705
40
1.6703185840736705
10
130.99999906122679
20
155.60660086843211
30
0
10
130.99999906122679
20
154.23002080309314
30
0
10
131.26798866713986
20
152.86651468798638
30
0
10
132.31009030911625
20
150.31786638252311
30
0
10
133.07441369303052
20
149.1569804990495
30
0
10
135.00483156831118
20
147.19138459779919
30
0
10
136.15291064545823
20
146.40570495987572
30
0
10
138.07891931063142
20
145.57807942723426
30
0
10
138.765851207004
20
145.36228924157913
30
0
10
140.17253030767168
20
145.07289734360143
30
0
10
140.88863973144902
20
144.99999915063387
30
0
10
141.60660077902503
20
144.99999915063387
30
0
0
LINE
5
176
100
AcDbEntity
8
0
100
AcDbLine
10
130.99999906122679
20
196.99999915063387
30
0
11
130.99999906122679
21
155.60660086843211
31
0
0
LINE
5
177
100
AcDbEntity
8
0
100
AcDbLine
10
112.90990163792416
20
196.99999915063387
30
0
11
130.99999906122679
21
196.99999915063387
31
0
0
SPLINE
5
178
100
AcDbEntity
8
0
100
AcDbSpline
70
0
71
3
72
16
73
12
74
0
42
0.000000001
43
0.0000000001
44
0.0000000001
40
0
40
0
40
0
40
0
40
0.6194610294003442
40
0.6194610294003442
40
1.2390604357606061
40
1.2390604357606061
40
1.8592155555439041
40
1.8592155555439041
40
2.1823954047000722
40
2.1823954047000722
40
2.5054778761102368
40
2.5054778761102368
40
2.5054778761102368
40
2.5054778761102368
10
96.999999061226788
20
212.9099017273312
30
0
10
96.999999061226788
20
210.84503162933004
30
0
10
97.401983470094166
20
208.79977245667445
30
0
10
98.9651359330513
20
204.97679999848486
30
0
10
100.11162100892031
20
203.23547117327331
30
0
10
103.00724782183744
20
200.28707732139426
30
0
10
104.72936643755673
20
199.10855786450679
30
0
10
107.61837943531833
20
197.86711956553958
30
0
10
108.64877727987995
20
197.54343428705496
30
0
10
110.75879593088764
20
197.10934644008589
30
0
10
111.83296006655695
20
196.99999915063387
30
0
10
112.90990163792416
20
196.99999915063387
30
0
0
LINE
5
179
100
AcDbEntity
8
0
100
AcDbLine
10
96.999999061226788
20
213.32232962097012
30
0
11
96.999999061226788
21
212.9099017273312
31
0
0
SPLINE
5
180
100
AcDbEntity
8
0
100
AcDbSpline
70
0
71
3
72
16
73
12
74
0
42
0.000000001
43
0.0000000001
44
0.0000000001
40
0
40
0
40
0
40
0
40
0.6882900326676985
40
0.6882900326676985
40
1.3767338175124373
40
1.3767338175124373
40
2.0657950617161318
40
2.0657950617161318
40
2.424883783000455
40
2.424883783000455
40
2.7838643067892344
40
2.7838643067892344
40
2.7838643067892344
40
2.7838643067892344
10
114.67766859089051
20
230.99999915063393
30
0
10
112.38336848199819
20
230.99999915063393
30
0
10
110.11085829015724
20
230.5533498074472
30
0
10
105.86311111438957
20
228.81651373749267
30
0
10
103.92830130859943
20
227.54264143097089
30
0
10
100.65230813984587
20
224.3252783055064
30
0
10
99.342842076638078
20
222.41181317692883
30
0
10
97.963466188898266
20
219.2017987349719
30
0
10
97.603815879471526
20
218.05691224101534
30
0
10
97.121496049506661
20
215.71244707323089
30
0
10
96.999999061226788
20
214.51893136693275
30
0
10
96.999999061226788
20
213.32232962097012
30
0
0
LINE
5
181
100
AcDbEntity
8
0
100
AcDbLine
10
137.99999906122682
20
230.99999915063393
30
0
11
114.67766859089051
21
230.99999915063393
31
0
0
LINE
5
182
100
AcDbEntity
8
0
100
AcDbLine
10
137.99999906122682
20
274.25126180910479
30
0
11
137.99999906122682
21
230.99999915063393
31
0
0
ARC
5
183
100
AcDbEntity
8
0
100
AcDbCircle
10
157.99999906122682
20
274.25126180910479
30
0
40
20
210
0
220
-0
230
1
100
AcDbArc
50
90
51
180
0
LWPOLYLINE
5
184
100
AcDbEntity
8
0
100
AcDbPolyline
90
17
70
1
43
0.0
10
134.99999906122679
20
236.99999915063387
10
134.99999906122679
20
243.50222040214629
10
124.9999989122152
20
243.50222040214629
10
124.9999989122152
20
246.50222040214629
10
134.99999906122679
20
246.50222040214629
10
134.99999906122679
20
252.50222040214638
10
131.99999906122682
20
252.50222040214638
10
131.99999906122682
20
255.50222040214638
10
81.761110721144945
20
255.50222040214649
10
79.648019412441414
20
250.97068146696319
10
88.711097282807913
20
246.74449884955609
10
87.4432424975858
20
244.02557548844615
10
78.380164627219273
20
248.25175810585307
10
76.267073318515884
20
243.72021917067002
10
97.112152420358768
20
233.99999915063381
10
131.99999906122682
20
233.99999915063381
10
131.99999906122682
20
236.99999915063387
0
LWPOLYLINE
5
185
100
AcDbEntity
8
0
100
AcDbPolyline
90
17
70
1
43
0.0
10
134.99999876320356
20
267.50222040214635
10
134.99999906122679
20
261.50222040214635
10
131.99999906122682
20
261.50222040214635
10
131.99999906122682
20
258.50222040214635
10
81.761110721144959
20
258.50222040214624
10
79.648019412441371
20
263.03375933732968
10
88.71109728280797
20
267.25994195473646
10
87.443242497585899
20
269.97886531584646
10
78.380164627219358
20
265.75268269843946
10
76.267073318515898
20
270.28422163362268
10
97.112152420358711
20
280.00444165365883
10
131.99999906122679
20
280.00444165365883
10
131.99999906122682
20
277.00444165365883
10
134.99999906122679
20
277.00444165365883
10
134.99999876320356
20
270.50222040214641
10
124.99999876320358
20
270.50222040214641
10
124.99999876320358
20
267.50222040214635
0
LWPOLYLINE
5
186
100
AcDbEntity
8
0
100
AcDbPolyline
90
13
70
1
43
0.0
10
97.088157926865293
20
293.60809973097906
10
72.247914222195718
20
293.60809973097906
10
72.24791422219576
20
290.60809973097906
10
69.247914222195732
20
290.60809973097912
10
69.247914222195732
20
280.14050603568586
10
72.247914222195718
20
280.14050603568586
10
72.247914222195746
20
277.14050603568586
10
82.404019543613231
20
277.14050603568586
10
94.186020775089659
20
282.63454343831495
10
92.918165989867575
20
285.35346679942495
10
89.29293484172095
20
283.66299375246217
10
88.025080056498865
20
286.38191711357206
10
97.088157926865378
20
290.60809973097912
0
LWPOLYLINE
5
187
100
AcDbEntity
8
0
100
AcDbPolyline
90
17
70
1
43
0.0
10
35.534880903588537
20
274.99210759292731
10
35.534880903627801
20
277.99211844758878
10
32.534880903627752
20
277.99211844758878
10
32.534880903627752
20
280.68549097589835
10
40.534880903621755
20
280.68549097589835
10
40.534880903627723
20
283.68549097589835
10
32.534880903627752
20
283.68549097589823
10
32.534880903627752
20
286.48816245721895
10
35.534880903627801
20
286.48816245721895
10
35.534880903627723
20
290.75599915063373
10
64.229999061226778
20
290.75599915063378
10
65.497853846448862
20
288.03707578952401
10
60.060007124229003
20
285.50136621907973
10
61.327861909451101
20
282.78244285796973
10
64.046785270561031
20
284.05029764319187
10
65.314640055783187
20
281.33137428208192
10
51.720023250233368
20
274.99210035597139
0
LWPOLYLINE
5
188
100
AcDbEntity
8
0
100
AcDbPolyline
90
13
70
1
43
0.0
10
44.271908715689136
20
259.99999915063381
10
44.271908715689136
20
256.99999915063381
10
69.112152420358782
20
256.99999915063381
10
69.112152420358782
20
259.99999915063381
10
72.112152420358768
20
259.99999915063381
10
72.112152420358768
20
270.46759284592713
10
69.112152375655242
20
270.46759284592713
10
69.11215237565527
20
273.46759284592707
10
58.956047098941262
20
273.46759284592707
10
47.174045867464855
20
267.97355544329798
10
48.44190065268694
20
265.25463208218804
10
52.067131800833515
20
266.94510512915082
10
53.334986586055592
20
264.22618176804087
0
LWPOLYLINE
5
189
100
AcDbEntity
8
0
100
AcDbPolyline
90
17
70
1
43
0.0
10
22.751383074638724
20
238.31596547749686
10
22.751383074638689
20
241.31596547749689
10
19.751372219977195
20
241.31596547745758
10
19.751364983021162
20
257.50110782410246
10
26.090638909131592
20
271.09572462965235
10
28.809562270241571
20
269.8278698444301
10
27.541707485019515
20
267.10894648332032
10
30.260630846129459
20
265.84109169809813
10
32.796340416573557
20
271.27893842031801
10
35.515263777683643
20
270.01108363509604
10
35.515263777683643
20
241.31596547749695
10
31.247427084268821
20
241.31596547749689
10
31.247427084268892
20
238.31596547749686
10
28.444755602948241
20
238.31596547749686
10
28.444755602948213
20
246.31596547749092
10
25.444755602948234
20
246.31596547749695
10
25.44475560294827
20
238.31596547749686
0
LWPOLYLINE
5
190
100
AcDbEntity
8
0
100
AcDbPolyline
90
4
70
1
43
0.0
10
55.271908715689086
20
235.99999915063387
10
55.271908715689094
20
249.99999915063384
10
69.271908715689108
20
249.99999915063384
10
69.271908715689065
20
235.99999915063387
0
LWPOLYLINE
5
191
100
AcDbEntity
8
0
100
AcDbPolyline
90
4
70
1
43
0.0
10
88.271908715689023
20
230.99999915063376
10
88.271908715689023
20
216.99999915063384
10
74.271908715689065
20
216.99999915063384
10
74.271908715689051
20
230.99999915063387
0
LWPOLYLINE
5
192
100
AcDbEntity
8
0
100
AcDbPolyline
90
4
70
1
43
0.0
10
59.319362264838219
20
208.0664652191474
10
62.038285625948077
20
209.33432000436943
10
67.954941290317862
20
196.64601098585626
10
65.236017929207875
20
195.37815620063424
0
LWPOLYLINE
5
193
100
AcDbEntity
8
0
100
AcDbPolyline
90
4
70
1
43
0.0
10
69.271908715689079
20
216.99999915063384
10
55.271908715689079
20
216.99999915063384
10
55.271908715689108
20
230.9999991506339
10
69.271908715689094
20
230.99999915063387
0
LWPOLYLINE
5
194
100
AcDbEntity
8
0
100
AcDbPolyline
90
4
70
1
43
0.0
10
66.73709994343271
20
187.60721279437615
10
69.737099943432725
20
187.60721279437598
10
69.737099943432725
20
173.60721279437598
10
66.737099943432682
20
173.60721279437612
0
LWPOLYLINE
5
195
100
AcDbEntity
8
0
100
AcDbPolyline
90
4
70
1
43
0.0
10
50.271908715689058
20
216.99999915063387
10
36.271908715689079
20
216.99999915063393
10
36.271908715689072
20
230.9999991506339
10
50.271908715689051
20
230.99999915063387
0
LWPOLYLINE
5
196
100
AcDbEntity
8
0
100
AcDbPolyline
90
4
70
1
43
0.0
10
65.630908002282695
20
166.33368654952451
10
68.449985864640439
20
165.30762611954745
10
63.66170385808104
20
152.15192942854483
10
60.842625995723331
20
153.17798985852178
0
LWPOLYLINE
5
197
100
AcDbEntity
8
0
100
AcDbPolyline
90
30
70
1
43
0.0
10
77.737099943432682
20
166.16095093114222
10
77.737099943432696
20
170.60721279437593
10
72.737099943432696
20
170.60721279437598
10
72.737099943432739
20
190.60721279437598
10
71.519101174909196
20
196.10125019700507
10
69.737099943432895
20
207.60721279437601
10
69.737099943432952
20
214.00021279437578
10
72.278573418892819
20
214.00021279437578
10
72.278573418892847
20
213.99999915063387
10
92.271908715689008
20
213.99999915063381
10
92.271908715689108
20
233.99999915063381
10
72.271908715689094
20
233.99999915063387
10
72.271908715689094
20
253.99999915063387
10
52.271908715689136
20
253.99999915063387
10
52.271908715689079
20
233.99999915063387
10
32.271908715689079
20
233.99999915063387
10
32.271908715689079
20
213.99999915063387
10
52.32895136770594
20
213.99999915063387
10
61.222796075539954
20
194.92708762474638
10
58.50387271443001
20
193.65923283952426
10
58.737099943432725
20
191.60721279437595
10
61.737099943432767
20
191.60721279437595
10
61.737099943432725
20
171.60721279437612
10
58.737099943432696
20
171.60721279437612
10
58.656968432259717
20
170.15276441188229
10
61.476046294617383
20
169.12670398190505
10
54.635643428104018
20
150.33285156618712
10
58.790505135769322
20
147.53983413380638
10
64.428660860484754
20
145.48771327385236
10
71.953104013649479
20
166.16095093114225
0
LWPOLYLINE
5
198
100
AcDbEntity
8
0
100
AcDbPolyline
90
4
70
1
43
0.0
10
33.893391587689045
20
189.23690171164921
10
33.89339158768901
20
175.23690171164918
10
30.893391587689052
20
175.23690171164918
10
30.893391587688978
20
189.23690171164921
0
LWPOLYLINE
5
199
100
AcDbEntity
8
0
100
AcDbPolyline
90
4
70
1
43
0.0
10
26.194577270204363
20
210.96400892164266
10
32.111232934574112
20
198.27569990312952
10
29.392309573464203
20
197.00784511790746
10
23.475653909094383
20
209.69615413642049
0
LWPOLYLINE
5
200
100
AcDbEntity
8
0
100
AcDbPolyline
90
4
70
1
43
0.0
10
27.817995502337443
20
153.781618345818
10
24.998917639979705
20
154.80767877579507
10
29.787199646538987
20
167.96337546679766
10
32.606277508896724
20
166.93731503682073
0
LWPOLYLINE
5
201
100
AcDbEntity
8
0
100
AcDbPolyline
90
21
70
1
43
0.0
10
23.893391587688999
20
202.23690171164918
10
23.893391587689003
20
182.23690171164918
10
20.893391587689052
20
182.23690171164918
10
20.455569414180104
20
179.6029271154336
10
23.053645625533392
20
178.10292711543366
10
13.049683231945448
20
160.77555597273104
10
22.604776636700056
20
148.22983043029367
10
28.242932361415516
20
146.17770957033963
10
36.10939565790585
20
167.79063984841557
10
41.89339158768901
20
167.79063984841554
10
41.893391587688981
20
172.23690171164918
10
36.893391587689052
20
172.23690171164918
10
36.893391587689045
20
192.23690171164918
10
41.893391587689052
20
192.23690171164918
10
41.893391587689081
20
197.73093911427827
10
35.675392819165445
20
197.73093911427827
10
27.223027584351506
20
215.85709485501138
10
13.053645625533266
20
223.6913843835535
10
23.053645625533406
20
206.37087630786482
10
20.455569414180104
20
204.87087630786476
10
20.893391587689045
20
202.23690171164918
0
LWPOLYLINE
5
202
100
AcDbEntity
8
0
100
AcDbPolyline
90
25
70
1
43
0.0
10
16.446101301872925
20
131.22196858062341
10
21.88394802409271
20
133.75767815106784
10
23.151802809314937
20
131.03875478995798
10
20.432879448204851
20
129.77090000473581
10
21.700734233426928
20
127.05197664362586
10
28.951196529720153
20
130.43292273755139
10
34.867852194089799
20
117.74461371903826
10
27.617389897796663
20
114.36366762511271
10
28.885244683018712
20
111.64474426400277
10
31.60416804412862
20
112.91259904922482
10
32.872022829350712
20
110.19367568811488
10
27.434176107130853
20
107.65796611767072
10
28.702030892352902
20
104.93904275656078
10
58.599051988472787
20
104.93904275656065
10
58.599051988472837
20
109.20689754178262
10
61.59905198847283
20
109.20689754178261
10
61.599051988472951
20
127.79369048299498
10
51.599051690449571
20
127.793690482995
10
51.599051690449571
20
130.79369052769849
10
61.59905198847283
20
130.7936905276984
10
61.599051988473022
20
138.82909729195643
10
58.599051988473015
20
138.82909729195643
10
58.599051988473072
20
141.54802065306637
10
31.491786683310117
20
141.54802065306657
10
15.178246516650733
20
133.9408919417333
0
LWPOLYLINE
5
203
100
AcDbEntity
8
0
100
AcDbPolyline
90
25
70
1
43
0.0
10
58.599051988474613
20
99.220119395450652
10
58.599051988474613
20
101.93904275656055
10
31.49178668331168
20
101.93904275656055
10
15.178246516652367
20
94.331914045227222
10
16.446101301874599
20
91.612990684117278
10
21.88394802409438
20
94.148700254561803
10
23.151802809316571
20
91.429776893451887
10
20.432879448206521
20
90.161922108229717
10
21.700734233428641
20
87.442998747119816
10
28.951196529721813
20
90.823944841045375
10
34.867852194091611
20
78.135635822532265
10
27.617389897798439
20
74.754689728606706
10
28.88524468302057
20
72.035766367496706
10
31.604168044130468
20
73.303621152718804
10
32.872022829352581
20
70.584697791608875
10
27.434176107132696
20
68.048988221164748
10
28.702030892354781
20
65.330064860054733
10
58.599051988474613
20
65.33006486005479
10
58.599051988474606
20
69.597919645276846
10
61.599051988474642
20
69.597919645276846
10
61.599051988474649
20
88.184712586489098
10
51.599051690451148
20
88.184712586489098
10
51.599051690451141
20
91.184712631192596
10
61.599051988474642
20
91.184712631192596
10
61.599051988474649
20
99.220119395450652
0
LWPOLYLINE
5
204
100
AcDbEntity
8
0
100
AcDbPolyline
90
4
70
1
43
0.0
10
30.667908183684041
20
55.645872160076706
10
16.667908183684052
20
55.645872160076706
10
16.667908183684052
20
41.645872160076678
10
30.667908183684041
20
41.645872160076678
0
LWPOLYLINE
5
205
100
AcDbEntity
8
0
100
AcDbPolyline
90
8
70
1
43
0.0
10
13.667908183684048
20
58.645872160076742
10
13.667908183684048
20
38.645872160076735
10
16.667908183684052
20
38.645872160076735
10
16.667908183684052
20
35.645872160076664
10
30.667908183684077
20
35.645872160076664
10
30.667908183684077
20
38.645872160076735
10
33.667908183684048
20
38.645872160076671
10
33.667908183684048
20
58.645872160076742
0
LWPOLYLINE
5
206
100
AcDbEntity
8
0
100
AcDbPolyline
90
4
70
1
43
0.0
10
41.999999061226816
20
40.999999999999865
10
55.999999061226745
20
40.999999999999865
10
55.999999061226795
20
54.999999999999893
10
41.999999061226816
20
54.999999999999893
0
LWPOLYLINE
5
207
100
AcDbEntity
8
0
100
AcDbPolyline
90
8
70
1
43
0.0
10
41.999999061226745
20
37.999999999999865
10
41.999999061226745
20
34.999999999999858
10
55.999999061226788
20
34.999999999999858
10
55.999999061226802
20
37.999999999999865
10
58.999999061226809
20
37.999999999999936
10
58.999999061226795
20
57.999999999999865
10
38.999999061226788
20
57.999999999999936
10
38.999999061226788
20
37.999999999999936
0
LWPOLYLINE
5
208
100
AcDbEntity
8
0
100
AcDbPolyline
90
24
70
1
43
0.0
10
76.599051943771272
20
64.597919645276846
10
79.59905198847467
20
64.597919645276846
10
79.599051988474741
20
49.597919645276846
10
76.599051988474656
20
49.597919645276846
10
76.599051988474699
20
45.59791964527686
10
79.59905198847467
20
45.59791964527686
10
79.59905198847467
20
37.597919645276868
10
76.599051988474699
20
37.597919645276868
10
76.599051988474699
20
34.59791964527686
10
67.59905198847467
20
34.59791964527686
10
67.599051988474713
20
37.597919645276782
10
73.599051988474656
20
37.597919645276782
10
73.599051988474727
20
40.597919645276789
10
67.59905198847467
20
40.597919645276789
10
67.599051988474642
20
54.597919645276846
10
73.599051988474613
20
54.597919645276846
10
73.599051988474656
20
57.597919645276853
10
67.599051988474599
20
57.597919645276832
10
67.599051988474642
20
77.597919645276846
10
73.599051988474756
20
77.597919645276846
10
73.599051988474685
20
74.597919645276875
10
79.599051988474685
20
74.597919645276875
10
79.599051988474741
20
67.597919645276846
10
76.599051943771258
20
67.597919645276846
0
LWPOLYLINE
5
209
100
AcDbEntity
8
0
100
AcDbPolyline
90
20
70
1
43
0.0
10
81.759884759923267
20
101.3999991506337
10
81.75988475992321
20
91.399999001622092
10
84.75988480462668
20
91.39999900162212
10
84.759884804626694
20
101.3999991506337
10
108.75988475992327
20
101.39999915063368
10
108.75988475992321
20
91.399999150633647
10
111.75988475992321
20
91.399999150633647
10
111.75988475992327
20
101.39999915063368
10
116.75988475992327
20
101.39999915063368
10
126.75988475992324
20
84.399998852610395
10
123.75988475992321
20
84.399998852610395
10
123.75988475992321
20
81.399998852610395
10
98.759885087748557
20
81.399998852610494
10
98.759885087748557
20
84.399998584389536
10
94.759885087748557
20
84.399998584389536
10
94.759885087748557
20
81.399998852610494
10
69.759884759923196
20
81.399998852610508
10
69.759884759923224
20
84.399998852610622
10
66.759884759923168
20
84.399998852610622
10
76.759884759923239
20
101.3999991506337
0
LWPOLYLINE
5
210
100
AcDbEntity
8
0
100
AcDbPolyline
90
26
70
1
43
0.0
10
104.99999944865681
20
190.99999910592999
10
104.99999944865671
20
193.99999915063347
10
118.99999965727297
20
193.99999915063361
10
118.99999965727307
20
190.9999991059303
10
121.99999970197652
20
190.99999910593039
10
121.99999970197646
20
193.99999915063381
10
127.99999906122682
20
193.99999915063376
10
127.9999990612269
20
190.9999991059305
10
117.99999964237227
20
173.99999885261056
10
112.99999906122704
20
173.9999991506335
10
112.9999990612268
20
183.9999991506335
10
109.9999990612269
20
183.99999915063344
10
109.99999906122703
20
173.99999915063347
10
95.99999906122703
20
173.99999915063322
10
95.999999061226788
20
183.99999915063322
10
92.999999061226859
20
183.99999915063316
10
92.999999061227001
20
173.99999915063316
10
87.999999195337438
20
173.99999885260982
10
77.999999061226788
20
190.99999910592939
10
77.999999061226703
20
193.99999915063287
10
83.999999135732324
20
193.9999991506329
10
83.999999135732395
20
190.99999910592945
10
86.999999180435893
20
190.99999910592959
10
86.999999180435807
20
193.99999915063304
10
100.99999938905206
20
193.99999915063324
10
100.99999938905216
20
190.99999910592987
0
LWPOLYLINE
5
211
100
AcDbEntity
8
0
100
AcDbPolyline
90
26
70
1
43
0.0
10
100.99999868869796
20
158.99999919533673
10
104.99999874830264
20
158.99999919533673
10
104.9999987483026
20
155.99999915062998
10
118.99999895691889
20
155.99999915063319
10
118.99999895691889
20
158.9999991953367
10
121.99999900162237
20
158.9999991953367
10
121.99999900162237
20
155.99999915063319
10
127.99999906122702
20
155.99999915062716
10
127.99999906122702
20
158.9999991953367
10
117.99999894201778
20
170.99999915063313
10
112.99999906122707
20
170.99999915063319
10
112.99999906122702
20
163.9999991506333
10
109.99999906122702
20
163.99999915063319
10
109.99999906122702
20
170.99999915063319
10
95.999999061227058
20
170.99999915063322
10
95.99999906122703
20
163.9999991506333
10
92.999999061227001
20
163.99999915063322
10
92.999999061227044
20
170.99999915063322
10
87.999998494982918
20
170.9999991506333
10
77.999999061226958
20
158.99999919533678
10
77.999999061226958
20
155.9999991506333
10
83.999998435378245
20
155.9999991506333
10
83.999998435378245
20
158.99999919533673
10
86.9999984800817
20
158.99999919533673
10
86.999998480081729
20
155.9999991506333
10
100.99999868869796
20
155.99999915063049
0
LWPOLYLINE
5
212
100
AcDbEntity
8
0
100
AcDbPolyline
90
4
70
1
43
0.0
10
135.99999906122684
20
101.99999915063387
10
149.99999906122684
20
101.99999915063387
10
149.99999906122684
20
115.99999915063385
10
135.99999906122684
20
115.99999915063385
0
LWPOLYLINE
5
213
100
AcDbEntity
8
0
100
AcDbPolyline
90
4
70
1
43
0.0
10
149.99999906122684
20
121.99999915063387
10
149.99999906122684
20
135.9999991506339
10
135.99999906122684
20
135.9999991506339
10
135.99999906122684
20
121.99999915063387
0
LWPOLYLINE
5
214
100
AcDbEntity
8
0
100
AcDbPolyline
90
8
70
1
43
0.0
10
152.99999906122687
20
98.999999150633883
10
132.99999906122684
20
98.999999150633883
10
132.99999906122684
20
138.9999991506339
10
135.99999906122684
20
138.9999991506339
10
135.99999906122684
20
141.9999991506339
10
149.99999906122684
20
141.9999991506339
10
149.99999906122684
20
138.9999991506339
10
152.99999906122687
20
138.9999991506339
0
LWPOLYLINE
5
215
100
AcDbEntity
8
0
100
AcDbPolyline
90
4
70
1
43
0.0
10
158.99999906122684
20
115.99999915063385
10
158.99999906122684
20
101.99999915063387
10
172.99999906122684
20
101.99999915063387
10
172.99999906122684
20
115.99999915063387
0
LWPOLYLINE
5
216
100
AcDbEntity
8
0
100
AcDbPolyline
90
4
70
1
43
0.0
10
158.99999906122684
20
135.99999915063387
10
158.99999906122684
20
121.99999915063387
10
172.99999906122684
20
121.99999915063387
10
172.99999906122684
20
135.99999915063387
0
LWPOLYLINE
5
217
100
AcDbEntity
8
0
100
AcDbPolyline
90
8
70
1
43
0.0
10
155.99999906122684
20
138.9999991506339
10
155.99999906122684
20
98.999999150633869
10
175.99999906122684
20
98.999999150633883
10
175.99999906122684
20
138.99999915063393
10
172.9999994635582
20
138.99999915063393
10
172.9999994635582
20
141.9999991506339
10
158.99999906122682
20
141.99999915063384
10
158.99999906122684
20
138.9999991506339
0
LWPOLYLINE
5
218
100
AcDbEntity
8
0
100
AcDbPolyline
90
4
70
1
43
0.0
10
195.99999906122684
20
101.99999915063387
10
195.99999906122684
20
115.99999915063387
10
181.99999906122682
20
115.99999915063387
10
181.99999906122679
20
101.99999915063387
0
LWPOLYLINE
5
219
100
AcDbEntity
8
0
100
AcDbPolyline
90
4
70
1
43
0.0
10
181.99999906122682
20
135.99999915063387
10
181.99999906122682
20
121.99999915063387
10
195.99999906122684
20
121.99999915063387
10
195.99999906122684
20
135.99999915063378
0
LWPOLYLINE
5
220
100
AcDbEntity
8
0
100
AcDbPolyline
90
8
70
1
43
0.0
10
181.99999906122684
20
141.9999991506339
10
195.99999906122687
20
141.99999915063387
10
195.99999906122687
20
138.99999915063387
10
198.99999906122684
20
138.99999915063378
10
198.99999906122684
20
98.999999150633869
10
178.99999906122679
20
98.999999150633883
10
178.99999906122679
20
138.99999915063393
10
181.99999906122684
20
138.99999915063393
0
LWPOLYLINE
5
221
100
AcDbEntity
8
0
100
AcDbPolyline
90
4
70
1
43
0.0
10
213.38728341316039
20
46.13486412361592
10
210.5682055508027
20
47.160924553592913
10
215.35648755736193
20
60.316621244595652
10
218.17556541971965
20
59.290560814618658
0
LWPOLYLINE
5
222
100
AcDbEntity
8
0
100
AcDbPolyline
90
4
70
1
43
0.0
10
216.4626794985119
20
67.590147489447105
10
216.46267949851179
20
81.590147489447133
10
219.46267949851179
20
81.590147489447162
10
219.4626794985119
20
67.590147489447247
0
LWPOLYLINE
5
223
100
AcDbEntity
8
0
100
AcDbPolyline
90
4
70
1
43
0.0
10
217.68052084539679
20
90.628945680927472
10
214.96159748428681
20
89.36109089570536
10
209.04494181991697
20
102.04939991421845
10
211.76386518102692
20
103.3172546994405
0
LWPOLYLINE
5
224
100
AcDbEntity
8
0
100
AcDbPolyline
90
21
70
1
43
0.0
10
204.3612229831835
20
47.315786261258168
10
208.17406454752319
20
40.583076208091562
10
213.81222027223862
20
38.530955348137539
10
221.6786835687289
20
60.143885626213489
10
227.46267949851114
20
60.143885626213525
10
227.46267949851108
20
64.590147489447276
10
222.46267949851199
20
64.590147489447133
10
222.46267949851187
20
84.590147489447133
10
227.46267949851185
20
84.590147489447133
10
227.46267949851176
20
90.084184892076351
10
221.24468072998832
20
90.08418489207628
10
211.52446070995208
20
110.92926399391914
10
202.49708781018811
20
110.03386753794942
10
210.94837563061901
20
91.910022319817529
10
208.22945226950907
20
90.64216753459533
10
208.46267949851182
20
88.590147489447091
10
211.46267949851182
20
88.590147489447133
10
211.46267949851199
20
68.59014748944719
10
208.46267949851193
20
68.59014748944719
10
208.38254798733891
20
67.135699106953382
10
211.20162584969671
20
66.109638676976317
0
LWPOLYLINE
5
225
100
AcDbEntity
8
0
100
AcDbPolyline
90
4
70
1
43
0.0
10
217.97796209884635
20
9.0642472034555865
10
217.97796209884638
20
23.06424720345554
10
203.97796209884638
20
23.064247203455576
10
203.97796209884638
20
9.064247203455583
0
LWPOLYLINE
5
226
100
AcDbEntity
8
0
100
AcDbPolyline
90
8
70
1
43
0.0
10
197.97796209884635
20
23.064247203455572
10
200.97796209884635
20
23.064247203455572
10
200.97796209884635
20
26.064247203455579
10
220.97796209884635
20
26.064247203455579
10
220.97796209884635
20
6.0642472034555794
10
200.97796209884635
20
6.0642472034555439
10
200.97796209884635
20
9.064247203455551
10
197.97796209884635
20
9.0642472034555865
0
LWPOLYLINE
5
227
100
AcDbEntity
8
0
100
AcDbPolyline
90
4
70
1
43
0.0
10
182.1838283368977
20
11.80365239894023
10
182.1838283368977
20
14.803652398940235
10
176.18382833689762
20
14.803652398940235
10
176.18382833689762
20
11.80365239894023
0
LWPOLYLINE
5
228
100
AcDbEntity
8
0
100
AcDbPolyline
90
9
70
1
43
0.0
10
159.03519274561043
20
16.208382868568162
10
140.9090370048774
20
7.756017633754233
10
185.1838283368977
20
7.7560176337542686
10
185.1838283368977
20
10.756017633754238
10
188.1838283368977
20
10.756017633754238
10
188.1838283368977
20
15.927306229678173
10
185.1838283368977
20
15.927306229678173
10
185.1838283368977
20
18.92730622967818
10
157.76733796038835
20
18.92730622967818
0
LWPOLYLINE
5
229
100
AcDbEntity
8
0
100
AcDbPolyline
90
4
70
1
43
0.0
10
135.99999906122687
20
29.999999150633858
10
149.99999906122684
20
29.999999150633858
10
149.99999906122687
20
43.999999150633855
10
135.99999906122687
20
43.99999915063384
0
LWPOLYLINE
5
230
100
AcDbEntity
8
0
100
AcDbPolyline
90
12
70
1
43
0.0
10
149.99999906122684
20
23.999999150633844
10
149.99999906122684
20
26.999999150633851
10
152.99999906122687
20
26.999999150633869
10
152.99999906122687
20
46.999999150633862
10
149.99999906122687
20
46.999999150633862
10
149.99999906122687
20
49.999999150633876
10
135.99999906122687
20
49.999999150633869
10
135.99999906122687
20
46.999999150633862
10
132.99999906122684
20
46.999999150633862
10
132.99999906122684
20
26.999999150633851
10
135.99999906122687
20
26.999999150633851
10
135.99999906122687
20
23.999999150633844
0
LWPOLYLINE
5
231
100
AcDbEntity
8
0
100
AcDbPolyline
90
4
70
1
43
0.0
10
172.99999906122693
20
29.999999150633879
10
172.99999906122684
20
43.999999150633855
10
158.99999906122684
20
43.999999150633855
10
158.99999906122693
20
29.999999150633879
0
LWPOLYLINE
5
232
100
AcDbEntity
8
0
100
AcDbPolyline
90
12
70
1
43
0.0
10
175.99999906122693
20
26.999999150633908
10
172.99999906122693
20
26.999999150633908
10
172.99999906122693
20
23.999999150633865
10
158.99999906122693
20
23.999999150633865
10
158.99999906122693
20
26.999999150633869
10
155.99999906122693
20
26.999999150633869
10
155.99999906122687
20
46.999999150633862
10
158.99999906122684
20
46.999999150633862
10
158.99999906122684
20
49.999999150633876
10
172.99999906122684
20
49.999999150633876
10
172.99999906122684
20
46.999999150633862
10
175.99999906122684
20
46.999999150633862
0
LWPOLYLINE
5
233
100
AcDbEntity
8
0
100
AcDbPolyline
90
4
70
1
43
0.0
10
195.99999906122684
20
29.999999150633879
10
195.99999906122687
20
43.999999150633855
10
181.99999906122682
20
43.999999150633855
10
181.99999906122682
20
29.999999150633879
0
LWPOLYLINE
5
234
100
AcDbEntity
8
0
100
AcDbPolyline
90
12
70
1
43
0.0
10
181.99999906122682
20
49.999999150633876
10
181.99999906122682
20
46.999999150633897
10
178.99999906122684
20
46.999999150633897
10
178.99999906122679
20
26.999999150633869
10
181.99999906122682
20
26.999999150633869
10
181.99999906122682
20
23.999999150633865
10
195.99999906122684
20
23.999999150633865
10
195.99999906122687
20
26.999999150633869
10
198.99999906122684
20
26.999999150633869
10
198.99999906122684
20
46.999999150633862
10
195.99999906122687
20
46.999999150633862
10
195.99999906122687
20
49.999999150633876
0
LWPOLYLINE
5
235
100
AcDbEntity
8
0
100
AcDbPolyline
90
4
70
1
43
0.0
10
149.99999906122684
20
78.999999150633883
10
149.99999906122684
20
92.999999150633869
10
135.99999906122684
20
92.999999150633869
10
135.99999906122687
20
78.999999150633883
0
LWPOLYLINE
5
236
100
AcDbEntity
8
0
100
AcDbPolyline
90
4
70
1
43
0.0
10
149.99999906122684
20
72.999999150633883
10
135.99999906122684
20
72.999999150633883
10
135.99999906122687
20
58.99999915063384
10
149.99999906122684
20
58.999999150633862
0
LWPOLYLINE
5
237
100
AcDbEntity
8
0
100
AcDbPolyline
90
8
70
1
43
0.0
10
149.99999906122684
20
55.999999150633862
10
152.99999906122687
20
55.999999150633862
10
152.99999906122687
20
95.999999150633855
10
132.99999906122684
20
95.999999150633855
10
132.99999906122684
20
55.999999150633847
10
135.99999906122687
20
55.999999150633847
10
135.99999906122687
20
52.999999150633869
10
149.99999906122687
20
52.999999150633883
0
LWPOLYLINE
5
238
100
AcDbEntity
8
0
100
AcDbPolyline
90
8
70
1
43
0.0
10
155.99999906122684
20
55.999999150633883
10
158.99999906122684
20
55.999999150633883
10
158.99999906122687
20
52.999999150633883
10
172.99999906122684
20
52.999999150633883
10
172.99999906122684
20
55.999999150633883
10
175.99999906122684
20
55.999999150633883
10
175.99999906122684
20
95.999999150633869
10
155.99999906122684
20
95.999999150633855
0
LWPOLYLINE
5
239
100
AcDbEntity
8
0
100
AcDbPolyline
90
4
70
1
43
0.0
10
172.99999906122684
20
78.999999150633883
10
172.99999906122684
20
92.999999150633869
10
158.99999906122684
20
92.999999150633869
10
158.99999906122684
20
78.999999150633883
0
LWPOLYLINE
5
240
100
AcDbEntity
8
0
100
AcDbPolyline
90
4
70
1
43
0.0
10
172.99999906122684
20
72.999999150633883
10
158.99999906122684
20
72.999999150633883
10
158.99999906122684
20
58.999999150633862
10
172.99999906122684
20
58.999999150633862
0
LWPOLYLINE
5
241
100
AcDbEntity
8
0
100
AcDbPolyline
90
4
70
1
43
0.0
10
181.99999906122682
20
78.999999150633883
10
195.99999906122684
20
78.999999150633883
10
195.99999906122684
20
92.999999150633869
10
181.99999906122682
20
92.999999150633869
0
LWPOLYLINE
5
242
100
AcDbEntity
8
0
100
AcDbPolyline
90
4
70
1
43
0.0
10
181.99999906122682
20
58.999999150633862
10
195.99999906122684
20
58.999999150633862
10
195.99999906122684
20
72.99999915063384
10
181.99999906122682
20
72.99999915063384
0
LWPOLYLINE
5
243
100
AcDbEntity
8
0
100
AcDbPolyline
90
8
70
1
43
0.0
10
178.99999906122679
20
95.999999150633869
10
198.99999906122684
20
95.999999150633869
10
198.99999906122684
20
55.999999150633862
10
195.99999906122684
20
55.999999150633862
10
195.99999906122684
20
52.999999150633883
10
181.99999906122682
20
52.999999150633883
10
181.99999906122682
20
55.999999150633862
10
178.99999906122679
20
55.999999150633862
0
LWPOLYLINE
5
244
100
AcDbEntity
8
0
100
AcDbPolyline
90
17
70
1
43
0.0
10
315.00000123679632
20
32.497779597853658
10
315.0000009387731
20
38.497779597853672
10
318.0000009387731
20
38.497779597853672
10
318.0000009387731
20
41.497779597853679
10
368.23888927885497
20
41.497779597853786
10
370.3519805875585
20
36.966240662670344
10
361.288902717192
20
32.740058045263574
10
362.55675750241403
20
30.021134684153559
10
371.61983537278053
20
34.247317301560578
10
373.732926681484
20
29.715778366377386
10
352.88784757964123
20
19.995558346341191
10
318.0000009387731
20
19.995558346341191
10
318.0000009387731
20
22.995558346341198
10
315.0000009387731
20
22.995558346341198
10
315.00000123679632
20
29.497779597853615
10
325.00000123679632
20
29.497779597853615
10
325.00000123679632
20
32.497779597853658
0
LWPOLYLINE
5
245
100
AcDbEntity
8
0
100
AcDbPolyline
90
17
70
1
43
0.0
10
315.0000009387731
20
63.000000849366167
10
315.0000009387731
20
56.49777959785375
10
325.00000108778471
20
56.49777959785375
10
325.00000108778465
20
53.497779597853743
10
315.0000009387731
20
53.497779597853743
10
315.0000009387731
20
47.497779597853658
10
318.0000009387731
20
47.497779597853658
10
318.0000009387731
20
44.497779597853643
10
368.23888927885497
20
44.497779597853544
10
370.3519805875585
20
49.029318533036843
10
361.288902717192
20
53.255501150443934
10
362.55675750241409
20
55.974424511553877
10
371.61983537278059
20
51.748241894146965
10
373.73292668148406
20
56.279780829330015
10
352.88784757964117
20
66.000000849366216
10
318.0000009387731
20
66.000000849366216
10
318.0000009387731
20
63.000000849366167
0
LWPOLYLINE
5
246
100
AcDbEntity
8
0
100
AcDbPolyline
90
13
70
1
43
0.0
10
352.91184207313461
20
6.3919002690209545
10
377.75208577780415
20
6.3919002690209581
10
377.7520857778041
20
9.3919002690209652
10
380.75208577780415
20
9.3919002690208941
10
380.75208577780415
20
19.859493964314154
10
377.75208577780415
20
19.859493964314154
10
377.75208577780415
20
22.859493964314161
10
367.59598045638666
20
22.859493964314161
10
355.81397922491027
20
17.365456561685058
10
357.0818340101323
20
14.646533200575078
10
360.70706515827897
20
16.337006247537857
10
361.97491994350111
20
13.618082886427949
10
352.91184207313455
20
9.3919002690208941
0
LWPOLYLINE
5
247
100
AcDbEntity
8
0
100
AcDbPolyline
90
17
70
1
43
0.0
10
414.4651190964114
20
25.007892407072703
10
414.46511909637206
20
22.007881552411241
10
417.46511909637218
20
22.007881552411241
10
417.46511909637218
20
19.31450902410166
10
409.4651190963782
20
19.31450902410166
10
409.46511909637223
20
16.314509024101689
10
417.46511909637218
20
16.314509024101795
10
417.46511909637218
20
13.511837542781073
10
414.46511909637206
20
13.511837542781073
10
414.46511909637223
20
9.2440008493662873
10
385.77000093877314
20
9.2440008493662518
10
384.50214615355105
20
11.962924210476054
10
389.93999287577088
20
14.498633780920294
10
388.6721380905488
20
17.217557142030309
10
385.95321472943886
20
15.949702356808153
10
384.68535994421671
20
18.668625717918097
10
398.27997674976655
20
25.007899644028626
0
LWPOLYLINE
5
248
100
AcDbEntity
8
0
100
AcDbPolyline
90
13
70
1
43
0.0
10
405.72809128431072
20
40.000000849366195
10
405.72809128431072
20
43.000000849366202
10
380.88784757964112
20
43.000000849366202
10
380.88784757964112
20
40.000000849366195
10
377.88784757964117
20
40.000000849366195
10
377.88784757964117
20
29.532407154072935
10
380.88784762434466
20
29.532407154072935
10
380.88784762434466
20
26.532407154072963
10
391.04395290105862
20
26.532407154072963
10
402.825954132535
20
32.026444556702032
10
401.55809934731292
20
34.745367917811976
10
397.93286819916648
20
33.054894870849196
10
396.66501341394428
20
35.77381823195914
0
LWPOLYLINE
5
249
100
AcDbEntity
8
0
100
AcDbPolyline
90
17
70
1
43
0.0
10
427.24861692536115
20
61.684034522503168
10
427.24861692536126
20
58.684034522503161
10
430.24862778002273
20
58.684034522542454
10
430.24863501697871
20
42.498892175897574
10
423.90936109086829
20
28.904275370347676
10
421.19043772975834
20
30.172130155569938
10
422.45829251498037
20
32.89105351667974
10
419.73936915387043
20
34.158908301901896
10
417.20365958342632
20
28.721061579682008
10
414.48473622231626
20
29.988916364903986
10
414.48473622231626
20
58.68403452250309
10
418.75257291573109
20
58.684034522503161
10
418.75257291573109
20
61.684034522503168
10
421.55524439705169
20
61.684034522503168
10
421.55524439705169
20
53.68403452250913
10
424.55524439705164
20
53.68403452250309
10
424.55524439705164
20
61.684034522503168
0
LWPOLYLINE
5
250
100
AcDbEntity
8
0
100
AcDbPolyline
90
4
70
1
43
0.0
10
394.72809128431084
20
64.000000849366188
10
394.72809128431084
20
50.000000849366195
10
380.72809128431084
20
50.000000849366195
10
380.72809128431089
20
64.000000849366188
0
LWPOLYLINE
5
251
100
AcDbEntity
8
0
100
AcDbPolyline
90
4
70
1
43
0.0
10
361.72809128431089
20
69.000000849366288
10
361.72809128431089
20
83.000000849366202
10
375.72809128431089
20
83.000000849366202
10
375.72809128431089
20
69.000000849366188
0
LWPOLYLINE
5
252
100
AcDbEntity
8
0
100
AcDbPolyline
90
4
70
1
43
0.0
10
390.68063773516172
20
91.933534780852639
10
387.96171437405184
20
90.665679995630597
10
382.04505870968205
20
103.35398901414376
10
384.76398207079205
20
104.62184379936581
0
LWPOLYLINE
5
253
100
AcDbEntity
8
0
100
AcDbPolyline
90
4
70
1
43
0.0
10
380.72809128431084
20
83.000000849366202
10
394.72809128431084
20
83.000000849366202
10
394.72809128431084
20
69.000000849366145
10
380.72809128431084
20
69.000000849366188
0
LWPOLYLINE
5
254
100
AcDbEntity
8
0
100
AcDbPolyline
90
4
70
1
43
0.0
10
383.26290005656722
20
112.39278720562389
10
380.26290005656722
20
112.39278720562407
10
380.26290005656722
20
126.39278720562405
10
383.26290005656722
20
126.3927872056239
0
LWPOLYLINE
5
255
100
AcDbEntity
8
0
100
AcDbPolyline
90
4
70
1
43
0.0
10
399.72809128431089
20
83.00000084936616
10
413.72809128431084
20
83.000000849366103
10
413.72809128431084
20
69.000000849366145
10
399.72809128431089
20
69.000000849366188
0
LWPOLYLINE
5
256
100
AcDbEntity
8
0
100
AcDbPolyline
90
4
70
1
43
0.0
10
384.36909199771719
20
133.66631345047551
10
381.55001413535945
20
134.69237388045258
10
386.33829614191887
20
147.8480705714552
10
389.15737400427656
20
146.82201014147824
0
LWPOLYLINE
5
257
100
AcDbEntity
8
0
100
AcDbPolyline
90
30
70
1
43
0.0
10
372.26290005656722
20
133.83904906885783
10
372.26290005656722
20
129.3927872056241
10
377.26290005656722
20
129.39278720562407
10
377.26290005656722
20
109.39278720562406
10
378.48089882509072
20
103.89874980299496
10
380.26290005656705
20
92.392787205624032
10
380.26290005656699
20
85.999787205624258
10
377.7214265811071
20
85.999787205624258
10
377.7214265811071
20
86.000000849366174
10
357.72809128431095
20
86.000000849366216
10
357.72809128431084
20
66.000000849366216
10
377.72809128431078
20
66.000000849366174
10
377.72809128431084
20
46.000000849366174
10
397.72809128431078
20
46.000000849366174
10
397.72809128431084
20
66.000000849366174
10
417.72809128431084
20
66.000000849366174
10
417.72809128431084
20
86.000000849366174
10
397.671048632294
20
86.000000849366174
10
388.77720392445997
20
105.07291237525365
10
391.49612728556986
20
106.34076716047576
10
391.2629000565671
20
108.39278720562407
10
388.26290005656716
20
108.39278720562407
10
388.26290005656722
20
128.3927872056239
10
391.26290005656722
20
128.3927872056239
10
391.34303156774018
20
129.84723558811777
10
388.5239537053825
20
130.87329601809498
10
395.36435657189594
20
149.66714843381294
10
391.20949486423058
20
152.46016586619365
10
385.5713391395152
20
154.51228672614769
10
378.04689598635042
20
133.83904906885778
0
LWPOLYLINE
5
258
100
AcDbEntity
8
0
100
AcDbPolyline
90
26
70
1
43
0.0
10
345.00000055134308
20
109.00000089407004
10
345.00000055134319
20
106.00000084936656
10
331.00000034272693
20
106.00000084936642
10
331.00000034272682
20
109.00000089406973
10
328.00000029802339
20
109.00000089406966
10
328.00000029802345
20
106.00000084936622
10
322.00000093877304
20
106.00000084936627
10
322.00000093877298
20
109.00000089406956
10
332.00000035762764
20
126.00000114738947
10
337.00000093877287
20
126.00000084936653
10
337.00000093877304
20
116.00000084936653
10
340.00000093877304
20
116.0000008493666
10
340.00000093877293
20
126.00000084936656
10
354.00000093877287
20
126.00000084936681
10
354.0000009387731
20
116.00000084936681
10
357.00000093877304
20
116.00000084936688
10
357.00000093877293
20
126.00000084936688
10
362.00000080466248
20
126.00000114739021
10
372.00000093877316
20
109.00000089407065
10
372.00000093877321
20
106.00000084936717
10
366.00000086426758
20
106.00000084936713
10
366.00000086426752
20
109.00000089407058
10
363.00000081956398
20
109.00000089407044
10
363.00000081956409
20
106.00000084936698
10
349.00000061094784
20
106.00000084936678
10
349.00000061094772
20
109.00000089407015
0
LWPOLYLINE
5
259
100
AcDbEntity
8
0
100
AcDbPolyline
90
26
70
1
43
0.0
10
349.00000131130196
20
141.00000080466327
10
345.00000125169726
20
141.00000080466327
10
345.00000125169726
20
144.00000084937002
10
331.000001043081
20
144.00000084936681
10
331.000001043081
20
141.00000080466333
10
328.00000099837752
20
141.00000080466333
10
328.00000099837757
20
144.00000084936681
10
322.00000093877293
20
144.00000084937284
10
322.00000093877293
20
141.00000080466333
10
332.0000010579821
20
129.0000008493669
10
337.00000093877287
20
129.00000084936687
10
337.00000093877293
20
136.00000084936676
10
340.00000093877293
20
136.00000084936684
10
340.00000093877293
20
129.00000084936687
10
354.00000093877281
20
129.00000084936681
10
354.00000093877287
20
136.00000084936676
10
357.00000093877287
20
136.00000084936681
10
357.00000093877293
20
129.00000084936681
10
362.000001505017
20
129.00000084936676
10
372.00000093877293
20
141.00000080466324
10
372.00000093877293
20
144.00000084936673
10
366.00000156462164
20
144.00000084936673
10
366.00000156462164
20
141.00000080466327
10
363.00000151991816
20
141.00000080466327
10
363.00000151991821
20
144.00000084936673
10
349.00000131130196
20
144.00000084936951
0
LWPOLYLINE
5
260
100
AcDbEntity
8
0
100
AcDbPolyline
90
4
70
1
43
0.0
10
416.10660841231089
20
110.76309828835082
10
416.10660841231089
20
124.76309828835085
10
419.10660841231083
20
124.76309828835085
10
419.10660841231095
20
110.76309828835082
0
LWPOLYLINE
5
261
100
AcDbEntity
8
0
100
AcDbPolyline
90
4
70
1
43
0.0
10
423.80542272979551
20
89.035991078357384
10
417.88876706542578
20
101.72430009687051
10
420.60769042653578
20
102.99215488209256
10
426.52434609090551
20
90.303845863579539
0
LWPOLYLINE
5
262
100
AcDbEntity
8
0
100
AcDbPolyline
90
4
70
1
43
0.0
10
422.18200449766243
20
146.21838165418202
10
425.00108236002018
20
145.19232122420496
10
420.21280035346092
20
132.03662453320237
10
417.39372249110318
20
133.06268496317929
0
LWPOLYLINE
5
263
100
AcDbEntity
8
0
100
AcDbPolyline
90
21
70
1
43
0.0
10
426.10660841231089
20
97.763098288350847
10
426.10660841231089
20
117.76309828835085
10
429.10660841231083
20
117.76309828835085
10
429.54443058581978
20
120.39707288456643
10
426.94635437446652
20
121.89707288456638
10
436.95031676805445
20
139.22444402726899
10
427.39522336329992
20
151.77016956970635
10
421.75706763858437
20
153.8222904296604
10
413.89060434209404
20
132.20936015158449
10
408.10660841231089
20
132.20936015158452
10
408.10660841231089
20
127.76309828835085
10
413.10660841231083
20
127.76309828835085
10
413.10660841231083
20
107.76309828835085
10
408.10660841231083
20
107.76309828835085
10
408.10660841231083
20
102.26906088572176
10
414.32460718083451
20
102.26906088572176
10
422.77697241564846
20
84.14290514498866
10
436.94635437446664
20
76.308615616446531
10
426.94635437446652
20
93.629123692135209
10
429.54443058581978
20
95.129123692135266
10
429.10660841231083
20
97.763098288350847
0
LWPOLYLINE
5
264
100
AcDbEntity
8
0
100
AcDbPolyline
90
25
70
1
43
0.0
10
433.553898698127
20
168.77803141937662
10
428.11605197590717
20
166.24232184893219
10
426.84819719068503
20
168.96124521004202
10
429.56712055179509
20
170.22909999526422
10
428.299265766573
20
172.94802335637416
10
421.04880347027978
20
169.56707726244866
10
415.13214780591011
20
182.25538628096177
10
422.38261010220327
20
185.6363323748873
10
421.11475531698119
20
188.35525573599725
10
418.39583195587124
20
187.08740095077525
10
417.12797717064916
20
189.80632431188519
10
422.56582389286905
20
192.3420338823293
10
421.29796910764696
20
195.06095724343925
10
391.40094801152713
20
195.06095724343936
10
391.40094801152708
20
190.79310245821742
10
388.40094801152708
20
190.79310245821745
10
388.40094801152696
20
172.20630951700508
10
398.4009483095503
20
172.20630951700502
10
398.4009483095503
20
169.20630947230154
10
388.40094801152708
20
169.20630947230163
10
388.40094801152691
20
161.17090270804363
10
391.40094801152685
20
161.17090270804363
10
391.40094801152685
20
158.45197934693365
10
418.50821331668982
20
158.45197934693348
10
434.8217534833492
20
166.05910805826676
0
LWPOLYLINE
5
265
100
AcDbEntity
8
0
100
AcDbPolyline
90
25
70
1
43
0.0
10
391.40094801152532
20
200.77988060454939
10
391.40094801152532
20
198.06095724343947
10
418.50821331668828
20
198.06095724343947
10
434.82175348334749
20
205.66808595477283
10
433.55389869812529
20
208.38700931588278
10
428.11605197590552
20
205.85129974543821
10
426.84819719068332
20
208.57022310654813
10
429.56712055179338
20
209.83807789177033
10
428.2992657665713
20
212.55700125288024
10
421.04880347027807
20
209.17605515895468
10
415.13214780590829
20
221.86436417746776
10
422.38261010220151
20
225.24531027139332
10
421.11475531697926
20
227.96423363250335
10
418.39583195586943
20
226.69637884728121
10
417.12797717064734
20
229.41530220839115
10
422.56582389286723
20
231.95101177883529
10
421.29796910764514
20
234.66993513994532
10
391.40094801152532
20
234.66993513994524
10
391.40094801152532
20
230.40208035472318
10
388.40094801152526
20
230.40208035472318
10
388.40094801152526
20
211.81528741351093
10
398.40094830954877
20
211.81528741351093
10
398.40094830954877
20
208.81528736880745
10
388.40094801152526
20
208.81528736880745
10
388.40094801152526
20
200.77988060454939
0
LWPOLYLINE
5
266
100
AcDbEntity
8
0
100
AcDbPolyline
90
4
70
1
43
0.0
10
408.0000009387731
20
259.00000000000017
10
394.00000093877316
20
259.00000000000017
10
394.0000009387731
20
245.00000000000014
10
408.0000009387731
20
245.00000000000014
0
LWPOLYLINE
5
267
100
AcDbEntity
8
0
100
AcDbPolyline
90
8
70
1
43
0.0
10
408.00000093877316
20
262.00000000000017
10
408.00000093877316
20
265.00000000000017
10
394.0000009387731
20
265.00000000000017
10
394.0000009387731
20
262.00000000000017
10
391.00000093877304
20
262.00000000000011
10
391.00000093877316
20
242.00000000000017
10
411.00000093877316
20
242.00000000000011
10
411.00000093877316
20
262.00000000000011
0
LWPOLYLINE
5
268
100
AcDbEntity
8
0
100
AcDbPolyline
90
4
70
1
43
0.0
10
419.33209181631582
20
244.35412783992334
10
433.33209181631582
20
244.35412783992334
10
433.33209181631582
20
258.35412783992336
10
419.33209181631582
20
258.35412783992336
0
LWPOLYLINE
5
269
100
AcDbEntity
8
0
100
AcDbPolyline
90
8
70
1
43
0.0
10
436.33209181631582
20
241.35412783992331
10
436.33209181631582
20
261.35412783992331
10
433.33209181631582
20
261.35412783992331
10
433.33209181631588
20
264.35412783992336
10
419.33209181631582
20
264.35412783992336
10
419.33209181631582
20
261.35412783992331
10
416.33209181631582
20
261.35412783992336
10
416.33209181631582
20
241.35412783992331
0
LWPOLYLINE
5
270
100
AcDbEntity
8
0
100
AcDbPolyline
90
4
70
1
43
0.0
10
390.82050807568862
20
284.0003302491977
10
404.82050807568868
20
284.00033024919759
10
404.82050807568868
20
281.00033024919759
10
390.82050807568862
20
281.00033024919765
0
LWPOLYLINE
5
271
100
AcDbEntity
8
0
100
AcDbPolyline
90
24
70
1
43
0.0
10
416.82050816509553
20
270.00033024919765
10
431.64101615137747
20
289.7419999999999
10
428.64101615137741
20
294.93815242270659
10
425.17691453623968
20
292.93815242270654
10
426.67691453623968
20
290.34007621135333
10
414.55255888325746
20
283.34007621135322
10
413.05255888325752
20
285.93815242270654
10
407.82050807568862
20
287.00033024919765
10
387.82050807568862
20
287.0003302491977
10
382.58845726811967
20
285.93815242270659
10
381.08845726811978
20
283.34007621135333
10
368.96410161513768
20
290.34007621135333
10
370.46410161513762
20
292.93815242270671
10
366.99999999999989
20
294.93815242270665
10
363.99999999999989
20
289.74200000000008
10
378.82050807568862
20
270.00033024919776
10
381.82050807568874
20
270.0003302491977
10
381.82050807568862
20
277.00033024919765
10
384.82050807568862
20
277.0003302491977
10
384.82050807568862
20
270.00033024919765
10
410.82050807568856
20
270.00033024919765
10
410.82050807568856
20
277.00033024919765
10
413.82050807568862
20
277.00033024919765
10
413.82050807568851
20
270.00033024919759
0
LWPOLYLINE
5
272
100
AcDbEntity
8
0
100
AcDbPolyline
90
24
70
1
43
0.0
10
373.40094805622863
20
235.40208035472318
10
370.4009480115252
20
235.40208035472318
10
370.40094801152514
20
250.40208035472318
10
373.40094801152526
20
250.40208035472318
10
373.4009480115252
20
254.40208035472318
10
370.4009480115252
20
254.40208035472318
10
370.4009480115252
20
262.40208035472313
10
373.4009480115252
20
262.40208035472313
10
373.4009480115252
20
265.40208035472318
10
382.4009480115252
20
265.40208035472318
10
382.40094801152514
20
262.40208035472324
10
376.4009480115252
20
262.40208035472324
10
376.40094801152514
20
259.40208035472324
10
382.4009480115252
20
259.40208035472324
10
382.4009480115252
20
245.40208035472318
10
376.40094801152532
20
245.40208035472318
10
376.4009480115252
20
242.40208035472318
10
382.40094801152532
20
242.40208035472321
10
382.4009480115252
20
222.40208035472318
10
376.40094801152514
20
222.40208035472318
10
376.4009480115252
20
225.40208035472315
10
370.4009480115252
20
225.40208035472315
10
370.40094801152514
20
232.40208035472318
10
373.40094805622863
20
232.40208035472318
0
LWPOLYLINE
5
273
100
AcDbEntity
8
0
100
AcDbPolyline
90
4
70
1
43
0.0
10
331.99999999999989
20
254
10
328.99999999999989
20
254
10
328.99999999999983
20
268
10
331.99999999999989
20
268
0
LWPOLYLINE
5
274
100
AcDbEntity
8
0
100
AcDbPolyline
90
24
70
1
43
0.0
10
325.99999999999989
20
251
10
327.89380805884997
20
246.7264737551485
10
330.7128859212076
20
245.7004133251715
10
325.92460391464817
20
232.54471663416876
10
323.10552605229054
20
233.57077706414577
10
321.73744547898792
20
229.81200658100215
10
327.37560120370335
20
227.75988572104811
10
362.99999773502338
20
242.18988039539369
10
362.99999773502338
20
245.99999999999997
10
352.99999999999983
20
245.99999999999997
10
352.99999999999983
20
248.99999999999994
10
362.99999773502338
20
249
10
362.99999773502338
20
273
10
352.99999999999989
20
273
10
352.99999999999983
20
276
10
362.99999773502338
20
276
10
362.99999773502327
20
279.78750025241681
10
325.32963599666243
20
294.62019314336209
10
319.89178927444249
20
292.08448357291792
10
321.58226232140527
20
288.45925242477131
10
324.30118568251532
20
289.72710720999345
10
330.21784134688505
20
277.03879819148034
10
327.49891798577505
20
275.7709434062582
10
325.99999999999989
20
271
0
LWPOLYLINE
5
275
100
AcDbEntity
8
0
100
AcDbPolyline
90
20
70
1
43
0.0
10
368.24011524007659
20
198.6000008493663
10
368.24011524007665
20
208.60000099837791
10
365.24011519537328
20
208.60000099837791
10
365.24011519537316
20
198.6000008493663
10
341.24011524007665
20
198.60000084936638
10
341.2401152400767
20
208.60000084936638
10
338.24011524007676
20
208.60000084936638
10
338.24011524007665
20
198.60000084936638
10
333.24011524007665
20
198.60000084936638
10
323.24011524007665
20
215.60000114738961
10
326.2401152400767
20
215.60000114738961
10
326.2401152400767
20
218.60000114738963
10
351.24011491225133
20
218.60000114738952
10
351.24011491225133
20
215.60000141561048
10
355.24011491225139
20
215.60000141561048
10
355.24011491225139
20
218.60000114738952
10
380.2401152400767
20
218.60000114738952
10
380.2401152400767
20
215.60000114738941
10
383.24011524007676
20
215.60000114738941
10
373.24011524007665
20
198.60000084936632
0
LWPOLYLINE
5
276
100
AcDbEntity
8
0
100
AcDbPolyline
90
17
70
1
43
0.0
10
364.5558689096834
20
185.87978082933006
10
385.4009480115264
20
195.60000084936615
10
323.00000093877304
20
195.60000084936618
10
323.00000093877304
20
192.60000084936615
10
320.00000093877304
20
192.60000084936615
10
320.00000093877304
20
183.10000084936618
10
326.00000093877304
20
183.10000084936618
10
326.00000093877298
20
180.10000084936615
10
320.00000093877304
20
180.10000084936615
10
320.00000093877304
20
170.52398178381424
10
323.00000093877304
20
170.52398178381424
10
323.00000093877304
20
167.52398178381426
10
332.29033557454943
20
167.52398178381426
10
331.02248078932735
20
170.24290514492421
10
351.8675598911704
20
179.96312516496027
10
349.75446858246676
20
184.49466410014352
10
362.44277760097992
20
190.41131976451328
0
LWPOLYLINE
5
277
100
AcDbEntity
8
0
100
AcDbPolyline
90
17
70
1
43
0.0
10
385.4009480115264
20
173.60000084936618
10
379.4009480115264
20
173.60000084936618
10
379.4009480115264
20
170.60000084936618
10
385.40094801152634
20
170.60000084936618
10
385.4009480115264
20
161.10000084936618
10
382.40094801152645
20
161.10000084936618
10
382.40094801152645
20
158.10000084936621
10
320.00000093877304
20
158.10000084936615
10
340.84508004061604
20
167.82022086940219
10
342.95817134931951
20
163.28868193421897
10
355.64648036783262
20
169.20533759858876
10
353.53338905912915
20
173.736876533772
10
374.37846816097203
20
183.45709655380807
10
373.11061337574995
20
186.17601991491807
10
382.40094801152634
20
186.17601991491807
10
382.40094801152634
20
183.17601991491807
10
385.40094801152634
20
183.17601991491807
0
LWPOLYLINE
5
278
100
AcDbEntity
8
0
100
AcDbPolyline
90
4
70
1
43
0.0
10
314.00000093877304
20
198.00000084936613
10
300.00000093877304
20
198.00000084936613
10
300.00000093877304
20
184.00000084936613
10
314.00000093877304
20
184.00000084936613
0
LWPOLYLINE
5
279
100
AcDbEntity
8
0
100
AcDbPolyline
90
4
70
1
43
0.0
10
300.00000093877304
20
178.00000084936613
10
300.00000093877304
20
164.00000084936607
10
314.00000093877304
20
164.0000008493661
10
314.00000093877304
20
178.00000084936613
0
LWPOLYLINE
5
280
100
AcDbEntity
8
0
100
AcDbPolyline
90
8
70
1
43
0.0
10
297.00000093877298
20
201.00000084936613
10
317.00000093877304
20
201.00000084936613
10
317.00000093877304
20
161.0000008493661
10
314.00000093877304
20
161.0000008493661
10
314.00000093877304
20
158.0000008493661
10
300.00000093877304
20
158.0000008493661
10
300.00000093877304
20
161.0000008493661
10
297.00000093877298
20
161.0000008493661
0
LWPOLYLINE
5
281
100
AcDbEntity
8
0
100
AcDbPolyline
90
4
70
1
43
0.0
10
291.00000093877304
20
184.00000084936613
10
291.00000093877304
20
198.00000084936613
10
277.00000093877298
20
198.00000084936613
10
277.00000093877298
20
184.00000084936613
0
LWPOLYLINE
5
282
100
AcDbEntity
8
0
100
AcDbPolyline
90
4
70
1
43
0.0
10
291.00000093877304
20
164.00000084936613
10
291.00000093877304
20
178.00000084936613
10
277.00000093877298
20
178.00000084936613
10
277.00000093877298
20
164.00000084936613
0
LWPOLYLINE
5
283
100
AcDbEntity
8
0
100
AcDbPolyline
90
8
70
1
43
0.0
10
294.00000093877304
20
161.00000084936613
10
294.00000093877304
20
201.00000084936619
10
274.00000093877304
20
201.00000084936619
10
274.00000093877304
20
161.0000008493661
10
277.00000053644169
20
161.0000008493661
10
277.00000053644169
20
158.0000008493661
10
291.00000093877304
20
158.00000084936616
10
291.00000093877304
20
161.0000008493661
0
LWPOLYLINE
5
284
100
AcDbEntity
8
0
100
AcDbPolyline
90
4
70
1
43
0.0
10
254.00000093877304
20
198.00000084936613
10
254.00000093877304
20
184.00000084936613
10
268.00000093877304
20
184.00000084936613
10
268.0000009387731
20
198.00000084936613
0
LWPOLYLINE
5
285
100
AcDbEntity
8
0
100
AcDbPolyline
90
4
70
1
43
0.0
10
268.00000093877304
20
164.00000084936613
10
268.00000093877304
20
178.00000084936613
10
254.00000093877304
20
178.00000084936613
10
254.00000093877304
20
164.00000084936622
0
LWPOLYLINE
5
286
100
AcDbEntity
8
0
100
AcDbPolyline
90
8
70
1
43
0.0
10
268.00000093877304
20
158.0000008493661
10
254.00000093877298
20
158.00000084936616
10
254.00000093877298
20
161.00000084936613
10
251.00000093877301
20
161.00000084936624
10
251.00000093877301
20
201.00000084936619
10
271.00000093877304
20
201.00000084936613
10
271.00000093877304
20
161.0000008493661
10
268.00000093877304
20
161.0000008493661
0
LWPOLYLINE
5
287
100
AcDbEntity
8
0
100
AcDbPolyline
90
4
70
1
43
0.0
10
236.61271658683947
20
253.86513587638407
10
239.43179444919713
20
252.83907544640709
10
234.64351244263793
20
239.68337875540436
10
231.82443458028021
20
240.70943918538134
0
LWPOLYLINE
5
288
100
AcDbEntity
8
0
100
AcDbPolyline
90
4
70
1
43
0.0
10
233.53732050148795
20
232.40985251055289
10
233.53732050148807
20
218.40985251055287
10
230.53732050148807
20
218.40985251055287
10
230.53732050148795
20
232.40985251055278
0
LWPOLYLINE
5
289
100
AcDbEntity
8
0
100
AcDbPolyline
90
4
70
1
43
0.0
10
232.31947915460307
20
209.37105431907256
10
235.03840251571305
20
210.63890910429467
10
240.95505818008289
20
197.95060008578159
10
238.23613481897294
20
196.68274530055953
0
LWPOLYLINE
5
290
100
AcDbEntity
8
0
100
AcDbPolyline
90
21
70
1
43
0.0
10
245.63877701681636
20
252.68421373874185
10
241.82593545247667
20
259.41692379190846
10
236.18777972776121
20
261.46904465186248
10
228.32131643127096
20
239.85611437378651
10
222.53732050148872
20
239.85611437378648
10
222.53732050148875
20
235.40985251055272
10
227.53732050148787
20
235.40985251055287
10
227.53732050148798
20
215.40985251055287
10
222.53732050148801
20
215.40985251055289
10
222.5373205014881
20
209.91581510792366
10
228.75531927001157
20
209.91581510792372
10
238.47553929004778
20
189.07073600608089
10
247.50291218981175
20
189.96613246205058
10
239.05162436938085
20
208.08997768018253
10
241.77054773049079
20
209.3578324654047
10
241.53732050148804
20
211.40985251055295
10
238.53732050148804
20
211.40985251055292
10
238.53732050148784
20
231.40985251055284
10
241.53732050148793
20
231.40985251055281
10
241.61745201266092
20
232.86430089304662
10
238.79837415030318
20
233.89036132302368
0
LWPOLYLINE
5
291
100
AcDbEntity
8
0
100
AcDbPolyline
90
4
70
1
43
0.0
10
232.02203790115351
20
290.93575279654442
10
232.02203790115348
20
276.93575279654448
10
246.02203790115345
20
276.93575279654442
10
246.02203790115345
20
290.93575279654442
0
LWPOLYLINE
5
292
100
AcDbEntity
8
0
100
AcDbPolyline
90
8
70
1
43
0.0
10
252.02203790115351
20
276.93575279654442
10
249.02203790115351
20
276.93575279654442
10
249.02203790115351
20
273.93575279654442
10
229.02203790115351
20
273.93575279654442
10
229.02203790115351
20
293.93575279654442
10
249.02203790115351
20
293.93575279654448
10
249.02203790115351
20
290.93575279654442
10
252.02203790115351
20
290.93575279654442
0
LWPOLYLINE
5
293
100
AcDbEntity
8
0
100
AcDbPolyline
90
4
70
1
43
0.0
10
267.81617166310218
20
288.19634760105976
10
267.81617166310218
20
285.19634760105976
10
273.81617166310224
20
285.19634760105976
10
273.81617166310224
20
288.19634760105981
0
LWPOLYLINE
5
294
100
AcDbEntity
8
0
100
AcDbPolyline
90
9
70
1
43
0.0
10
290.96480725438943
20
283.79161713143185
10
309.09096299512248
20
292.2439823662458
10
264.81617166310218
20
292.24398236624575
10
264.81617166310218
20
289.24398236624575
10
261.81617166310212
20
289.24398236624575
10
261.81617166310212
20
284.07269377032185
10
264.81617166310218
20
284.07269377032185
10
264.81617166310212
20
281.07269377032185
10
292.23266203961151
20
281.07269377032185
0
LWPOLYLINE
5
295
100
AcDbEntity
8
0
100
AcDbPolyline
90
4
70
1
43
0.0
10
254.00000093877304
20
270.00000084936613
10
254.00000093877298
20
256.00000084936613
10
268.00000093877304
20
256.00000084936619
10
268.00000093877304
20
270.00000084936619
0
LWPOLYLINE
5
296
100
AcDbEntity
8
0
100
AcDbPolyline
90
12
70
1
43
0.0
10
268.00000093877304
20
250.00000084936616
10
268.00000093877304
20
253.00000084936613
10
271.00000093877304
20
253.0000008493661
10
271.00000093877304
20
273.00000084936613
10
268.00000093877304
20
273.00000084936613
10
268.00000093877304
20
276.00000084936613
10
254.00000093877304
20
276.00000084936613
10
254.00000093877298
20
273.00000084936613
10
251.00000093877301
20
273.00000084936613
10
251.00000093877301
20
253.00000084936613
10
254.00000093877298
20
253.00000084936613
10
254.00000093877298
20
250.00000084936616
0
LWPOLYLINE
5
297
100
AcDbEntity
8
0
100
AcDbPolyline
90
4
70
1
43
0.0
10
277.00000093877293
20
270.00000084936619
10
277.00000093877298
20
256.00000084936619
10
291.00000093877304
20
256.00000084936619
10
291.00000093877293
20
270.00000084936613
0
LWPOLYLINE
5
298
100
AcDbEntity
8
0
100
AcDbPolyline
90
12
70
1
43
0.0
10
274.00000093877293
20
273.00000084936607
10
277.00000093877293
20
273.00000084936607
10
277.00000093877293
20
276.00000084936613
10
291.00000093877293
20
276.00000084936613
10
291.00000093877293
20
273.00000084936613
10
294.00000093877293
20
273.00000084936613
10
294.00000093877298
20
253.00000084936616
10
291.00000093877304
20
253.00000084936616
10
291.00000093877304
20
250.00000084936616
10
277.00000093877298
20
250.00000084936616
10
277.00000093877298
20
253.00000084936616
10
274.00000093877304
20
253.00000084936616
0
LWPOLYLINE
5
299
100
AcDbEntity
8
0
100
AcDbPolyline
90
4
70
1
43
0.0
10
314.00000093877298
20
270.00000084936619
10
300.00000093877304
20
270.00000084936619
10
300.00000093877298
20
256.00000084936619
10
314.00000093877304
20
256.00000084936619
0
LWPOLYLINE
5
300
100
AcDbEntity
8
0
100
AcDbPolyline
90
12
70
1
43
0.0
10
300.00000093877298
20
276.00000084936619
10
300.00000093877298
20
273.00000084936619
10
297.00000093877298
20
273.00000084936619
10
297.00000093877298
20
253.00000084936616
10
300.00000093877298
20
253.00000084936616
10
300.00000093877298
20
250.00000084936616
10
314.00000093877298
20
250.00000084936616
10
314.00000093877304
20
253.00000084936616
10
317.00000093877304
20
253.00000084936616
10
317.00000093877298
20
273.00000084936619
10
314.00000093877298
20
273.00000084936619
10
314.00000093877293
20
276.00000084936619
0
LWPOLYLINE
5
301
100
AcDbEntity
8
0
100
AcDbPolyline
90
4
70
1
43
0.0
10
300.00000093877304
20
221.00000084936613
10
300.00000093877304
20
207.00000084936616
10
314.00000093877304
20
207.00000084936616
10
314.00000093877304
20
221.00000084936613
0
LWPOLYLINE
5
302
100
AcDbEntity
8
0
100
AcDbPolyline
90
4
70
1
43
0.0
10
300.00000093877304
20
227.00000084936613
10
314.00000093877304
20
227.00000084936613
10
314.00000093877298
20
241.00000084936619
10
300.00000093877298
20
241.00000084936619
0
LWPOLYLINE
5
303
100
AcDbEntity
8
0
100
AcDbPolyline
90
8
70
1
43
0.0
10
300.00000093877298
20
244.00000084936613
10
297.00000093877298
20
244.00000084936613
10
297.00000093877298
20
204.00000084936613
10
317.00000093877304
20
204.00000084936619
10
317.00000093877298
20
244.00000084936619
10
314.00000093877298
20
244.00000084936619
10
314.00000093877304
20
247.00000084936616
10
300.00000093877298
20
247.00000084936613
0
LWPOLYLINE
5
304
100
AcDbEntity
8
0
100
AcDbPolyline
90
4
70
1
43
0.0
10
268.00000093877304
20
221.00000084936613
10
254.00000093877304
20
221.00000084936613
10
254.00000093877304
20
207.00000084936613
10
268.00000093877304
20
207.00000084936616
0
LWPOLYLINE
5
305
100
AcDbEntity
8
0
100
AcDbPolyline
90
4
70
1
43
0.0
10
268.00000093877304
20
241.00000084936613
10
254.00000093877304
20
241.00000084936613
10
254.00000093877304
20
227.00000084936616
10
268.00000093877304
20
227.00000084936619
0
LWPOLYLINE
5
306
100
AcDbEntity
8
0
100
AcDbPolyline
90
8
70
1
43
0.0
10
271.00000093877304
20
204.00000084936613
10
251.00000093877301
20
204.00000084936613
10
251.00000093877301
20
244.00000084936613
10
254.00000093877304
20
244.00000084936613
10
254.00000093877304
20
247.00000084936613
10
268.00000093877304
20
247.00000084936613
10
268.00000093877304
20
244.00000084936613
10
271.00000093877304
20
244.00000084936613
0
LWPOLYLINE
5
307
100
AcDbEntity
8
0
100
AcDbPolyline
90
8
70
1
43
0.0
10
294.00000093877298
20
244.00000084936607
10
291.00000093877298
20
244.00000084936607
10
291.00000093877298
20
247.00000084936613
10
277.00000093877298
20
247.00000084936613
10
277.00000093877298
20
244.0000008493661
10
274.00000093877304
20
244.00000084936607
10
274.00000093877304
20
204.00000084936613
10
294.00000093877304
20
204.00000084936613
0
LWPOLYLINE
5
308
100
AcDbEntity
8
0
100
AcDbPolyline
90
4
70
1
43
0.0
10
277.00000093877298
20
221.00000084936613
10
277.00000093877298
20
207.00000084936616
10
291.00000093877304
20
207.00000084936616
10
291.00000093877304
20
221.00000084936613
0
LWPOLYLINE
5
309
100
AcDbEntity
8
0
100
AcDbPolyline
90
4
70
1
43
0.0
10
277.00000093877298
20
227.00000084936613
10
291.00000093877304
20
227.00000084936613
10
291.00000093877304
20
241.00000084936613
10
277.00000093877298
20
241.00000084936619
0
ENDSEC
0
SECTION
2
OBJECTS
0
DICTIONARY
5
C
100
AcDbDictionary
3
ACAD_GROUP
350
D
3
ACAD_MLINESTYLE
350
17
0
DICTIONARY
5
D
100
AcDbDictionary
0
DICTIONARY
5
1A
330
C
100
AcDbDictionary
0
DICTIONARY
5
17
100
AcDbDictionary
0
ENDSEC
0
EOF
