0
SECTION
2
HEADER
9
$INSUNITS
70
4
9
$ACADVER
1
AC1014
9
$HANDSEED
5
FFFF
0
ENDSEC
0
SECTION
2
TABLES
0
TABLE
2
VPORT
5
8
100
AcDbSymbolTable
0
ENDTAB
0
TABLE
2
LTYPE
5
5
100
AcDbSymbolTable
0
LTYPE
5
14
100
AcDbSymbolTableRecord
100
AcDbLinetypeTableRecord
2
BYBLOCK
70
0
0
LTYPE
5
15
100
AcDbSymbolTableRecord
100
AcDbLinetypeTableRecord
2
BYLAYER
70
0
0
ENDTAB
0
TABLE
2
LAYER
5
2
100
AcDbSymbolTable
70
2
0
LAYER
5
50
100
AcDbSymbolTableRecord
100
AcDbLayerTableRecord
2
0
70
0
6
CONTINUOUS
0
ENDTAB
0
TABLE
2
STYLE
5
3
100
AcDbSymbolTable
70
1
0
STYLE
5
11
100
AcDbSymbolTableRecord
100
AcDbTextStyleTableRecord
2
STANDARD
70
0
0
ENDTAB
0
TABLE
2
VIEW
5
6
100
AcDbSymbolTable
70
0
0
ENDTAB
0
TABLE
2
UCS
5
7
100
AcDbSymbolTable
70
0
0
ENDTAB
0
TABLE
2
APPID
5
9
100
AcDbSymbolTable
70
2
0
APPID
5
12
100
AcDbSymbolTableRecord
100
AcDbRegAppTableRecord
2
ACAD
70
0
0
ENDTAB
0
TABLE
2
DIMSTYLE
5
A
100
AcDbSymbolTable
70
1
0
ENDTAB
0
TABLE
2
BLOCK_RECORD
5
1
100
AcDbSymbolTable
70
1
0
BLOCK_RECORD
5
1F
100
AcDbSymbolTableRecord
100
AcDbBlockTableRecord
2
*MODEL_SPACE
0
BLOCK_RECORD
5
1B
100
AcDbSymbolTableRecord
100
AcDbBlockTableRecord
2
*PAPER_SPACE
0
ENDTAB
0
ENDSEC
0
SECTION
2
BLOCKS
0
BLOCK
5
20
100
AcDbEntity
100
AcDbBlockBegin
2
*MODEL_SPACE
0
ENDBLK
5
21
100
AcDbEntity
100
AcDbBlockEnd
0
BLOCK
5
1C
100
AcDbEntity
100
AcDbBlockBegin
2
*PAPER_SPACE
0
ENDBLK
5
1D
100
AcDbEntity
100
AcDbBlockEnd
0
ENDSEC
0
SECTION
2
ENTITIES
0
LWPOLYLINE
5
100
100
AcDbEntity
8
0
100
AcDbPolyline
90
24
70
1
43
0.0
10
-203.98829628566745
20
-285.87254397051936
10
-200.77499074759314
20
-291.43815242270659
10
-198.17691453623985
20
-289.93815242270659
10
-199.67691453623971
20
-287.34007621135328
10
-187.55255888325757
20
-280.34007621135322
10
-186.05255888325763
20
-282.93815242270654
10
-180.82050807568876
20
-284.00033024919765
10
-160.82050807568876
20
-284.0003302491977
10
-155.58845726811981
20
-282.93815242270659
10
-154.08845726811987
20
-280.34007621135333
10
-141.96410161513785
20
-287.34007621135333
10
-143.46410161513774
20
-289.93815242270665
10
-140.86602540378442
20
-291.43815242270665
10
-137.65271986742187
20
-285.87254397348443
10
-151.82050807568868
20
-267.00033024919776
10
-154.82050807568874
20
-267.0003302491977
10
-154.82050807568874
20
-274.00033024919765
10
-157.82050807568874
20
-274.0003302491977
10
-157.82050807568874
20
-267.00033024919765
10
-183.82050807568868
20
-267.00033024919765
10
-183.82050807568868
20
-274.00033024919765
10
-186.82050807568862
20
-274.00033024919765
10
-186.82050807568862
20
-267.00033024919765
10
-189.82050816509565
20
-267.00033024919765
0
LWPOLYLINE
5
101
100
AcDbEntity
8
0
100
AcDbPolyline
90
4
70
1
43
0.0
10
-163.82050807568871
20
-281.0003302491977
10
-163.82050807568871
20
-278.00033024919765
10
-177.82050807568879
20
-278.00033024919753
10
-177.82050807568879
20
-281.00033024919759
0
LWPOLYLINE
5
102
100
AcDbEntity
8
0
100
AcDbPolyline
90
4
70
1
43
0.0
10
-63.000000864267363
20
-63.000000894069785
10
-63.000000864267363
20
-60.000000849366124
10
-69.000000938773027
20
-60.000000849366124
10
-69.000000938773027
20
-63.000000894069785
0
LWPOLYLINE
5
103
100
AcDbEntity
8
0
100
AcDbPolyline
90
4
70
1
43
0.0
10
-19.000000938772814
20
-63.000000894069785
10
-19.000000938772814
20
-60.000000894069778
10
-25.000000298023295
20
-60.000000849366124
10
-25.000000298023295
20
-63.000000894069785
0
LWPOLYLINE
5
104
100
AcDbEntity
8
0
100
AcDbPolyline
90
12
70
1
43
0.0
10
-54.000000938773098
20
-81.586793835281981
10
-51.000000938773127
20
-81.586793835281981
10
-51.00000093877302
20
-63.000000894069785
10
-46.00000061094768
20
-63.000000894069785
10
-46.00000061094768
20
-60.000000849366124
10
-51.00000093877302
20
-60.000000849366124
10
-51.00000093877302
20
-51.964594085108189
10
-54.000000938773134
20
-51.964594085108189
10
-54.000000938773027
20
-60.000000849366124
10
-60.000000819563866
20
-60.000000849366124
10
-60.000000819563866
20
-63.000000894069785
10
-54.000000938773027
20
-63.000000894069785
0
LWPOLYLINE
5
105
100
AcDbEntity
8
0
100
AcDbPolyline
90
12
70
1
43
0.0
10
-38.000000938773155
20
-97.291242280427355
10
-43.000000566244161
20
-97.291242280427355
10
-43.000000566244161
20
-100.29124228042733
10
-38.000000938773155
20
-100.29124228042733
10
-38.000000938773155
20
-103.09391376174787
10
-35.000000938773184
20
-103.09391376174787
10
-35.000000938773184
20
-100.29124228042733
10
-29.000000357627869
20
-100.29124228042733
10
-29.000000357627869
20
-97.291242280427355
10
-35.000000938773184
20
-97.291242280427355
10
-35.000000938773184
20
-94.597869752117703
10
-38.000000938773155
20
-94.597869752117703
0
LWPOLYLINE
5
106
100
AcDbEntity
8
0
100
AcDbPolyline
90
8
70
1
43
0.0
10
-107.39278729503097
20
-85.201344466624107
10
-107.39278729503097
20
-82.201344466623993
10
-114.39278729503104
20
-82.201344466624136
10
-114.39278729503104
20
-81.077690635886171
10
-117.39278729503106
20
-81.077690635886171
10
-117.39278729503106
20
-86.248979231810125
10
-114.39278729503104
20
-86.248979231810125
10
-114.39278729503104
20
-85.201344466624107
0
LWPOLYLINE
5
107
100
AcDbEntity
8
0
100
AcDbPolyline
90
12
70
1
43
0.0
10
-28.000000342726707
20
-60.000000849366124
10
-34.000000938772956
20
-60.000000849366124
10
-34.000000938772956
20
-51.964594085108189
10
-37.000000938773177
20
-51.964594085108189
10
-37.000000938773034
20
-60.000000849366124
10
-42.000000551343035
20
-60.000000849366124
10
-42.000000551343035
20
-63.000000894069785
10
-37.000000938773034
20
-63.000000894069785
10
-37.00000093877307
20
-81.586793835281981
10
-34.000000938773134
20
-81.586793835281981
10
-34.000000938772956
20
-63.000000894069785
10
-28.000000342726707
20
-63.000000894069785
0
LWPOLYLINE
5
108
100
AcDbEntity
8
0
100
AcDbPolyline
90
8
70
1
43
0.0
10
-77.392787295030985
20
-72.625325401072161
10
-80.392787295031027
20
-72.625325401072161
10
-80.392787295031027
20
-82.201344466623993
10
-85.392787295030971
20
-82.201344466623993
10
-85.392787295030971
20
-85.201344466623993
10
-80.392787295031027
20
-85.201344466623965
10
-80.39278729503107
20
-94.701344466623993
10
-77.392787295031042
20
-94.701344466623993
0
LWPOLYLINE
5
109
100
AcDbEntity
8
0
100
AcDbPolyline
90
12
70
1
43
0.0
10
-21.00000093877302
20
-19.034164040823569
10
-21.00000093877302
20
-16.034164040823633
10
-33.000000938773049
20
-16.034164040823633
10
-33.000000938773049
20
-9.5319427893111452
10
-36.00000093877302
20
-9.5319427893112163
10
-36.00000093877302
20
-16.034164040823633
10
-46.00000061094768
20
-16.034164040823633
10
-46.00000061094768
20
-19.034164040823569
10
-36.00000093877302
20
-19.03416404082364
10
-36.00000093877302
20
-25.034164040823619
10
-33.000000938773049
20
-25.034164040823619
10
-33.000000938773049
20
-19.03416404082364
0
LWPOLYLINE
5
110
100
AcDbEntity
8
0
100
AcDbPolyline
90
4
70
1
43
0.0
10
-39.000000938773134
20
-146.38917597814788
10
-39.000000938773134
20
-135.92158228285467
10
-42.000000938773177
20
-135.92158228285467
10
-42.000000938773177
20
-146.38917597814793
0
LWPOLYLINE
5
111
100
AcDbEntity
8
0
100
AcDbPolyline
90
12
70
1
43
0.0
10
-55.000000938773184
20
-94.597869752117703
10
-55.000000938773184
20
-97.291242280427355
10
-61.000000834465098
20
-97.291242280427355
10
-61.000000834465098
20
-100.29124228042733
10
-55.000000938773184
20
-100.29124228042733
10
-55.000000938773184
20
-103.09391376174787
10
-52.000000938773177
20
-103.09391376174787
10
-52.000000938773177
20
-100.29124228042733
10
-47.000000625848841
20
-100.29124228042733
10
-47.000000625848841
20
-97.291242280427355
10
-52.000000938773177
20
-97.291242280427355
10
-52.000000938773177
20
-94.597869752117703
0
LWPOLYLINE
5
112
100
AcDbEntity
8
0
100
AcDbPolyline
90
4
70
1
43
0.0
10
-26.000000312924385
20
-100.29124228042733
10
-20.000000938773148
20
-100.29124228042733
10
-20.000000938773148
20
-97.291242280427355
10
-26.000000312924385
20
-97.291242280427355
0
LWPOLYLINE
5
113
100
AcDbEntity
8
0
100
AcDbPolyline
90
12
70
1
43
0.0
10
-63.000000938773027
20
-16.034164040823633
10
-75.000000938773013
20
-16.034164040823633
10
-75.000000938773013
20
-19.034164040823569
10
-63.000000938773027
20
-19.03416404082364
10
-63.000000938773027
20
-25.034164040823619
10
-60.000000938773098
20
-25.034164040823619
10
-60.000000938773098
20
-19.03416404082364
10
-50.000000610947701
20
-19.03416404082364
10
-50.000000610947701
20
-16.034164040823633
10
-60.000000938773098
20
-16.034164040823633
10
-60.000000938773098
20
-9.5319427893111452
10
-63.000000938773027
20
-9.5319427893112163
0
LWPOLYLINE
5
114
100
AcDbEntity
8
0
100
AcDbPolyline
90
12
70
1
43
0.0
10
-97.392787295031056
20
-94.701344466624136
10
-94.392787295031042
20
-94.701344466624136
10
-94.392787295031042
20
-85.201344466623993
10
-89.392787295030985
20
-85.201344466623993
10
-89.392787295030985
20
-82.201344466623993
10
-94.392787295031042
20
-82.201344466624136
10
-94.392787295031042
20
-72.625325401072161
10
-97.392787295030971
20
-72.625325401072161
10
-97.392787295031056
20
-82.201344466624136
10
-104.39278729503096
20
-82.201344466624136
10
-104.39278729503096
20
-85.201344466624107
10
-97.392787295031056
20
-85.201344466623993
0
LWPOLYLINE
5
115
100
AcDbEntity
8
0
100
AcDbPolyline
90
4
70
1
43
0.0
10
-68.000000938773169
20
-135.92158228285467
10
-71.000000938773141
20
-135.92158228285467
10
-71.000000938773141
20
-146.38917597814793
10
-68.000000938773169
20
-146.38917597814793
0
LWPOLYLINE
5
116
100
AcDbEntity
8
0
100
AcDbPolyline
90
4
70
1
43
0.0
10
-64.000000879168525
20
-97.291242280427355
10
-70.000000938773155
20
-97.291242280427355
10
-70.000000938773155
20
-100.29124228042733
10
-64.000000879168525
20
-100.29124228042733
0
LINE
5
117
100
AcDbEntity
8
0
100
AcDbLine
10
-62.000000938773177
20
-2.7487381908952102
30
0
11
-36.000000938773162
21
-2.7487381908952102
31
0
0
ARC
5
118
100
AcDbEntity
8
0
100
AcDbCircle
10
-36.000000938773162
20
-22.74873819089521
30
0
40
20
210
0
220
0
230
1
100
AcDbArc
50
0
51
90
0
LINE
5
119
100
AcDbEntity
8
0
100
AcDbLine
10
-16.000000938773162
20
-22.74873819089521
30
0
11
-16.000000938773127
21
-57.000000849366046
31
0
0
LINE
5
120
100
AcDbEntity
8
0
100
AcDbLine
10
-16.000000938773127
20
-57.000000849366046
30
0
11
-15.606602656571376
21
-57.000000849366046
31
0
0
SPLINE
5
121
100
AcDbEntity
8
0
100
AcDbSpline
70
0
71
3
72
16
73
12
74
0
42
0.000000001
43
0.0000000001
44
0.0000000001
40
0
40
0
40
0
40
0
40
0.41300179821663424
40
0.41300179821663424
40
0.8261602164794456
40
0.8261602164794456
40
1.2390892736637211
40
1.2390892736637211
40
1.4547300807148611
40
1.4547300807148611
40
1.670315971228117
40
1.670315971228117
40
1.670315971228117
40
1.670315971228117
10
-15.606602656571376
20
-57.000000849366046
30
0
10
-14.229929995849311
20
-57.000000849366046
30
0
10
-12.866333927982119
20
-57.268026509026768
30
0
10
-10.317342649482804
20
-58.310345584110124
30
0
10
-9.1562456910486745
20
-59.074922759828432
30
0
10
-7.1918541800171809
20
-61.004590135642829
30
0
10
-6.4070139459823849
20
-62.151134885504149
30
0
10
-5.5791125127691643
20
-64.075863448601993
30
0
10
-5.3629451202251133
20
-64.763337263776251
30
0
10
-5.0730329324706958
20
-66.171220023247741
30
0
10
-5.0000009387731481
20
-66.887982932120167
30
0
10
-5.0000009387731481
20
-67.606602567164344
30
0
0
LINE
5
122
100
AcDbEntity
8
0
100
AcDbLine
10
-5.0000009387731481
20
-67.606602567164344
30
0
11
-5.0000009387731481
21
-98.857865225635209
31
0
0
SPLINE
5
123
100
AcDbEntity
8
0
100
AcDbSpline
70
0
71
3
72
16
73
12
74
0
42
0.000000001
43
0.0000000001
44
0.0000000001
40
0
40
0
40
0
40
0
40
0.55066906428928619
40
0.55066906428928619
40
1.1015469553062984
40
1.1015469553062984
40
1.6521190315521987
40
1.6521190315521987
40
1.9396401076201613
40
1.9396401076201613
40
2.2270879616375958
40
2.2270879616375958
40
2.2270879616375958
40
2.2270879616375958
10
-5.0000009387731481
20
-98.857865225635209
30
0
10
-5.0000009387731481
20
-100.69342877326616
30
0
10
-5.3573684849878234
20
-102.51155686375671
30
0
10
-6.74712725176704
20
-105.91021190175667
30
0
10
-7.7665634860583665
20
-107.45834117966825
30
0
10
-10.339453320478391
20
-110.07752986104319
30
0
10
-11.868179653627315
20
-111.12398350642259
30
0
10
-14.434484404424808
20
-112.22785208403937
30
0
10
-15.351116157989537
20
-112.51607527409777
30
0
10
-17.228293170616809
20
-112.90262485776961
30
0
10
-18.183977049112698
20
-113.00000084936613
30
0
10
-19.142136562504106
20
-113.00000084936613
30
0
0
LINE
5
124
100
AcDbEntity
8
0
100
AcDbLine
10
-19.142136562504106
20
-113.00000084936613
30
0
11
-20.000000938773184
21
-113.00000084936613
31
0
0
LINE
5
125
100
AcDbEntity
8
0
100
AcDbLine
10
-20.000000938773184
20
-113.00000084936613
30
0
11
-20.000000938773184
21
-141.39339913156792
31
0
0
SPLINE
5
126
100
AcDbEntity
8
0
100
AcDbSpline
70
0
71
3
72
16
73
12
74
0
42
0.000000001
43
0.0000000001
44
0.0000000001
40
0
40
0
40
0
40
0
40
0.41300179821688482
40
0.41300179821688482
40
0.8261602164796219
40
0.8261602164796219
40
1.2390892736638837
40
1.2390892736638837
40
1.4547300807149499
40
1.4547300807149499
40
1.6703159712280802
40
1.6703159712280802
40
1.6703159712280802
40
1.6703159712280802
10
-20.000000938773184
20
-141.39339913156792
30
0
10
-20.000000938773184
20
-142.77007179229085
30
0
10
-20.268026598434119
20
-144.1336678601586
30
0
10
-21.310345673518292
20
-146.68265913865829
30
0
10
-22.0749228492366
20
-147.84375609709213
30
0
10
-24.004590225051139
20
-149.80814760812299
30
0
10
-25.151134974912566
20
-150.59298784215761
30
0
10
-27.075863538010267
20
-151.42088927537048
30
0
10
-27.763337353184312
20
-151.63705666791458
30
0
10
-29.171220112655121
20
-151.92696885566866
30
0
10
-29.887983021527589
20
-152.00000084936616
30
0
10
-30.606602656571376
20
-152.00000084936616
30
0
0
LINE
5
127
100
AcDbEntity
8
0
100
AcDbLine
10
-78.393399220974956
20
-152.00000084936616
30
0
11
-30.606602656571379
21
-152.00000084936616
31
0
0
SPLINE
5
128
100
AcDbEntity
8
0
100
AcDbSpline
70
0
71
3
72
16
73
12
74
0
42
0.000000001
43
0.0000000001
44
0.0000000001
40
0
40
0
40
0
40
0
40
0.412974019601686
40
0.412974019601686
40
0.8260402905086266
40
0.8260402905086266
40
1.2394770370307515
40
1.2394770370307515
40
1.4549302698008686
40
1.4549302698008686
40
1.6703185840736705
40
1.6703185840736705
40
1.6703185840736705
40
1.6703185840736705
10
-89.000000938773212
20
-141.39339913156792
30
0
10
-89.000000938773212
20
-142.76997919690689
30
0
10
-88.732011332860139
20
-144.13348531201365
30
0
10
-87.689909690883781
20
-146.68213361747692
30
0
10
-86.925586306969478
20
-147.84301950095053
30
0
10
-84.995168431688782
20
-149.80861540220081
30
0
10
-83.847089354541765
20
-150.59429504012431
30
0
10
-81.92108068936858
20
-151.42192057276577
30
0
10
-81.234148792995995
20
-151.63771075842089
30
0
10
-79.827469692328322
20
-151.9271026563986
30
0
10
-79.111360268550968
20
-152.00000084936616
30
0
10
-78.393399220974956
20
-152.00000084936616
30
0
0
LINE
5
129
100
AcDbEntity
8
0
100
AcDbLine
10
-89.000000938773212
20
-100.00000084936613
30
0
11
-89.000000938773212
21
-141.39339913156792
31
0
0
LINE
5
130
100
AcDbEntity
8
0
100
AcDbLine
10
-107.09009836207585
20
-100.00000084936613
30
0
11
-89.000000938773212
21
-100.00000084936613
31
0
0
SPLINE
5
131
100
AcDbEntity
8
0
100
AcDbSpline
70
0
71
3
72
16
73
12
74
0
42
0.000000001
43
0.0000000001
44
0.0000000001
40
0
40
0
40
0
40
0
40
0.6194610294003442
40
0.6194610294003442
40
1.2390604357606061
40
1.2390604357606061
40
1.8592155555439041
40
1.8592155555439041
40
2.1823954047000722
40
2.1823954047000722
40
2.5054778761102368
40
2.5054778761102368
40
2.5054778761102368
40
2.5054778761102368
10
-123.00000093877321
20
-84.090098272668826
30
0
10
-123.00000093877321
20
-86.154968370669991
30
0
10
-122.59801652990583
20
-88.200227543325582
30
0
10
-121.0348640669487
20
-92.023200001515136
30
0
10
-119.88837899107969
20
-93.764528826726732
30
0
10
-116.99275217816256
20
-96.712922678605793
30
0
10
-115.27063356244327
20
-97.891442135493207
30
0
10
-112.38162056468168
20
-99.132880434460446
30
0
10
-111.35122272012005
20
-99.456565712945064
30
0
10
-109.24120406911236
20
-99.890653559914142
30
0
10
-108.16703993344305
20
-100.00000084936613
30
0
10
-107.09009836207585
20
-100.00000084936613
30
0
0
LINE
5
132
100
AcDbEntity
8
0
100
AcDbLine
10
-123.00000093877321
20
-83.677670379029934
30
0
11
-123.00000093877321
21
-84.090098272668826
31
0
0
SPLINE
5
133
100
AcDbEntity
8
0
100
AcDbSpline
70
0
71
3
72
16
73
12
74
0
42
0.000000001
43
0.0000000001
44
0.0000000001
40
0
40
0
40
0
40
0
40
0.6882900326676985
40
0.6882900326676985
40
1.3767338175124373
40
1.3767338175124373
40
2.0657950617161318
40
2.0657950617161318
40
2.424883783000455
40
2.424883783000455
40
2.7838643067892344
40
2.7838643067892344
40
2.7838643067892344
40
2.7838643067892344
10
-105.32233140910947
20
-66.000000849366074
30
0
10
-107.6166315180018
20
-66.000000849366074
30
0
10
-109.88914170984275
20
-66.446650192552823
30
0
10
-114.13688888561043
20
-68.183486262507358
30
0
10
-116.07169869140057
20
-69.45735856902914
30
0
10
-119.34769186015413
20
-72.674721694493627
30
0
10
-120.65715792336192
20
-74.588186823071183
30
0
10
-122.03653381110173
20
-77.798201265028098
30
0
10
-122.39618412052849
20
-78.943087758984689
30
0
10
-122.87850395049333
20
-81.287552926769138
30
0
10
-123.00000093877321
20
-82.481068633067281
30
0
10
-123.00000093877321
20
-83.677670379029934
30
0
0
LINE
5
134
100
AcDbEntity
8
0
100
AcDbLine
10
-82.000000938773184
20
-66.000000849366074
30
0
11
-105.32233140910947
21
-66.000000849366074
31
0
0
LINE
5
135
100
AcDbEntity
8
0
100
AcDbLine
10
-82.000000938773184
20
-22.74873819089521
30
0
11
-82.000000938773184
21
-66.000000849366074
31
0
0
ARC
5
136
100
AcDbEntity
8
0
100
AcDbCircle
10
-62.000000938773177
20
-22.74873819089521
30
0
40
20
210
0
220
-0
230
1
100
AcDbArc
50
90
51
180
0
LWPOLYLINE
5
137
100
AcDbEntity
8
0
100
AcDbPolyline
90
13
70
1
43
0.0
10
-134.22529715591827
20
-12.76403331674473
10
-132.95744237069619
20
-15.482956677854709
10
-144.7394436021726
20
-20.976994080483813
10
-154.8955489235901
20
-20.976994080483813
10
-154.89554892359013
20
-17.976994080483806
10
-157.8955489235901
20
-17.976994080483806
10
-157.8955489235901
20
-7.5094003851905455
10
-154.89554892359007
20
-7.5094003851906166
10
-154.89554892359013
20
-4.5094003851906095
10
-130.05530521892055
20
-4.5094003851906095
10
-130.05530521892047
20
-7.5094003851905455
10
-139.11838308928697
20
-11.7355830025976
10
-137.85052830406485
20
-14.454506363707509
0
LWPOLYLINE
5
138
100
AcDbEntity
8
0
100
AcDbPolyline
90
17
70
1
43
0.0
10
-167.44589154122815
20
-10.23514593037433
10
-167.44589154122815
20
-7.2351459303742871
10
-170.24856302254889
20
-7.2351459303743653
10
-170.24856302254875
20
-15.235145930374287
10
-173.24856302254864
20
-15.235145930368256
10
-173.24856302254872
20
-7.2351459303742889
10
-175.94193555085823
20
-7.2351459303743226
10
-175.94193555085826
20
-10.235145930374296
10
-178.94194640551979
20
-10.235145930335062
10
-178.94195364247562
20
-26.420288276979878
10
-172.60267971636512
20
-40.014905082529779
10
-169.88375635525517
20
-38.747050297307496
10
-171.15161114047737
20
-36.028126936197694
10
-168.43268777936731
20
-34.760272150975553
10
-165.896978208923
20
-40.198118873195376
10
-163.17805484781329
20
-38.930264087973342
10
-163.17805484781334
20
-10.235145930374367
0
LWPOLYLINE
5
139
100
AcDbEntity
8
0
100
AcDbPolyline
90
4
70
1
43
0.0
10
-186.81379783594224
20
-51.382372448348939
10
-186.81379783594224
20
-23.442372448348934
42
-0.99999999999999989
10
-184.4137978359422
20
-23.442372448348934
10
-184.4137978359422
20
-51.382372448348939
42
-0.99999999999999989
0
LWPOLYLINE
5
140
100
AcDbEntity
8
0
100
AcDbPolyline
90
4
70
1
43
0.0
10
-202.05379783594225
20
-51.382372448348939
10
-202.05379783594225
20
-23.442372448348934
42
-0.99999999999999989
10
-199.65379783594221
20
-23.442372448348934
10
-199.65379783594221
20
-51.382372448348939
42
-0.99999999999999989
0
LWPOLYLINE
5
141
100
AcDbEntity
8
0
100
AcDbPolyline
90
4
70
1
43
0.0
10
-204.12379783594224
20
-54.652372448348949
10
-182.34379783594224
20
-54.652372448348956
10
-182.34379783594218
20
-20.17237244834892
10
-204.12379783594224
20
-20.172372448348948
0
LWPOLYLINE
5
142
100
AcDbEntity
8
0
100
AcDbPolyline
90
30
70
1
43
0.0
10
-192.72809128431092
20
-83.000000849366103
10
-192.72809128431092
20
-63.000000849366096
10
-172.72809128431092
20
-63.000000849366096
10
-172.72809128431084
20
-43.000000849366096
10
-152.72809128431089
20
-43.000000849366096
10
-152.72809128431089
20
-63.000000849366096
10
-132.72809128431086
20
-63.000000849366167
10
-132.72809128431101
20
-83.00000084936616
10
-152.72142658110715
20
-83.000000849366103
10
-152.72142658110715
20
-82.999787205624216
10
-155.26290005656705
20
-82.999787205624216
10
-155.2629000565671
20
-89.392787205623989
10
-153.48089882509078
20
-100.89874980299491
10
-152.26290005656725
20
-106.39278720562402
10
-152.26290005656733
20
-126.39278720562402
10
-147.26290005656733
20
-126.39278720562405
10
-147.26290005656733
20
-130.83904906885778
10
-153.04689598635051
20
-130.83904906885775
10
-160.57133913951526
20
-151.51228672614761
10
-166.20949486423069
20
-149.46016586619362
10
-170.364356571896
20
-146.66714843381283
10
-163.52395370538261
20
-127.87329601809492
10
-166.34303156774027
20
-126.84723558811768
10
-166.26290005656728
20
-125.39278720562386
10
-163.26290005656728
20
-125.39278720562386
10
-163.26290005656722
20
-105.39278720562405
10
-166.26290005656728
20
-105.39278720562405
10
-166.49612728557
20
-103.34076716047574
10
-163.77720392446005
20
-102.07291237525357
10
-172.67104863229406
20
-83.000000849366103
0
LWPOLYLINE
5
143
100
AcDbEntity
8
0
100
AcDbPolyline
90
4
70
1
43
0.0
10
-159.36909199771728
20
-130.66631345047543
10
-164.15737400427668
20
-143.82201014147822
10
-161.33829614191896
20
-144.84807057145514
10
-156.55001413535956
20
-131.69237388045252
0
LWPOLYLINE
5
144
100
AcDbEntity
8
0
100
AcDbPolyline
90
4
70
1
43
0.0
10
-169.72809128431089
20
-66.000000849366074
10
-169.72809128431092
20
-80.000000849366131
10
-155.72809128431092
20
-80.000000849366131
10
-155.72809128431089
20
-66.000000849366074
0
LWPOLYLINE
5
145
100
AcDbEntity
8
0
100
AcDbPolyline
90
4
70
1
43
0.0
10
-162.96171437405192
20
-87.665679995630541
10
-165.68063773516178
20
-88.933534780852568
10
-159.76398207079211
20
-101.62184379936573
10
-157.04505870968211
20
-100.35398901414375
0
LWPOLYLINE
5
146
100
AcDbEntity
8
0
100
AcDbPolyline
90
4
70
1
43
0.0
10
-188.72809128431095
20
-66.000000849366074
10
-188.72809128431095
20
-80.000000849366018
10
-174.72809128431095
20
-80.000000849366089
10
-174.72809128431095
20
-66.000000849366074
0
LWPOLYLINE
5
147
100
AcDbEntity
8
0
100
AcDbPolyline
90
4
70
1
43
0.0
10
-150.72809128431092
20
-66.000000849366074
10
-150.72809128431092
20
-80.000000849366131
10
-136.72809128431101
20
-80.000000849366131
10
-136.72809128431101
20
-66.000000849366245
0
LWPOLYLINE
5
148
100
AcDbEntity
8
0
100
AcDbPolyline
90
4
70
1
43
0.0
10
-155.26290005656728
20
-109.39278720562399
10
-158.26290005656728
20
-109.39278720562388
10
-158.2629000565673
20
-123.3927872056239
10
-155.26290005656728
20
-123.39278720562405
0
LWPOLYLINE
5
149
100
AcDbEntity
8
0
100
AcDbPolyline
90
4
70
1
43
0.0
10
-155.72809128431092
20
-61.000000849366067
10
-155.72809128431089
20
-47.000000849366153
10
-169.72809128431092
20
-47.000000849366153
10
-169.72809128431092
20
-61.000000849366067
0
LWPOLYLINE
5
150
100
AcDbEntity
8
0
100
AcDbPolyline
90
4
70
1
43
0.0
10
-182.52594877415567
20
-112.88887307419083
10
-181.30576837568839
20
-126.83559884747524
10
-178.31718428141318
20
-126.57413161923228
10
-179.53736467988037
20
-112.62740584594781
0
LWPOLYLINE
5
151
100
AcDbEntity
8
0
100
AcDbPolyline
90
4
70
1
43
0.0
10
-178.87604386140208
20
-134.95431524458743
10
-181.77382134026928
20
-134.17785810927992
10
-185.39728797170449
20
-147.70081967732671
10
-182.49951049283726
20
-148.47727681263436
0
LWPOLYLINE
5
152
100
AcDbEntity
8
0
100
AcDbPolyline
90
4
70
1
43
0.0
10
-189.10052485119638
20
-91.653972718598141
10
-191.69860106254973
20
-93.153972718598155
10
-184.6986010625497
20
-105.27832837158027
10
-182.10052485119644
20
-103.77832837158024
0
LWPOLYLINE
5
153
100
AcDbEntity
8
0
100
AcDbPolyline
90
21
70
1
43
0.0
10
-193.62092041079262
20
-100.8098994264747
10
-194.28664255106085
20
-98.22410661553991
10
-191.82918641819387
20
-96.503377306486726
10
-203.30071514521495
20
-80.120336420706977
10
-188.50244863984307
20
-86.689871103460234
10
-178.50244863984315
20
-104.01037917914913
10
-172.30811123389887
20
-103.46844487807438
10
-171.82927432338937
20
-108.94157580969129
10
-176.81024781384809
20
-109.37735452342963
10
-175.06713295889494
20
-129.30124848526452
10
-170.08615946843628
20
-128.86546977152625
10
-169.6986422132955
20
-133.29481226600711
10
-175.46062829232972
20
-133.79892072731678
10
-181.41346632968765
20
-156.01521473196539
10
-187.2090212874221
20
-154.4623004613502
10
-197.82118670496945
20
-142.79709645497459
10
-189.36547231037451
20
-124.6637584179135
10
-192.08439567148443
20
-123.3959036326915
10
-191.87780555583944
20
-120.73379338830961
10
-188.88922146156426
20
-120.47232616006664
10
-190.63233631651741
20
-100.54843219823169
0
LWPOLYLINE
5
154
100
AcDbEntity
8
0
100
AcDbPolyline
90
25
70
1
43
0.0
10
-158.40094801152702
20
-172.20630951700508
10
-158.40094801152716
20
-190.79310245821745
10
-161.40094801152713
20
-190.79310245821742
10
-161.40094801152719
20
-195.06095724343936
10
-191.29796910764711
20
-195.06095724343925
10
-192.56582389286916
20
-192.3420338823293
10
-187.1279771706493
20
-189.80632431188519
10
-188.39583195587139
20
-187.08740095077525
10
-191.1147553169813
20
-188.35525573599725
10
-192.38261010220333
20
-185.6363323748873
10
-185.13214780591022
20
-182.25538628096177
10
-191.04880347027984
20
-169.56707726244866
10
-198.29926576657306
20
-172.94802335637416
10
-199.56712055179514
20
-170.22909999526422
10
-196.84819719068508
20
-168.96124521004202
10
-198.11605197590728
20
-166.24232184893219
10
-203.55389869812709
20
-168.77803141937662
10
-204.82175348334926
20
-166.05910805826676
10
-188.50821331668988
20
-158.45197934693346
10
-161.40094801152691
20
-158.45197934693365
10
-161.40094801152699
20
-161.17090270804363
10
-158.40094801152699
20
-161.17090270804363
10
-158.40094801152716
20
-169.20630947230163
10
-168.40094830955042
20
-169.20630947230154
10
-168.40094830955042
20
-172.20630951700502
0
LWPOLYLINE
5
155
100
AcDbEntity
8
0
100
AcDbPolyline
90
25
70
1
43
0.0
10
-158.40094801152534
20
-200.77988060454942
10
-158.40094801152534
20
-208.81528736880745
10
-168.40094830954885
20
-208.81528736880745
10
-168.40094830954885
20
-211.81528741351093
10
-158.40094801152534
20
-211.81528741351093
10
-158.40094801152534
20
-230.40208035472318
10
-161.4009480115254
20
-230.40208035472318
10
-161.4009480115254
20
-234.66993513994524
10
-191.29796910764523
20
-234.66993513994532
10
-192.56582389286731
20
-231.95101177883529
10
-187.12797717064743
20
-229.41530220839115
10
-188.39583195586954
20
-226.69637884728121
10
-191.11475531697943
20
-227.96423363250335
10
-192.38261010220157
20
-225.24531027139332
10
-185.1321478059084
20
-221.86436417746776
10
-191.04880347027819
20
-209.17605515895468
10
-198.29926576657135
20
-212.55700125288024
10
-199.56712055179349
20
-209.83807789177033
10
-196.84819719068344
20
-208.57022310654813
10
-198.11605197590563
20
-205.85129974543827
10
-203.55389869812541
20
-208.38700931588278
10
-204.82175348334763
20
-205.66808595477283
10
-188.50821331668834
20
-198.06095724343947
10
-161.4009480115254
20
-198.06095724343947
10
-161.4009480115254
20
-200.77988060454939
0
LWPOLYLINE
5
156
100
AcDbEntity
8
0
100
AcDbPolyline
90
4
70
1
43
0.0
10
-187.33209181631597
20
-241.35412783992331
10
-201.33209181631597
20
-241.35412783992331
10
-201.33209181631597
20
-255.35412783992336
10
-187.33209181631597
20
-255.35412783992336
0
LWPOLYLINE
5
157
100
AcDbEntity
8
0
100
AcDbPolyline
90
8
70
1
43
0.0
10
-204.33209181631597
20
-258.35412783992331
10
-204.33209181631597
20
-238.35412783992328
10
-184.33209181631597
20
-238.35412783992328
10
-184.33209181631597
20
-258.35412783992336
10
-187.33209181631594
20
-258.35412783992331
10
-187.33209181631594
20
-261.35412783992336
10
-201.33209181631597
20
-261.35412783992336
10
-201.33209181631597
20
-258.35412783992331
0
LWPOLYLINE
5
158
100
AcDbEntity
8
0
100
AcDbPolyline
90
4
70
1
43
0.0
10
-162.00000093877324
20
-256.00000000000017
10
-162.00000093877321
20
-242.00000000000014
10
-176.00000093877321
20
-242.00000000000014
10
-176.00000093877321
20
-256.00000000000017
0
LWPOLYLINE
5
159
100
AcDbEntity
8
0
100
AcDbPolyline
90
8
70
1
43
0.0
10
-162.00000093877321
20
-262.00000000000017
10
-176.00000093877327
20
-262.00000000000017
10
-176.00000093877327
20
-259.00000000000017
10
-179.00000093877321
20
-259.00000000000011
10
-179.00000093877321
20
-239.00000000000009
10
-159.00000093877321
20
-239.00000000000017
10
-159.00000093877316
20
-259.00000000000011
10
-162.00000093877321
20
-259.00000000000017
0
LWPOLYLINE
5
160
100
AcDbEntity
8
0
100
AcDbPolyline
90
24
70
1
43
0.0
10
-154.40094801152534
20
-232.40208035472321
10
-154.40094801152532
20
-246.40208035472327
10
-148.40094801152529
20
-246.40208035472324
10
-148.40094801152534
20
-249.40208035472324
10
-154.40094801152529
20
-249.40208035472324
10
-154.40094801152532
20
-252.40208035472318
10
-145.40094801152532
20
-252.40208035472318
10
-145.40094801152532
20
-249.40208035472318
10
-142.40094801152534
20
-249.40208035472318
10
-142.40094801152534
20
-241.40208035472318
10
-145.40094801152532
20
-241.40208035472315
10
-145.40094801152534
20
-237.40208035472318
10
-142.40094801152529
20
-237.40208035472318
10
-142.40094801152532
20
-222.40208035472318
10
-145.40094805622871
20
-222.40208035472318
10
-145.40094805622871
20
-219.40208035472318
10
-142.40094801152526
20
-219.40208035472318
10
-142.40094801152532
20
-212.40208035472318
10
-148.40094801152532
20
-212.40208035472318
10
-148.40094801152526
20
-209.40208035472321
10
-154.40094801152537
20
-209.40208035472321
10
-154.4009480115254
20
-229.40208035472321
10
-148.40094801152534
20
-229.40208035472318
10
-148.40094801152537
20
-232.40208035472318
0
LWPOLYLINE
5
161
100
AcDbEntity
8
0
100
AcDbPolyline
90
4
70
1
43
0.0
10
-107.58520361274887
20
-264.17739196719606
10
-104.58520361274886
20
-264.17739196719606
10
-104.58520361274886
20
-250.17739196719612
10
-107.58520361274887
20
-250.17739196719612
0
LWPOLYLINE
5
162
100
AcDbEntity
8
0
100
AcDbPolyline
90
24
70
1
43
0.0
10
-97.664669235062561
20
-226.9290911689842
10
-104.34459785008157
20
-224.49779598609413
10
-138.5852013477724
20
-238.3672723625898
10
-138.5852013477724
20
-242.17739196719609
10
-128.58520361274887
20
-242.17739196719606
10
-128.58520361274887
20
-245.17739196719606
10
-138.5852013477724
20
-245.17739196719603
10
-138.5852013477724
20
-269.17739196719606
10
-128.58520361274896
20
-269.17739196719606
10
-128.5852036127489
20
-272.17739196719606
10
-138.5852013477724
20
-272.17739196719606
10
-138.58520134777234
20
-275.96489221961286
10
-102.19775165450308
20
-290.29243890296124
10
-95.899611148932195
20
-287.35556775307737
10
-97.167465934154279
20
-284.63664439196742
10
-99.886389295264323
20
-285.90449917718951
10
-105.80304495963402
20
-273.2161901586764
10
-103.08412159852406
20
-271.94833537345431
10
-101.58520361274884
20
-267.17739196719612
10
-101.58520361274884
20
-247.17739196719612
10
-103.4790116715989
20
-242.90386572234462
10
-106.29808953395661
20
-241.87780529236761
10
-101.50980752739719
20
-228.72210860136488
10
-98.690729665039555
20
-229.74816903134186
0
LWPOLYLINE
5
163
100
AcDbEntity
8
0
100
AcDbPolyline
90
17
70
1
43
0.0
10
-136.10223822820529
20
-216.40092844403117
10
-139.10223822820535
20
-216.40092844403117
10
-139.10223822820535
20
-219.20359992535191
10
-131.10223822820535
20
-219.2035999253518
10
-131.10223822821132
20
-222.20359992535177
10
-139.10223822820535
20
-222.20359992535177
10
-139.10223822820535
20
-224.89697245366133
10
-136.10223822820529
20
-224.89697245366133
10
-136.10223822824454
20
-227.8969833083228
10
-119.91709588159972
20
-227.89699054527873
10
-106.3224790760499
20
-221.55771661916819
10
-107.59033386127206
20
-218.83879325805825
10
-110.30925722238197
20
-220.10664804328042
10
-111.57711200760406
20
-217.38772468217039
10
-106.13926528538421
20
-214.85201511172613
10
-107.40712007060631
20
-212.13309175061639
10
-136.10223822820535
20
-212.13309175061639
0
CIRCLE
5
164
100
AcDbEntity
8
0
100
AcDbCircle
10
-125.24011491225141
20
-194.10000141561051
30
0
40
4.0000000000000036
210
0
220
0
230
1
0
LWPOLYLINE
5
165
100
AcDbEntity
8
0
100
AcDbPolyline
90
20
70
1
43
0.0
10
-123.24011491225141
20
-205.60000114738955
10
-98.240115240076761
20
-205.60000114738966
10
-98.240115240076761
20
-202.60000114738966
10
-95.240115240076776
20
-202.60000114738966
10
-105.24011524007673
20
-185.60000084936635
10
-110.24011524007673
20
-185.60000084936635
10
-110.24011524007678
20
-195.60000084936638
10
-113.24011524007676
20
-195.60000084936638
10
-113.2401152400767
20
-185.60000084936632
10
-137.24011519537331
20
-185.60000084936635
10
-137.24011519537331
20
-195.60000099837791
10
-140.24011524007679
20
-195.60000099837794
10
-140.24011524007673
20
-185.60000084936632
10
-145.24011524007673
20
-185.60000084936635
10
-155.24011524007682
20
-202.60000114738943
10
-152.24011524007676
20
-202.60000114738943
10
-152.24011524007679
20
-205.60000114738955
10
-127.24011491225141
20
-205.60000114738955
10
-127.24011491225143
20
-202.60000141561051
10
-123.24011491225143
20
-202.60000141561051
0
LWPOLYLINE
5
166
100
AcDbEntity
8
0
100
AcDbPolyline
90
17
70
1
43
0.0
10
-144.37846816097218
20
-170.45709655380804
10
-123.53338905912922
20
-160.73687653377198
10
-125.64648036783271
20
-156.20533759858881
10
-112.95817134931964
20
-150.28868193421897
10
-110.84508004061611
20
-154.82022086940222
10
-90.000000938773155
20
-145.10000084936618
10
-152.40094801152651
20
-145.10000084936621
10
-152.40094801152651
20
-148.10000084936618
10
-155.40094801152648
20
-148.10000084936618
10
-155.40094801152645
20
-157.60000084936618
10
-149.40094801152645
20
-157.60000084936618
10
-149.40094801152645
20
-160.60000084936618
10
-155.40094801152645
20
-160.60000084936618
10
-155.40094801152648
20
-170.17601991491802
10
-152.40094801152648
20
-170.17601991491802
10
-152.40094801152648
20
-173.17601991491807
10
-143.11061337575009
20
-173.17601991491807
0
LWPOLYLINE
5
167
100
AcDbEntity
8
0
100
AcDbPolyline
90
26
70
1
43
0.0
10
-110.00000093877297
20
-133.00000084936684
10
-107.00000093877298
20
-133.0000008493667
10
-107.00000093877293
20
-126.00000084936684
10
-102.00000105798222
20
-126.00000084936688
10
-92.000000938772985
20
-138.00000080466333
10
-92.000000938772985
20
-141.00000084937284
10
-98.000000998377629
20
-141.00000084936684
10
-98.000000998377629
20
-138.00000080466333
10
-101.00000104308111
20
-138.00000080466333
10
-101.00000104308111
20
-141.00000084936684
10
-115.00000125169741
20
-141.00000084937005
10
-115.00000125169736
20
-138.0000008046633
10
-119.00000131130206
20
-138.0000008046633
10
-119.00000131130206
20
-141.00000084936954
10
-133.00000151991827
20
-141.0000008493667
10
-133.00000151991827
20
-138.0000008046633
10
-136.00000156462175
20
-138.0000008046633
10
-136.00000156462175
20
-141.0000008493667
10
-142.00000093877304
20
-141.0000008493667
10
-142.00000093877304
20
-138.00000080466324
10
-132.00000150501711
20
-126.0000008493667
10
-127.00000093877294
20
-126.00000084936681
10
-127.000000938773
20
-133.00000084936681
10
-124.00000093877294
20
-133.0000008493667
10
-124.00000093877294
20
-126.00000084936681
10
-110.00000093877297
20
-126.00000084936684
0
LWPOLYLINE
5
168
100
AcDbEntity
8
0
100
AcDbPolyline
90
13
70
1
43
0.0
10
-147.81935624206571
20
-92.917552283098075
10
-149.08721102728779
20
-90.198628921988131
10
-137.30520979581141
20
-84.704591519359056
10
-127.14910451909738
20
-84.704591519359056
10
-127.14910451909742
20
-87.704591519358928
10
-124.14910447439389
20
-87.704591519358928
10
-124.14910447439389
20
-98.172185214652288
10
-127.14910447439387
20
-98.172185214652288
10
-127.14910447439387
20
-101.1721852146523
10
-151.98934817906351
20
-101.1721852146523
10
-151.98934817906351
20
-98.172185214652288
10
-142.92627030869707
20
-93.94600259724524
10
-144.19412509391915
20
-91.227079236135296
0
LWPOLYLINE
5
169
100
AcDbEntity
8
0
100
AcDbPolyline
90
26
70
1
43
0.0
10
-124.00000093877294
20
-123.00000084936681
10
-110.00000093877293
20
-123.00000084936656
10
-110.0000009387731
20
-113.00000084936659
10
-107.00000093877321
20
-113.00000084936653
10
-107.00000093877293
20
-123.00000084936653
10
-102.0000003576277
20
-123.00000114738947
10
-92.000000938773084
20
-106.00000089406954
10
-92.000000938773198
20
-103.00000084936627
10
-98.000000298023551
20
-103.0000008493662
10
-98.00000029802348
20
-106.00000089406961
10
-101.00000034272691
20
-106.00000089406969
10
-101.00000034272703
20
-103.00000084936642
10
-115.00000055134329
20
-103.00000084936656
10
-115.00000055134321
20
-106.00000089407004
10
-119.00000061094784
20
-106.00000089407015
10
-119.00000061094794
20
-103.00000084936677
10
-133.00000081956421
20
-103.00000084936698
10
-133.00000081956409
20
-106.00000089407044
10
-136.00000086426763
20
-106.00000089407058
10
-136.00000086426769
20
-103.00000084936713
10
-142.00000093877327
20
-103.00000084936715
10
-142.00000093877321
20
-106.00000089407064
10
-132.00000080466256
20
-123.00000114739021
10
-127.000000938773
20
-123.00000084936687
10
-127.00000093877314
20
-113.00000084936681
10
-124.00000093877321
20
-113.00000084936681
0
LWPOLYLINE
5
170
100
AcDbEntity
8
0
100
AcDbPolyline
90
21
70
1
43
0.0
10
-126.78000093877318
20
-35.497779597853665
10
-105.00000093877318
20
-35.497779597853665
10
-105.00000093877318
20
-38.497779597853707
10
-88.000000938773169
20
-38.497779597853672
10
-88.000000938773169
20
-35.497779597853665
10
-85.000000938773198
20
-35.497779597853665
10
-85.000001236796422
20
-29.497779597853651
10
-95.000001236796408
20
-29.497779597853651
10
-95.000001236796408
20
-26.497779597853608
10
-85.000001236796422
20
-26.497779597853608
10
-85.000000938773198
20
-19.995558346341191
10
-88.000000938773169
20
-19.995558346341191
10
-88.000000938773212
20
-16.995558346341184
10
-122.88784757964126
20
-16.995558346341184
10
-143.73292668148412
20
-26.715778366377343
10
-141.61983537278064
20
-31.247317301560571
10
-132.55675750241409
20
-27.021134684153552
10
-131.28890271719203
20
-29.740058045263567
10
-140.35198058755864
20
-33.966240662670337
10
-138.23888927885503
20
-38.497779597853778
10
-126.78000093877318
20
-38.497779597853743
0
LWPOLYLINE
5
171
100
AcDbEntity
8
0
100
AcDbPolyline
90
21
70
1
43
0.0
10
-105.00000093877318
20
-41.497779597853572
10
-105.00000093877318
20
-44.49777959785358
10
-126.78000093877318
20
-44.49777959785358
10
-126.78000093877318
20
-41.497779597853572
10
-138.23888927885508
20
-41.497779597853537
10
-140.35198058755861
20
-46.029318533036836
10
-131.28890271719209
20
-50.255501150443926
10
-132.5567575024142
20
-52.974424511553906
10
-141.61983537278073
20
-48.748241894146958
10
-143.73292668148412
20
-53.279780829330008
10
-122.88784757964123
20
-63.000000849366202
10
-88.000000938773169
20
-63.000000849366202
10
-88.000000938773169
20
-60.000000849366124
10
-85.000000938773198
20
-60.000000849366124
10
-85.000000938773198
20
-53.497779597853743
10
-95.000001087784796
20
-53.497779597853743
10
-95.000001087784796
20
-50.497779597853736
10
-85.000000938773198
20
-50.497779597853736
10
-85.000000938773198
20
-44.497779597853615
10
-88.000000938773169
20
-44.497779597853615
10
-88.000000938773169
20
-41.497779597853608
0
LWPOLYLINE
5
172
100
AcDbEntity
8
0
100
AcDbPolyline
90
4
70
1
43
0.0
10
-22.000000938773177
20
-175.00000084936616
10
-8.0000009387731197
20
-175.00000084936616
10
-8.0000009387731197
20
-161.00000084936624
10
-22.000000938773177
20
-161.00000084936619
0
LWPOLYLINE
5
173
100
AcDbEntity
8
0
100
AcDbPolyline
90
4
70
1
43
0.0
10
-22.000000938773177
20
-181.00000084936619
10
-22.000000938773177
20
-195.00000084936616
10
-8.0000009387731197
20
-195.00000084936616
10
-8.0000009387731197
20
-181.00000084936619
0
LWPOLYLINE
5
174
100
AcDbEntity
8
0
100
AcDbPolyline
90
8
70
1
43
0.0
10
-25.000000938773148
20
-198.00000084936613
10
-5.0000009387731126
20
-198.00000084936613
10
-5.0000009387731126
20
-158.00000084936624
10
-8.0000009387730842
20
-158.00000084936616
10
-8.0000009387730842
20
-155.00000084936616
10
-22.000000938773141
20
-155.00000084936613
10
-22.000000938773141
20
-158.0000008493661
10
-25.000000938773148
20
-158.00000084936607
0
LWPOLYLINE
5
175
100
AcDbEntity
8
0
100
AcDbPolyline
90
4
70
1
43
0.0
10
-22.000000938773177
20
-224.00000084936619
10
-22.000000938773177
20
-238.00000084936616
10
-8.0000009387731197
20
-238.00000084936616
10
-8.0000009387731197
20
-224.00000084936619
0
LWPOLYLINE
5
176
100
AcDbEntity
8
0
100
AcDbPolyline
90
4
70
1
43
0.0
10
-22.000000938773177
20
-204.00000084936613
10
-22.000000938773177
20
-218.00000084936613
10
-8.0000009387731197
20
-218.00000084936613
10
-8.0000009387731197
20
-204.00000084936613
0
LWPOLYLINE
5
177
100
AcDbEntity
8
0
100
AcDbPolyline
90
8
70
1
43
0.0
10
-25.000000938773148
20
-241.00000084936619
10
-22.000000938773177
20
-241.00000084936619
10
-22.000000938773177
20
-244.00000084936613
10
-8.0000009387731197
20
-244.00000084936613
10
-8.0000009387731197
20
-241.00000084936619
10
-5.0000009387731126
20
-241.00000084936613
10
-5.0000009387731126
20
-201.00000084936613
10
-25.000000938773148
20
-201.00000084936619
0
LWPOLYLINE
5
178
100
AcDbEntity
8
0
100
AcDbPolyline
90
4
70
1
43
0.0
10
-8.0000009387731197
20
-267.00000084936613
10
-8.0000009387730842
20
-253.00000084936616
10
-22.000000938773177
20
-253.00000084936616
10
-22.000000938773177
20
-267.00000084936613
0
LWPOLYLINE
5
179
100
AcDbEntity
8
0
100
AcDbPolyline
90
12
70
1
43
0.0
10
-25.000000938773148
20
-250.00000084936613
10
-22.000000938773177
20
-250.00000084936613
10
-22.000000938773177
20
-247.00000084936616
10
-8.0000009387730842
20
-247.00000084936616
10
-8.0000009387730842
20
-250.00000084936616
10
-5.0000009387731126
20
-250.00000084936616
10
-5.0000009387731126
20
-270.00000084936619
10
-8.0000009387730842
20
-270.00000084936619
10
-8.0000009387731197
20
-273.00000084936619
10
-22.000000938773177
20
-273.00000084936619
10
-22.000000938773177
20
-270.00000084936619
10
-25.000000938773148
20
-270.00000084936619
0
LWPOLYLINE
5
180
100
AcDbEntity
8
0
100
AcDbPolyline
90
4
70
1
43
0.0
10
-31.000000938773056
20
-267.00000084936613
10
-31.000000938773127
20
-253.00000084936616
10
-45.000000938773127
20
-253.00000084936616
10
-45.000000938773056
20
-267.00000084936613
0
LWPOLYLINE
5
181
100
AcDbEntity
8
0
100
AcDbPolyline
90
12
70
1
43
0.0
10
-48.000000938773098
20
-250.00000084936616
10
-48.000000938773084
20
-270.00000084936619
10
-45.000000938773077
20
-270.00000084936619
10
-45.000000938773077
20
-273.00000084936619
10
-31.000000938773056
20
-273.00000084936613
10
-31.000000938773056
20
-270.00000084936607
10
-28.000000938773049
20
-270.00000084936607
10
-28.00000093877312
20
-250.00000084936616
10
-31.000000938773127
20
-250.00000084936616
10
-31.000000938773109
20
-247.00000084936616
10
-45.000000938773113
20
-247.00000084936616
10
-45.000000938773113
20
-250.00000084936616
0
LWPOLYLINE
5
182
100
AcDbEntity
8
0
100
AcDbPolyline
90
4
70
1
43
0.0
10
-31.000000938773127
20
-218.00000084936613
10
-31.000000938773127
20
-204.00000084936613
10
-45.000000938773127
20
-204.00000084936613
10
-45.000000938773113
20
-218.00000084936613
0
LWPOLYLINE
5
183
100
AcDbEntity
8
0
100
AcDbPolyline
90
4
70
1
43
0.0
10
-45.000000938773113
20
-224.00000084936613
10
-45.000000938773113
20
-238.00000084936616
10
-31.000000938773109
20
-238.00000084936616
10
-31.000000938773127
20
-224.00000084936613
0
LWPOLYLINE
5
184
100
AcDbEntity
8
0
100
AcDbPolyline
90
8
70
1
43
0.0
10
-45.000000938773098
20
-244.00000084936613
10
-45.000000938773113
20
-241.00000084936613
10
-48.000000938773155
20
-241.00000084936613
10
-48.000000938773155
20
-201.00000084936619
10
-28.00000093877312
20
-201.00000084936613
10
-28.00000093877312
20
-241.00000084936613
10
-31.000000938773127
20
-241.00000084936613
10
-31.000000938773127
20
-244.00000084936613
0
LWPOLYLINE
5
185
100
AcDbEntity
8
0
100
AcDbPolyline
90
4
70
1
43
0.0
10
-45.000000938773113
20
-175.00000084936616
10
-31.000000938773109
20
-175.00000084936616
10
-31.000000938773127
20
-161.00000084936619
10
-45.000000938773127
20
-161.00000084936619
0
LWPOLYLINE
5
186
100
AcDbEntity
8
0
100
AcDbPolyline
90
4
70
1
43
0.0
10
-31.000000938773127
20
-195.00000084936616
10
-31.000000938773127
20
-181.00000084936619
10
-45.000000938773127
20
-181.00000084936619
10
-45.000000938773113
20
-195.00000084936616
0
LWPOLYLINE
5
187
100
AcDbEntity
8
0
100
AcDbPolyline
90
8
70
1
43
0.0
10
-31.000000536441767
20
-155.00000084936613
10
-31.000000536441767
20
-158.0000008493661
10
-28.00000093877312
20
-158.0000008493661
10
-28.00000093877312
20
-198.00000084936613
10
-48.000000938773155
20
-198.00000084936613
10
-48.000000938773155
20
-158.00000084936613
10
-45.000000938773113
20
-158.00000084936613
10
-45.000000938773184
20
-155.00000084936619
0
LWPOLYLINE
5
188
100
AcDbEntity
8
0
100
AcDbPolyline
90
4
70
1
43
0.0
10
-68.000000938773141
20
-181.00000084936619
10
-68.000000938773141
20
-195.00000084936616
10
-54.000000938773134
20
-195.00000084936616
10
-54.000000938773134
20
-181.00000084936619
0
LWPOLYLINE
5
189
100
AcDbEntity
8
0
100
AcDbPolyline
90
4
70
1
43
0.0
10
-54.000000938773134
20
-161.0000008493661
10
-68.000000938773141
20
-161.0000008493661
10
-68.000000938773141
20
-175.00000084936616
10
-54.000000938773134
20
-175.00000084936616
0
LWPOLYLINE
5
190
100
AcDbEntity
8
0
100
AcDbPolyline
90
8
70
1
43
0.0
10
-54.000000938773134
20
-155.00000084936613
10
-68.000000938773141
20
-155.00000084936613
10
-68.000000938773141
20
-158.00000084936613
10
-71.000000938773127
20
-158.0000008493661
10
-71.000000938773127
20
-198.00000084936613
10
-51.000000938773113
20
-198.00000084936613
10
-51.000000938773113
20
-158.00000084936613
10
-54.000000938773134
20
-158.00000084936613
0
LWPOLYLINE
5
191
100
AcDbEntity
8
0
100
AcDbPolyline
90
4
70
1
43
0.0
10
-54.000000938773134
20
-218.00000084936613
10
-54.000000938773134
20
-204.00000084936613
10
-68.000000938773141
20
-204.00000084936613
10
-68.000000938773098
20
-218.00000084936613
0
LWPOLYLINE
5
192
100
AcDbEntity
8
0
100
AcDbPolyline
90
4
70
1
43
0.0
10
-68.000000938773141
20
-224.00000084936613
10
-68.000000938773098
20
-238.00000084936619
10
-54.000000938773134
20
-238.00000084936613
10
-54.000000938773134
20
-224.00000084936613
0
LWPOLYLINE
5
193
100
AcDbEntity
8
0
100
AcDbPolyline
90
8
70
1
43
0.0
10
-54.000000938773098
20
-244.00000084936613
10
-68.000000938773098
20
-244.00000084936613
10
-68.000000938773098
20
-241.00000084936619
10
-71.000000938773127
20
-241.00000084936619
10
-71.000000938773127
20
-201.00000084936619
10
-51.000000938773113
20
-201.00000084936619
10
-51.000000938773113
20
-241.00000084936619
10
-54.000000938773134
20
-241.00000084936619
0
LWPOLYLINE
5
194
100
AcDbEntity
8
0
100
AcDbPolyline
90
4
70
1
43
0.0
10
-44.816171663102295
20
-282.19634760105981
10
-50.816171663102381
20
-282.19634760105981
10
-50.816171663102381
20
-285.19634760105981
10
-44.816171663102295
20
-285.19634760105981
0
LWPOLYLINE
5
195
100
AcDbEntity
8
0
100
AcDbPolyline
90
9
70
1
43
0.0
10
-69.232662039611611
20
-278.07269377032185
10
-41.816171663102288
20
-278.07269377032185
10
-41.816171663102288
20
-281.07269377032185
10
-38.816171663102281
20
-281.07269377032185
10
-38.816171663102281
20
-286.2439823662458
10
-41.816171663102288
20
-286.2439823662458
10
-41.816171663102288
20
-289.24398236624575
10
-86.090962995122581
20
-289.2439823662458
10
-67.964807254389527
20
-280.79161713143185
0
LWPOLYLINE
5
196
100
AcDbEntity
8
0
100
AcDbPolyline
90
4
70
1
43
0.0
10
-68.000000938773098
20
-253.00000084936616
10
-68.000000938773098
20
-267.00000084936613
10
-54.000000938773134
20
-267.00000084936613
10
-54.000000938773098
20
-253.00000084936616
0
LWPOLYLINE
5
197
100
AcDbEntity
8
0
100
AcDbPolyline
90
12
70
1
43
0.0
10
-54.000000938773098
20
-250.00000084936616
10
-51.000000938773113
20
-250.00000084936616
10
-51.000000938773113
20
-270.00000084936619
10
-54.000000938773134
20
-270.00000084936619
10
-54.000000938773134
20
-273.00000084936619
10
-68.000000938773098
20
-273.00000084936619
10
-68.000000938773098
20
-270.00000084936619
10
-71.000000938773127
20
-270.00000084936619
10
-71.000000938773127
20
-250.00000084936616
10
-68.000000938773098
20
-250.00000084936616
10
-68.000000938773098
20
-247.00000084936616
10
-54.000000938773098
20
-247.00000084936616
0
LWPOLYLINE
5
198
100
AcDbEntity
8
0
100
AcDbPolyline
90
4
70
1
43
0.0
10
-82.27171047549129
20
-261.21054517075822
10
-85.09078833784892
20
-260.18448474078122
10
-89.879070344408206
20
-273.340181431784
10
-87.05999248205049
20
-274.36624186176095
0
LWPOLYLINE
5
199
100
AcDbEntity
8
0
100
AcDbPolyline
90
4
70
1
43
0.0
10
-91.402334075293965
20
-218.45170607115847
10
-85.485678410924095
20
-231.14001508967158
10
-82.766755049814094
20
-229.87216030444938
10
-88.683410714184021
20
-217.18385128593633
0
LWPOLYLINE
5
200
100
AcDbEntity
8
0
100
AcDbPolyline
90
4
70
1
43
0.0
10
-80.984596396699118
20
-238.91095849592975
10
-83.984596396699118
20
-238.91095849592978
10
-83.984596396699018
20
-252.91095849592978
10
-80.984596396699004
20
-252.91095849592955
0
LWPOLYLINE
5
201
100
AcDbEntity
8
0
100
AcDbPolyline
90
21
70
1
43
0.0
10
-78.768592326482022
20
-260.35722035916336
10
-86.635055622972303
20
-281.97015063723933
10
-92.273211347687749
20
-279.91802977728531
10
-96.086052912027384
20
-273.1853197241187
10
-89.245650045514125
20
-254.39146730840059
10
-92.064727907872083
20
-253.36540687842353
10
-91.984596396698947
20
-251.91095849592969
10
-88.984596396698933
20
-251.91095849592966
10
-88.984596396699075
20
-231.91095849592978
10
-91.984596396699075
20
-231.91095849592978
10
-92.217823625701783
20
-229.85893845078158
10
-89.498900264591882
20
-228.59108366555932
10
-97.950188085022802
20
-210.46723844742735
10
-88.922815185258798
20
-209.57184199145772
10
-79.202595165222576
20
-230.41692109330063
10
-72.984596396699146
20
-230.41692109330052
10
-72.984596396699061
20
-235.91095849592966
10
-77.984596396699061
20
-235.91095849592972
10
-77.98459639669889
20
-255.91095849592972
10
-72.984596396699843
20
-255.91095849592958
10
-72.984596396699772
20
-260.35722035916336
0
LWPOLYLINE
5
202
100
AcDbEntity
8
0
100
AcDbPolyline
90
4
70
1
43
0.0
10
-76.658247375020181
20
-204.44169032725443
10
-76.658247375020139
20
-190.44169032725446
10
-90.658247375020125
20
-190.44169032725446
10
-90.658247375020125
20
-204.44169032725441
0
LWPOLYLINE
5
203
100
AcDbEntity
8
0
100
AcDbPolyline
90
8
70
1
43
0.0
10
-73.65824737502011
20
-187.44169032725438
10
-76.658247375020125
20
-187.44169032725438
10
-76.658247375020125
20
-184.44169032725441
10
-90.65824737502011
20
-184.44169032725441
10
-90.658247375020139
20
-187.44169032725438
10
-93.658247375020167
20
-187.44169032725438
10
-93.658247375020125
20
-207.44169032725438
10
-73.65824737502011
20
-207.44169032725438
0
LWPOLYLINE
5
204
100
AcDbEntity
8
0
100
AcDbPolyline
90
17
70
1
43
0.0
10
-101.0224807893274
20
-157.24290514492426
10
-102.29033557454947
20
-154.52398178381429
10
-93.000000938773141
20
-154.52398178381429
10
-93.000000938773141
20
-157.52398178381426
10
-90.000000938773113
20
-157.52398178381429
10
-90.000000938773155
20
-167.10000084936615
10
-96.000000938773127
20
-167.10000084936615
10
-96.000000938773127
20
-170.10000084936618
10
-90.000000938773155
20
-170.10000084936618
10
-90.000000938773155
20
-179.60000084936615
10
-93.000000938773141
20
-179.60000084936615
10
-93.000000938773155
20
-182.60000084936618
10
-155.40094801152648
20
-182.60000084936615
10
-134.55586890968351
20
-172.87978082933009
10
-132.44277760098004
20
-177.41131976451328
10
-119.75446858246691
20
-171.49466410014355
10
-121.86755989117037
20
-166.96312516496027
0
ENDSEC
0
SECTION
2
OBJECTS
0
DICTIONARY
5
C
100
AcDbDictionary
3
ACAD_GROUP
350
D
3
ACAD_MLINESTYLE
350
17
0
DICTIONARY
5
D
100
AcDbDictionary
0
DICTIONARY
5
1A
330
C
100
AcDbDictionary
0
DICTIONARY
5
17
100
AcDbDictionary
0
ENDSEC
0
EOF
